SplineFontDB: 3.2
FontName: ChessTepoztlan
FullName: ChessTepoztlan
FamilyName: ChessTepoztlan
Weight: Regular
Copyright: Donated to the public domain 2022 by Sam Trenholme
UComments: "2022-4-14: Created with FontForge (http://fontforge.org)"
Version: 001.000
ItalicAngle: 0
UnderlinePosition: 0
UnderlineWidth: 0
Ascent: 500
Descent: 500
InvalidEm: 0
LayerCount: 2
Layer: 0 0 "Back" 1
Layer: 1 0 "Fore" 0
XUID: [1021 900 -2068765213 18787]
FSType: 0
OS2Version: 0
OS2_WeightWidthSlopeOnly: 0
OS2_UseTypoMetrics: 1
CreationTime: 1650005861
ModificationTime: 1650010068
PfmFamily: 17
TTFWeight: 400
TTFWidth: 5
LineGap: 0
VLineGap: 0
Panose: 0 0 0 0 0 0 0 0 0 0
OS2TypoAscent: 500
OS2TypoAOffset: 0
OS2TypoDescent: -500
OS2TypoDOffset: 0
OS2TypoLinegap: 500
OS2WinAscent: 500
OS2WinAOffset: 0
OS2WinDescent: 500
OS2WinDOffset: 0
HheadAscent: 500
HheadAOffset: 0
HheadDescent: -500
HheadDOffset: 0
OS2SubXSize: 648
OS2SubYSize: 699
OS2SubXOff: 0
OS2SubYOff: 139
OS2SupXSize: 648
OS2SupYSize: 699
OS2SupXOff: 0
OS2SupYOff: 479
OS2StrikeYSize: 49
OS2StrikeYPos: 258
OS2CapHeight: 340
OS2XHeight: 256
OS2Vendor: 'PfEd'
MarkAttachClasses: 1
DEI: 91125
LangName: 1033
Encoding: ISO8859-1
UnicodeInterp: none
NameList: AGL For New Fonts
DisplaySize: -48
AntiAlias: 1
FitToEm: 0
WinInfo: 0 26 12
BeginPrivate: 0
EndPrivate
TeXData: 1 0 0 1048576 524288 349525 682885 1048576 349525 783286 444596 497025 792723 393216 433062 380633 303038 157286 324010 404750 52429 2506097 1059062 262144
BeginChars: 256 37

StartChar: space
Encoding: 32 32 0
Width: 1000
Flags: HW
LayerCount: 2
Fore
SplineSet
0 0 m 1024
EndSplineSet
EndChar

StartChar: exclam
Encoding: 33 33 1
Width: 1000
Flags: HW
LayerCount: 2
Fore
SplineSet
950 -450 m 1
 1000 -450 l 1
 1000 -500 l 1
 950 -500 l 1
 950 -450 l 1
EndSplineSet
EndChar

StartChar: quotedbl
Encoding: 34 34 2
Width: 1000
Flags: HW
LayerCount: 2
Fore
SplineSet
0 -450 m 1
 1000 -450 l 1
 1000 -500 l 1
 0 -500 l 5
 0 -450 l 1
EndSplineSet
EndChar

StartChar: numbersign
Encoding: 35 35 3
Width: 1000
Flags: HW
LayerCount: 2
Fore
SplineSet
0 -450 m 1
 50 -450 l 1
 50 -500 l 1
 0 -500 l 5
 0 -450 l 1
EndSplineSet
EndChar

StartChar: dollar
Encoding: 36 36 4
Width: 1000
Flags: HW
LayerCount: 2
Fore
SplineSet
950 500 m 5
 1000 500 l 5
 1000 -500 l 5
 950 -500 l 5
 950 500 l 5
0 0 m 1024
EndSplineSet
EndChar

StartChar: percent
Encoding: 37 37 5
Width: 1000
Flags: HW
LayerCount: 2
Fore
SplineSet
0 500 m 5
 50 500 l 5
 50 -500 l 5
 0 -500 l 5
 0 500 l 5
0 0 m 1024
EndSplineSet
EndChar

StartChar: parenleft
Encoding: 40 40 6
Width: 1000
Flags: HW
LayerCount: 2
Fore
SplineSet
0 450 m 1
 0 500 l 5
 1000 500 l 1
 1000 450 l 1
 0 450 l 1
EndSplineSet
EndChar

StartChar: parenright
Encoding: 41 41 7
Width: 1000
Flags: HW
LayerCount: 2
Fore
SplineSet
0 450 m 1
 0 500 l 5
 50 500 l 1
 50 450 l 1
 0 450 l 1
EndSplineSet
EndChar

StartChar: B
Encoding: 66 66 8
Width: 1000
Flags: H
LayerCount: 2
Fore
SplineSet
74.0498046875 424.150390625 m 1
 148.099609375 500 l 1
 158.150390625 500 l 1
 168.150390625 500 l 1
 159.200195312 490.849609375 l 2
 154.299804688 485.849609375 119.099609375 449.849609375 81.0498046875 410.849609375 c 2
 11.900390625 340 l 1
 5.9501953125 340 l 1
 0 340 l 1
 0 344.150390625 l 1
 0 348.299804688 l 1
 74.0498046875 424.150390625 l 1
308.75 499.200195312 m 2
 313.450195312 499.549804688 317.799804688 499.900390625 318.5 499.950195312 c 0
 319.650390625 500 319.5 499.799804688 317.25 497.549804688 c 0
 315.849609375 496.25 246.400390625 428.75 162.900390625 347.549804688 c 2
 11 200 l 1
 5.5 200 l 1
 0 200 l 1
 0 205.5 l 1
 0 210.950195312 l 1
 77.400390625 285.599609375 l 2
 119.950195312 326.650390625 186.25 390.150390625 224.75 426.700195312 c 0
 263.25 463.25 296 494.349609375 297.5 495.799804688 c 2
 300.299804688 498.5 l 1
 308.75 499.200195312 l 2
214.75 284.799804688 m 1
 429.25 500 l 1
 439.25 500 l 1
 449.25 500 l 1
 427.700195312 478.400390625 l 2
 415.799804688 466.5 317.200195312 367.549804688 208.549804688 258.5 c 2
 10.9501953125 60.25 l 1
 5.4501953125 60.099609375 l 1
 -0.0498046875 59.9501953125 l 1
 0.099609375 64.75 l 1
 0.25 69.5498046875 l 1
 214.75 284.799804688 l 1
547.349609375 477.75 m 2
 569.25 499.950195312 l 1
 579.200195312 500 l 1
 589.200195312 500 l 1
 584.450195312 495.099609375 l 2
 581.900390625 492.400390625 570.400390625 480.799804688 558.950195312 469.299804688 c 2
 538.150390625 448.349609375 l 1
 542.049804688 444.450195312 l 2
 556.700195312 429.599609375 562.599609375 406.700195312 556.450195312 388.25 c 0
 554.650390625 382.799804688 552.200195312 378.650390625 547.349609375 372.400390625 c 0
 545.299804688 369.849609375 543.099609375 366.75 542.5 365.5 c 0
 541.049804688 362.700195312 540.650390625 357.25 541.450195312 352.900390625 c 0
 542.049804688 349.799804688 547.049804688 338.5 547.849609375 338.5 c 0
 548.049804688 338.5 584.599609375 374.849609375 629 419.25 c 2
 709.75 500 l 1
 719.75 500 l 1
 729.75 500 l 1
 643.049804688 413.299804688 l 2
 557.099609375 327.349609375 556.349609375 326.599609375 557.150390625 325.450195312 c 0
 557.599609375 324.849609375 560.599609375 321.400390625 563.849609375 317.849609375 c 0
 569.849609375 311.299804688 577.5 303.849609375 594.799804688 287.900390625 c 0
 600.099609375 283 607.049804688 276.200195312 610.299804688 272.75 c 2
 616.200195312 266.450195312 l 1
 733 383.25 l 1
 849.75 500 l 1
 859.75 500 l 1
 869.75 500 l 1
 747.549804688 377.799804688 l 1
 625.349609375 255.599609375 l 1
 630.900390625 248.099609375 l 2
 644.099609375 230.349609375 657.5 208.5 667.75 188.049804688 c 2
 671.099609375 181.349609375 l 1
 830.400390625 340.650390625 l 1
 989.75 500 l 1
 994.900390625 500 l 1
 1000 500 l 1
 1000 495.099609375 l 1
 1000 490.25 l 1
 838.799804688 329.049804688 l 1
 677.549804688 167.799804688 l 1
 678.25 166.299804688 l 1
 690.799804688 137.549804688 698.349609375 117.349609375 706.299804688 91 c 0
 708.099609375 85.099609375 709.599609375 80.2001953125 709.700195312 80.150390625 c 0
 709.75 80.099609375 772.799804688 143.049804688 849.75 220 c 2
 989.75 360 l 1
 994.849609375 360 l 1
 1000 360 l 1
 1000 355.150390625 l 1
 1000 350.25 l 1
 856.900390625 207.150390625 l 1
 713.799804688 64.0498046875 l 1
 715.599609375 56.400390625 l 2
 723.299804688 24.150390625 728.5 -12.0498046875 728.5 -33.2001953125 c 2
 728.5 -41.25 l 1
 859.150390625 89.400390625 l 1
 989.75 220 l 1
 994.900390625 220 l 1
 1000 220 l 1
 1000 215.150390625 l 1
 1000 210.25 l 1
 864.299804688 74.5 l 1
 728.599609375 -61.25 l 1
 728.299804688 -68 l 2
 727.450195312 -87.349609375 721.950195312 -110.150390625 714.75 -124.150390625 c 0
 710.5 -132.400390625 707.849609375 -135.799804688 697.099609375 -146.5 c 0
 686.5 -157.099609375 683 -161.5 681.049804688 -166.799804688 c 0
 680.200195312 -169.049804688 680 -170.700195312 680 -175.799804688 c 0
 680 -181.450195312 680.150390625 -182.549804688 681.5 -186.5 c 0
 683.849609375 -193.5 694.599609375 -214.150390625 695.75 -213.849609375 c 0
 696.049804688 -213.799804688 762.200195312 -147.700195312 842.75 -67 c 2
 989.25 79.75 l 1
 994.650390625 79.900390625 l 1
 1000 80.0498046875 l 1
 1000 75.150390625 l 1
 1000 70.25 l 1
 860.099609375 -69.75 l 2
 714.849609375 -215.150390625 702.75 -227.299804688 702.75 -227.900390625 c 0
 702.799804688 -228.099609375 703.450195312 -230.150390625 704.25 -232.5 c 0
 705.549804688 -236.299804688 705.700195312 -237.400390625 705.75 -243 c 0
 705.75 -248.25 705.549804688 -249.75 704.650390625 -252.200195312 c 0
 702.200195312 -258.650390625 695.900390625 -266.75 687.25 -274.549804688 c 0
 679.849609375 -281.25 670.450195312 -288.599609375 630.5 -318.900390625 c 0
 622.400390625 -325.049804688 615.700195312 -330.25 615.599609375 -330.450195312 c 0
 615.549804688 -330.650390625 620.25 -331.099609375 626.099609375 -331.400390625 c 0
 631.950195312 -331.75 654.099609375 -333 675.25 -334.200195312 c 2
 713.75 -336.400390625 l 1
 821.950195312 -227.849609375 l 2
 881.5 -168.099609375 943.450195312 -105.900390625 959.700195312 -89.650390625 c 2
 989.25 -60 l 1
 994.599609375 -60 l 1
 1000 -60 l 1
 1000 -64.650390625 l 1
 1000 -69.2998046875 l 1
 866.5 -203.25 l 2
 793.099609375 -276.900390625 733.099609375 -337.25 733.200195312 -337.349609375 c 0
 733.25 -337.450195312 740.049804688 -337.950195312 748.299804688 -338.5 c 0
 799 -341.849609375 822.5 -346.650390625 832.900390625 -355.799804688 c 2
 835.5 -358.099609375 l 1
 838.650390625 -355.150390625 l 2
 842.450195312 -351.650390625 985.700195312 -213.799804688 994.150390625 -205.549804688 c 2
 1000 -199.799804688 l 1
 1000 -208.799804688 l 1
 1000 -217.849609375 l 1
 921.25 -294.700195312 l 1
 842.5 -371.599609375 l 1
 842.849609375 -373.450195312 l 2
 843.400390625 -376.299804688 843.200195312 -395.450195312 842.549804688 -398.75 c 0
 842.25 -400.400390625 841.099609375 -403.650390625 840 -405.950195312 c 0
 834.400390625 -417.650390625 822.150390625 -423.349609375 793.549804688 -427.5 c 2
 783.849609375 -428.900390625 l 1
 779.299804688 -433.349609375 l 2
 776.799804688 -435.799804688 760.450195312 -451.799804688 742.900390625 -468.900390625 c 2
 711.099609375 -500 l 1
 705.549804688 -500 l 1
 700 -500 l 1
 700 -494.549804688 l 1
 700 -489.049804688 l 1
 728.400390625 -461.700195312 l 2
 744 -446.650390625 757.549804688 -433.549804688 758.5 -432.599609375 c 2
 760.25 -430.900390625 l 1
 757.25 -431.200195312 l 2
 745.700195312 -432.349609375 702.599609375 -434.400390625 680.5 -434.799804688 c 0
 665.400390625 -435.099609375 640.400390625 -434.450195312 637.900390625 -433.700195312 c 0
 637.299804688 -433.549804688 627.650390625 -442.900390625 603.950195312 -466.75 c 2
 570.849609375 -500 l 1
 560.849609375 -500 l 1
 550.849609375 -500 l 1
 584.700195312 -466 l 2
 603.299804688 -447.299804688 618.5 -431.75 618.5 -431.5 c 0
 618.5 -431.200195312 618.099609375 -431 617.599609375 -431 c 0
 616.099609375 -431 605.049804688 -428.150390625 600 -426.5 c 0
 593.5 -424.349609375 580.299804688 -417.799804688 574.25 -413.75 c 0
 571.5 -411.900390625 567.200195312 -408.75 564.700195312 -406.75 c 0
 560.700195312 -403.549804688 557.950195312 -401.099609375 545.799804688 -390 c 2
 542.900390625 -387.299804688 l 1
 486.650390625 -443.650390625 l 1
 430.400390625 -500 l 1
 420.549804688 -499.900390625 l 1
 410.75 -499.75 l 1
 471.700195312 -438.650390625 l 2
 505.25 -405 532.599609375 -377.450195312 532.450195312 -377.349609375 c 0
 531.950195312 -377 513.950195312 -360 510.700195312 -356.900390625 c 2
 507.150390625 -353.450195312 l 1
 490.450195312 -371.849609375 l 2
 470 -394.400390625 462.650390625 -401.849609375 456.950195312 -405.599609375 c 0
 436.950195312 -418.799804688 403.700195312 -429.25 362.25 -435.299804688 c 2
 353.75 -436.5 l 1
 322 -468.25 l 1
 290.25 -500 l 1
 280.25 -500 l 1
 270.25 -500 l 1
 300.75 -469.450195312 l 1
 331.25 -438.900390625 l 1
 326.75 -439.150390625 l 2
 324.299804688 -439.349609375 315.200195312 -439.75 306.650390625 -440.049804688 c 0
 277.700195312 -441.200195312 248.400390625 -439.200195312 224.75 -434.450195312 c 2
 217.299804688 -432.950195312 l 1
 183.75 -466.5 l 1
 150.25 -500 l 1
 140.25 -500 l 1
 130.25 -500 l 1
 166.099609375 -464.099609375 l 1
 202 -428.25 l 1
 198.349609375 -426.799804688 l 2
 190.700195312 -423.799804688 182.150390625 -418.049804688 178.25 -413.299804688 c 0
 174.450195312 -408.650390625 170.349609375 -396.150390625 169.450195312 -386.450195312 c 0
 168.799804688 -379.299804688 169.450195312 -372.299804688 171.200195312 -368 c 0
 174.900390625 -358.950195312 184 -350.799804688 196 -345.849609375 c 0
 214.849609375 -338.049804688 241.450195312 -334.200195312 283.049804688 -333.200195312 c 2
 297.400390625 -332.849609375 l 1
 321.299804688 -308.950195312 l 2
 336.099609375 -294.150390625 345.049804688 -284.849609375 344.75 -284.599609375 c 0
 344.450195312 -284.349609375 342.700195312 -282.799804688 340.75 -281.200195312 c 0
 326.650390625 -269.5 318.900390625 -260.150390625 316 -251.5 c 0
 315.049804688 -248.650390625 314.950195312 -247.450195312 315.099609375 -242 c 0
 315.299804688 -237.25 315.599609375 -234.950195312 316.450195312 -232.549804688 c 0
 318.099609375 -227.799804688 321.849609375 -220.25 326.799804688 -211.75 c 0
 332.049804688 -202.700195312 337.849609375 -190.950195312 339.450195312 -186.200195312 c 0
 340.400390625 -183.549804688 340.700195312 -181.299804688 340.900390625 -176.349609375 c 0
 341 -172.849609375 340.900390625 -170 340.700195312 -170 c 0
 340.450195312 -170 266 -244.25 175.25 -335 c 2
 10.25 -500 l 1
 5.150390625 -500 l 1
 0 -500 l 1
 0 -495.150390625 l 1
 0 -490.25 l 1
 166.849609375 -323.400390625 l 1
 333.700195312 -156.5 l 1
 322.950195312 -145.650390625 l 2
 311.25 -133.799804688 309.700195312 -131.799804688 304.799804688 -121.5 c 0
 300 -111.400390625 296.049804688 -97.599609375 294.200195312 -84.2001953125 c 0
 293.700195312 -80.650390625 293.25 -77.650390625 293.150390625 -77.5 c 0
 293.049804688 -77.400390625 229.349609375 -140.900390625 151.599609375 -218.650390625 c 2
 10.25 -360 l 1
 5.099609375 -360 l 1
 0 -360 l 1
 0 -355.150390625 l 1
 0 -350.25 l 1
 145.849609375 -204.400390625 l 1
 291.700195312 -58.5498046875 l 1
 291.599609375 -51.150390625 l 2
 291.150390625 -27.099609375 294.950195312 7.5498046875 301.5 39.75 c 0
 304.25 53.25 307.150390625 65.099609375 311.299804688 80.25 c 0
 311.450195312 80.7998046875 243.799804688 13.4501953125 160.900390625 -69.400390625 c 2
 10.25 -220 l 1
 5.099609375 -220 l 1
 0 -220 l 1
 0 -215.150390625 l 1
 0 -210.25 l 1
 160.25 -50 l 1
 320.5 110.25 l 1
 323.5 118.75 l 2
 341.849609375 170.450195312 364.349609375 214.049804688 390.900390625 249.25 c 0
 403.450195312 265.950195312 410.799804688 273.900390625 430.5 292 c 0
 469.549804688 327.900390625 483.650390625 348.599609375 479.049804688 363.299804688 c 0
 478.450195312 365.200195312 477.349609375 367.549804688 476.599609375 368.549804688 c 0
 474.049804688 371.950195312 468.849609375 378.25 468.549804688 378.400390625 c 0
 468.400390625 378.450195312 430.099609375 340.299804688 383.5 293.650390625 c 0
 336.900390625 246.950195312 233.849609375 143.799804688 154.549804688 64.400390625 c 2
 10.2998046875 -80 l 1
 5.150390625 -80 l 1
 0 -80 l 1
 0 -75.2001953125 l 1
 0 -70.400390625 l 1
 231.099609375 161.049804688 l 1
 462.25 392.549804688 l 1
 462.549804688 403.900390625 l 2
 462.799804688 413.5 463 415.75 463.849609375 418.5 c 0
 467.049804688 428.400390625 470.799804688 435.349609375 476.650390625 442.150390625 c 0
 482.400390625 448.849609375 492.049804688 454.900390625 500.25 457 c 0
 506.75 458.700195312 518.5 458.200195312 524.25 456 c 0
 525.349609375 455.599609375 527.25 457.349609375 547.349609375 477.75 c 2
517.049804688 427.75 m 0
 515.799804688 427.799804688 513.299804688 428 511.5 428.150390625 c 0
 509.700195312 428.299804688 507.25 428.25 506 428 c 0
 499.799804688 426.700195312 493.349609375 421.599609375 490.5 415.849609375 c 0
 489.099609375 412.849609375 489 412.5 488.950195312 405.200195312 c 0
 488.849609375 397.799804688 488.900390625 397.599609375 490.25 395.049804688 c 0
 494.5 387.25 504.799804688 382.049804688 513.299804688 383.450195312 c 0
 527.200195312 385.700195312 535.799804688 398.099609375 532.799804688 411.599609375 c 0
 531.849609375 415.849609375 530.049804688 419 526.599609375 422.400390625 c 0
 523.349609375 425.650390625 519.900390625 427.599609375 517.049804688 427.75 c 0
517.849609375 311.400390625 m 0
 508.5 313.400390625 501.799804688 312.200195312 491 306.700195312 c 0
 478.299804688 300.25 465.349609375 290 450.5 274.700195312 c 0
 425.049804688 248.5 398.650390625 212.049804688 377.650390625 174 c 0
 372.5 164.650390625 370.799804688 161.299804688 371.450195312 161.75 c 0
 372.299804688 162.25 372.150390625 161.900390625 369.799804688 157.450195312 c 0
 367.049804688 152.299804688 360.5 138.349609375 357.049804688 130.299804688 c 0
 355.650390625 127 354.150390625 123.950195312 353.75 123.5 c 0
 352.200195312 121.75 345.599609375 103.099609375 339.799804688 83.9501953125 c 0
 327.349609375 42.7001953125 317.650390625 -0.400390625 315.549804688 -24 c 0
 314.75 -32.650390625 314.700195312 -35.0498046875 315.25 -34.7998046875 c 0
 315.599609375 -34.7001953125 315.700195312 -38.099609375 315.549804688 -44.7001953125 c 0
 315.450195312 -50.2001953125 315.400390625 -56.900390625 315.400390625 -59.5 c 0
 315.5 -65.7001953125 317.450195312 -76.2998046875 320 -84.099609375 c 0
 324 -96.25 332.549804688 -111.400390625 341.400390625 -122 c 0
 346.299804688 -127.849609375 353.75 -135 354.950195312 -135 c 0
 355.450195312 -135 357.349609375 -136 359.150390625 -137.200195312 c 0
 360.950195312 -138.400390625 363.549804688 -140 364.950195312 -140.799804688 c 0
 366.349609375 -141.549804688 367.5 -142.450195312 367.5 -142.75 c 0
 367.5 -143.950195312 382.549804688 -150.299804688 392.75 -153.400390625 c 0
 413.049804688 -159.599609375 447.650390625 -165.799804688 464.5 -166.25 c 0
 473.650390625 -166.450195312 482.25 -167.150390625 482.549804688 -167.599609375 c 0
 483 -168.299804688 535.599609375 -168.200195312 546.450195312 -167.5 c 0
 569.950195312 -166 606.450195312 -160.400390625 612.75 -157.299804688 c 0
 614.150390625 -156.599609375 618.650390625 -155.099609375 622.75 -154 c 0
 628.950195312 -152.25 636.950195312 -149.599609375 641.75 -147.700195312 c 0
 642.650390625 -147.349609375 642.650390625 -147.400390625 642.049804688 -148.150390625 c 0
 641.400390625 -148.950195312 641.5 -148.950195312 643.299804688 -148.200195312 c 0
 647.200195312 -146.599609375 655.349609375 -142.549804688 658.75 -140.450195312 c 0
 669.25 -134.099609375 681.75 -121.700195312 689.650390625 -109.75 c 0
 693.349609375 -104.200195312 699.099609375 -92.5498046875 698.799804688 -91.349609375 c 0
 698.700195312 -90.849609375 699 -89.150390625 699.549804688 -87.599609375 c 0
 701.049804688 -83.25 702.900390625 -75.75 703.75 -70.25 c 0
 704.200195312 -67.5 704.799804688 -65 705.049804688 -64.7001953125 c 0
 705.950195312 -63.599609375 706.599609375 -51.5 706.299804688 -42.25 c 0
 705.849609375 -28.099609375 704.299804688 -14.5 701.200195312 2.75 c 0
 698.450195312 17.849609375 692.700195312 42.7001953125 692 42.25 c 0
 691.5 41.9501953125 687.700195312 56.849609375 687.900390625 58.2998046875 c 0
 688.200195312 60.599609375 677.099609375 97.75 671.900390625 112 c 0
 666.799804688 125.849609375 657.349609375 147.5 656.650390625 146.799804688 c 0
 656.299804688 146.450195312 650 159.25 650 160.400390625 c 0
 650 162.150390625 637.400390625 184.75 628.799804688 198.5 c 0
 619.700195312 213 604.700195312 234.650390625 604 234.25 c 0
 603.450195312 233.900390625 594.900390625 244.950195312 595.25 245.549804688 c 0
 596.150390625 246.950195312 571.950195312 273.900390625 560.5 284.299804688 c 0
 549.549804688 294.25 534.950195312 305.150390625 533.900390625 304.099609375 c 0
 533.650390625 303.849609375 531.349609375 304.75 528.75 306.099609375 c 0
 526.150390625 307.400390625 523.099609375 308.75 521.950195312 309.049804688 c 0
 520.799804688 309.400390625 520.049804688 309.900390625 520.200195312 310.25 c 0
 520.349609375 310.650390625 519.450195312 311.049804688 517.849609375 311.400390625 c 0
554.25 -187.950195312 m 0
 547.700195312 -187.450195312 486.400390625 -186.900390625 479.75 -187.299804688 c 0
 466.700195312 -188.099609375 461.950195312 -188.5 461.150390625 -188.950195312 c 0
 460.650390625 -189.25 456.200195312 -189.799804688 451.25 -190.25 c 0
 446.299804688 -190.700195312 441.5 -191.150390625 440.549804688 -191.349609375 c 0
 439.299804688 -191.549804688 438.950195312 -191.5 439.25 -191.049804688 c 0
 439.5 -190.599609375 439.150390625 -190.5 437.900390625 -190.700195312 c 0
 437 -190.849609375 433.549804688 -191.349609375 430.25 -191.75 c 0
 395.650390625 -196.25 369.25 -204.5 358.75 -214.099609375 c 0
 350.700195312 -221.450195312 342.5 -235.150390625 342.5 -241.200195312 c 0
 342.5 -248.75 350.799804688 -254.900390625 366.400390625 -259 c 0
 368.5 -259.549804688 370.400390625 -259.799804688 370.599609375 -259.599609375 c 0
 370.849609375 -259.349609375 373.799804688 -259.650390625 377.150390625 -260.299804688 c 0
 380.5 -260.900390625 384.299804688 -261.549804688 385.650390625 -261.700195312 c 0
 386.950195312 -261.900390625 387.900390625 -262.25 387.75 -262.450195312 c 0
 387.150390625 -263.450195312 421.349609375 -266.299804688 448.25 -267.5 c 0
 467.450195312 -268.349609375 501.200195312 -268.950195312 501.75 -268.450195312 c 0
 502.400390625 -267.799804688 522.150390625 -267.849609375 521.75 -268.5 c 0
 521.450195312 -269 533.900390625 -268.849609375 562.5 -267.950195312 c 0
 606.049804688 -266.650390625 645.650390625 -262.450195312 651.5 -258.599609375 c 0
 652.200195312 -258.150390625 654.799804688 -256.950195312 657.299804688 -256 c 0
 663.5 -253.5 667.049804688 -251.400390625 670.75 -247.950195312 c 0
 675 -243.950195312 676.200195312 -241.150390625 675.75 -236.299804688 c 0
 675.299804688 -232.200195312 673.5 -228.099609375 669.700195312 -223 c 0
 666.799804688 -219 661 -212.950195312 658 -210.75 c 0
 652.150390625 -206.450195312 639.049804688 -201.299804688 625 -197.849609375 c 0
 615.5 -195.450195312 598.75 -192.400390625 597.25 -192.799804688 c 0
 595.849609375 -193.150390625 579.849609375 -191.099609375 579.5 -190.5 c 0
 579.25 -190.150390625 569.599609375 -189.150390625 554.25 -187.950195312 c 0
527.25 -292.5 m 0
 516.900390625 -291.75 498.5 -291.849609375 497.400390625 -292.700195312 c 0
 496.849609375 -293.099609375 494.299804688 -293.5 491.150390625 -293.700195312 c 0
 488.150390625 -293.900390625 483.450195312 -294.349609375 480.650390625 -294.75 c 0
 477.799804688 -295.150390625 475.200195312 -295.349609375 474.799804688 -295.200195312 c 0
 473 -294.5 457.950195312 -298.549804688 449.5 -302 c 0
 439.950195312 -305.849609375 433 -310.5 428.799804688 -315.799804688 c 0
 427.599609375 -317.349609375 425.299804688 -321 423.700195312 -323.950195312 c 0
 418.049804688 -334.400390625 410.299804688 -340.25 396.049804688 -345 c 0
 385.650390625 -348.450195312 373.349609375 -350.75 357.5 -352.200195312 c 0
 346.5 -353.200195312 340.5 -353.450195312 316.299804688 -354 c 0
 303 -354.299804688 295.650390625 -354.650390625 295.25 -355 c 0
 294.849609375 -355.299804688 290.700195312 -355.75 285.900390625 -356 c 0
 274.400390625 -356.650390625 273.849609375 -356.599609375 274.299804688 -355.950195312 c 0
 274.950195312 -354.849609375 257.150390625 -356.549804688 242.25 -359 c 0
 206.299804688 -364.950195312 189.349609375 -376.099609375 193.75 -390.900390625 c 0
 195.299804688 -396.150390625 201.049804688 -403.200195312 205.650390625 -405.549804688 c 0
 208.5 -407.049804688 218.900390625 -409.650390625 220.599609375 -409.299804688 c 0
 221.400390625 -409.150390625 223.549804688 -409.349609375 225.400390625 -409.700195312 c 0
 227.25 -410.099609375 230.799804688 -410.700195312 233.25 -411.049804688 c 0
 235.75 -411.400390625 237.849609375 -411.849609375 238 -412.049804688 c 0
 238.349609375 -412.549804688 249.25 -413.75 262 -414.700195312 c 0
 281.299804688 -416.200195312 297.25 -416.650390625 319.25 -416.299804688 c 0
 343 -415.950195312 354.5 -415.349609375 356.150390625 -414.299804688 c 0
 356.75 -413.900390625 359.349609375 -413.450195312 361.900390625 -413.299804688 c 0
 365.849609375 -413 374.5 -411.650390625 378.400390625 -410.75 c 0
 379.200195312 -410.549804688 379.450195312 -410.650390625 379.25 -411 c 0
 378.849609375 -411.599609375 378.650390625 -411.650390625 387.5 -409.549804688 c 0
 399.599609375 -406.700195312 410.549804688 -402.549804688 419.650390625 -397.450195312 c 0
 430.75 -391.200195312 436.099609375 -386.799804688 452 -370.650390625 c 0
 459 -363.549804688 467.099609375 -355.849609375 470 -353.549804688 c 0
 480.799804688 -344.849609375 490.5 -339.450195312 499.5 -337.150390625 c 0
 503.799804688 -336.049804688 505 -335.950195312 511.75 -336.150390625 c 0
 519.599609375 -336.400390625 522.25 -336.950195312 529.25 -339.849609375 c 0
 535.549804688 -342.450195312 545.049804688 -348.700195312 553 -355.400390625 c 0
 559.25 -360.700195312 564.099609375 -365.25 564.450195312 -366.099609375 c 0
 564.599609375 -366.599609375 570.599609375 -372.599609375 577.700195312 -379.5 c 0
 593.75 -395.049804688 599.650390625 -399.25 613.349609375 -404.75 c 0
 621.400390625 -408 637.950195312 -412.049804688 639.200195312 -411.049804688 c 0
 639.5 -410.799804688 642.400390625 -410.900390625 646 -411.299804688 c 0
 649.450195312 -411.650390625 653.549804688 -411.950195312 655.150390625 -412 c 0
 656.75 -412 657.950195312 -412.200195312 657.799804688 -412.450195312 c 0
 657.25 -413.349609375 674.450195312 -413.650390625 693.25 -413.099609375 c 0
 713.5 -412.450195312 719.799804688 -412.049804688 736 -410.450195312 c 0
 760.099609375 -408.049804688 788.099609375 -402.849609375 792.049804688 -400 c 0
 792.75 -399.5 795.650390625 -398.150390625 798.5 -397 c 0
 811.049804688 -391.799804688 815.349609375 -387.700195312 813.299804688 -382.75 c 0
 812.900390625 -381.799804688 812.650390625 -380.650390625 812.799804688 -380.299804688 c 0
 812.950195312 -379.849609375 812.049804688 -378.799804688 810.450195312 -377.5 c 0
 800.700195312 -369.799804688 778.349609375 -364 744.25 -360.299804688 c 0
 732.900390625 -359.049804688 713.099609375 -357.5 712.400390625 -357.75 c 0
 711.75 -358 698.349609375 -356.549804688 691.75 -355.5 c 0
 690.099609375 -355.25 685.400390625 -354.599609375 681.25 -354 c 0
 646.650390625 -349.200195312 619.900390625 -340.549804688 605 -329.400390625 c 0
 600.75 -326.200195312 592.900390625 -317.5 593.549804688 -316.700195312 c 0
 594.099609375 -316 590.099609375 -312.099609375 585.75 -309.150390625 c 0
 573.150390625 -300.650390625 550.75 -294.25 527.25 -292.5 c 0
360.75 -297.150390625 m 0
 358.549804688 -295.450195312 356.650390625 -294 356.5 -294 c 0
 356.349609375 -294 347.450195312 -302.799804688 336.75 -313.549804688 c 2
 317.25 -333.099609375 l 1
 322.25 -332.799804688 l 2
 325 -332.650390625 344.900390625 -332.5 366.400390625 -332.5 c 0
 389.450195312 -332.5 405.5 -332.299804688 405.400390625 -332.049804688 c 0
 405.349609375 -331.799804688 396.150390625 -324.549804688 385 -315.950195312 c 0
 373.849609375 -307.349609375 362.950195312 -298.900390625 360.75 -297.150390625 c 0
504.900390625 166 m 0
 508.799804688 166.75 517.5 166.150390625 520.549804688 165 c 0
 523.650390625 163.849609375 527.799804688 160.849609375 528.950195312 158.950195312 c 0
 529.400390625 158.25 530.799804688 156.099609375 532.099609375 154.200195312 c 0
 538.5 144.599609375 540.5 135.900390625 541.75 112.150390625 c 0
 542.650390625 94.349609375 543.799804688 88.0498046875 547.599609375 80.2001953125 c 0
 550.299804688 74.650390625 555.599609375 68.900390625 558.200195312 68.75 c 0
 558.75 68.7001953125 560.400390625 68.150390625 561.75 67.5498046875 c 0
 564.349609375 66.349609375 571 64.5 572.599609375 64.5 c 0
 573.099609375 64.5 573.5 64.150390625 573.5 63.75 c 0
 573.5 63.2998046875 573.950195312 63 574.650390625 63 c 0
 579.099609375 63 591.099609375 61.7998046875 595.200195312 60.9501953125 c 0
 604.099609375 59.150390625 611 55.5498046875 616.75 49.7998046875 c 0
 626.200195312 40.25 627.450195312 27 619.849609375 16.349609375 c 0
 618.599609375 14.599609375 616.700195312 12.400390625 615.650390625 11.5 c 0
 612.650390625 8.849609375 606.700195312 5.150390625 603.599609375 4 c 0
 596.950195312 1.5 594.150390625 1 576.549804688 -0.5498046875 c 0
 565.049804688 -1.5498046875 559.400390625 -3.75 553.599609375 -9.5 c 0
 545.450195312 -17.5 542.950195312 -26 541.75 -49.5498046875 c 0
 541.349609375 -57.150390625 540.650390625 -65.7998046875 540.200195312 -68.7998046875 c 0
 537.200195312 -88.900390625 527.799804688 -101.700195312 514.5 -103.599609375 c 0
 497.549804688 -106.099609375 484.950195312 -93.9501953125 481.049804688 -71.349609375 c 0
 479.799804688 -64.349609375 479.599609375 -62.2001953125 479 -49.5 c 0
 478.299804688 -35.400390625 478 -32.5498046875 477.25 -32.7998046875 c 0
 476.849609375 -32.9501953125 476.400390625 -31.650390625 475.799804688 -28.7001953125 c 0
 475.349609375 -26.2998046875 474.5 -23.099609375 473.950195312 -21.5498046875 c 0
 473.349609375 -20 472.849609375 -18.150390625 472.799804688 -17.400390625 c 0
 472.650390625 -15.849609375 470.799804688 -12.900390625 468.200195312 -10 c 0
 464.349609375 -5.75 456.950195312 -2.150390625 449.75 -1.0498046875 c 0
 447.849609375 -0.7998046875 442.75 -0.2998046875 438.5 0 c 0
 421.650390625 1.150390625 413.75 3.9501953125 405.549804688 11.75 c 0
 400.900390625 16.2001953125 398.5 19.5498046875 397.25 23.400390625 c 0
 396.75 24.849609375 396.200195312 26 396 26 c 0
 395.25 26 394.900390625 31.7998046875 395.450195312 34.7998046875 c 0
 395.75 36.400390625 396.900390625 39.650390625 398.049804688 41.9501953125 c 0
 399.700195312 45.2998046875 401 47 404.450195312 50.4501953125 c 0
 406.849609375 52.7998046875 410.25 55.599609375 412 56.650390625 c 0
 418.150390625 60.25 427.849609375 62.5 437 62.5 c 0
 451.299804688 62.5 460.950195312 65.5498046875 467.599609375 72.25 c 0
 474.049804688 78.7001953125 477.400390625 87.900390625 478.450195312 102.049804688 c 0
 478.75 106.200195312 478.75 108.349609375 478.400390625 108.549804688 c 0
 478.049804688 108.799804688 478.150390625 111.799804688 478.75 117.799804688 c 0
 480.799804688 139.400390625 484.849609375 151.450195312 492.75 159.25 c 0
 496.150390625 162.549804688 501.049804688 165.299804688 504.900390625 166 c 0
515.950195312 132.5 m 0
 515.599609375 138.700195312 515.099609375 144.349609375 514.75 145.099609375 c 2
 514.200195312 146.450195312 l 1
 513.349609375 144.099609375 l 2
 512.900390625 142.799804688 510.900390625 131.5 508.950195312 119 c 0
 504.650390625 91.2001953125 503.549804688 85.599609375 500.75 77.150390625 c 0
 497.049804688 66.0498046875 493.400390625 59.4501953125 487.549804688 53.2998046875 c 0
 480.349609375 45.7998046875 471.349609375 41.5 459.200195312 39.7998046875 c 0
 456.200195312 39.349609375 447.349609375 38.5498046875 439.5 38 c 0
 424.849609375 36.9501953125 419.200195312 36.25 418.700195312 35.4501953125 c 0
 418.049804688 34.349609375 422.150390625 33.2998046875 449.75 27.4501953125 c 0
 456.349609375 26.099609375 463.400390625 24.400390625 465.400390625 23.7001953125 c 0
 470.099609375 22.150390625 476.450195312 18.9501953125 480.25 16.25 c 0
 483.700195312 13.7998046875 489.200195312 8.25 491.25 5.150390625 c 0
 492 3.9501953125 492.799804688 3 493.049804688 3 c 0
 493.650390625 3 497.25 -4.7001953125 498.200195312 -8 c 0
 500.75 -16.900390625 502.150390625 -26.400390625 503.25 -42.5 c 0
 504.150390625 -56.0498046875 506 -88 506 -90.4501953125 c 0
 506 -91.400390625 506.099609375 -92.0498046875 506.200195312 -91.9501953125 c 0
 506.349609375 -91.849609375 508.5 -78.5498046875 510.950195312 -62.4501953125 c 0
 516.150390625 -28.7998046875 517.349609375 -22.5 520.049804688 -14.349609375 c 0
 526.950195312 6.7998046875 538.900390625 18.25 558 22.2001953125 c 0
 560.049804688 22.599609375 569.200195312 23.5498046875 578.25 24.25 c 0
 599.400390625 25.900390625 603.650390625 26.5 602.400390625 27.7998046875 c 0
 601.799804688 28.349609375 592.75 30.5 580.5 33.0498046875 c 0
 560.25 37.150390625 549.799804688 40.099609375 544.049804688 43.349609375 c 0
 540.200195312 45.5 533.150390625 52.2998046875 530.150390625 56.75 c 0
 524.049804688 65.849609375 520.25 76.7998046875 518.75 89.7998046875 c 0
 518.049804688 96.099609375 517.150390625 109.700195312 515.950195312 132.5 c 0
918.700195312 -411.099609375 m 2
 988.099609375 -340 l 1
 994.049804688 -340 l 1
 1000 -340 l 1
 1000 -344.150390625 l 1
 1000 -348.299804688 l 1
 925.950195312 -424.150390625 l 1
 851.900390625 -500 l 1
 841.849609375 -500 l 1
 831.849609375 -500 l 1
 840.549804688 -491.099609375 l 2
 845.349609375 -486.25 880.5 -450.25 918.700195312 -411.099609375 c 2
EndSplineSet
EndChar

StartChar: b
Encoding: 98 98 9
Width: 1000
Flags: H
LayerCount: 2
Fore
SplineSet
505.25 457.900390625 m 0
 509.799804688 458.349609375 517.400390625 457.799804688 521.5 456.799804688 c 0
 526.299804688 455.549804688 533.200195312 451.950195312 537.75 448.299804688 c 0
 555.150390625 434.400390625 563.200195312 408.549804688 556.5 388.349609375 c 0
 554.650390625 382.799804688 552.25 378.650390625 547.349609375 372.400390625 c 0
 542.5 366.299804688 541.400390625 364.099609375 541.099609375 359.799804688 c 0
 540.700195312 354.400390625 541.700195312 350.299804688 545 343.650390625 c 0
 551.700195312 330.099609375 563.450195312 316.799804688 591.5 290.900390625 c 0
 609.799804688 274.049804688 619.049804688 264 631.150390625 247.75 c 0
 658.700195312 210.75 682.599609375 162.900390625 700.75 108.25 c 0
 714 68.5 721.900390625 33.4501953125 726.799804688 -6.75 c 0
 729.200195312 -26.650390625 729.299804688 -66.5498046875 727 -81.75 c 0
 724.25 -99.849609375 720.400390625 -113.150390625 714.75 -124.150390625 c 0
 710.5 -132.400390625 707.849609375 -135.799804688 697.099609375 -146.5 c 0
 686.5 -157.099609375 683 -161.5 681.049804688 -166.799804688 c 0
 680.200195312 -169.049804688 680 -170.700195312 680 -175.799804688 c 0
 680 -181.450195312 680.150390625 -182.549804688 681.5 -186.5 c 0
 683.299804688 -191.950195312 687.650390625 -200.700195312 693.900390625 -211.450195312 c 0
 700 -222 703.099609375 -228.549804688 704.799804688 -234.400390625 c 0
 705.950195312 -238.450195312 706.099609375 -239.700195312 705.900390625 -244.150390625 c 0
 705.549804688 -252.25 702.849609375 -257.950195312 695.400390625 -266.400390625 c 0
 687.450195312 -275.349609375 680.950195312 -280.650390625 630.5 -318.900390625 c 0
 622.400390625 -325.049804688 615.700195312 -330.25 615.599609375 -330.450195312 c 0
 615.5 -330.799804688 621.200195312 -331.150390625 693.5 -335.25 c 0
 758.5 -338.950195312 771.950195312 -339.950195312 789.5 -342.299804688 c 0
 807 -344.650390625 817.75 -347.349609375 825.950195312 -351.349609375 c 0
 834.700195312 -355.650390625 840.900390625 -363.25 842.549804688 -371.75 c 0
 843.349609375 -375.650390625 843.349609375 -394.799804688 842.599609375 -398.75 c 0
 842.25 -400.400390625 841.099609375 -403.650390625 840 -405.950195312 c 0
 831.299804688 -424.099609375 805.950195312 -429.450195312 707.25 -434.099609375 c 0
 689.849609375 -434.900390625 651.400390625 -434.900390625 641.75 -434.099609375 c 0
 616.700195312 -432 603 -428.700195312 587.25 -421 c 0
 575.299804688 -415.150390625 566.849609375 -409.200195312 554.25 -397.700195312 c 0
 546.849609375 -391 515.549804688 -361.599609375 510.700195312 -356.900390625 c 2
 507.150390625 -353.450195312 l 1
 490.450195312 -371.849609375 l 2
 470 -394.400390625 462.650390625 -401.849609375 456.950195312 -405.599609375 c 0
 439.5 -417.150390625 412.349609375 -426.450195312 377.75 -432.700195312 c 0
 302.25 -446.450195312 217.849609375 -441.200195312 187 -420.900390625 c 0
 185.200195312 -419.75 182.150390625 -417.200195312 180.25 -415.25 c 0
 177.25 -412.299804688 176.400390625 -411.049804688 174.799804688 -407.25 c 0
 168.950195312 -393.299804688 167.5 -377.150390625 171.200195312 -368 c 0
 174.900390625 -358.950195312 184 -350.799804688 196 -345.849609375 c 0
 211.049804688 -339.650390625 231.450195312 -335.900390625 261 -334 c 0
 272 -333.299804688 327.400390625 -332.549804688 370.650390625 -332.5 c 0
 391.549804688 -332.5 405.5 -332.299804688 405.400390625 -332.049804688 c 0
 405.349609375 -331.799804688 402.099609375 -329.150390625 398.25 -326.200195312 c 0
 359.450195312 -296.299804688 341.5 -282.099609375 333.599609375 -275.049804688 c 0
 324.599609375 -266.900390625 318.299804688 -258.5 316 -251.5 c 0
 315.049804688 -248.650390625 314.950195312 -247.450195312 315.099609375 -242 c 0
 315.299804688 -237.25 315.599609375 -234.950195312 316.450195312 -232.549804688 c 0
 318.099609375 -227.799804688 321.849609375 -220.25 326.799804688 -211.75 c 0
 332.25 -202.349609375 337.950195312 -190.75 339.549804688 -185.900390625 c 0
 340.599609375 -182.799804688 340.75 -181.299804688 340.75 -175.5 c 0
 340.75 -168.950195312 340.700195312 -168.650390625 339.150390625 -165.400390625 c 0
 336.5 -159.799804688 334.799804688 -157.75 323.25 -146 c 0
 311.25 -133.799804688 309.700195312 -131.799804688 304.799804688 -121.5 c 0
 286.75 -83.7001953125 287.400390625 -15.7001953125 306.5 61.75 c 0
 324.299804688 133.75 354.5 200.900390625 390.900390625 249.25 c 0
 403.450195312 265.950195312 410.799804688 273.900390625 430.5 292 c 0
 469.549804688 327.900390625 483.650390625 348.599609375 479.049804688 363.299804688 c 0
 477.950195312 366.849609375 477.549804688 367.5 471.849609375 374.549804688 c 0
 468.049804688 379.299804688 465.049804688 385 463.549804688 390.5 c 0
 462.650390625 393.650390625 462.5 395.650390625 462.5 403.75 c 0
 462.5 411.799804688 462.650390625 413.849609375 463.5 417 c 0
 467.950195312 433.150390625 476.950195312 445.450195312 489.75 452.75 c 0
 494.400390625 455.400390625 500.599609375 457.450195312 505.25 457.900390625 c 0
514.599609375 428.950195312 m 0
 504.849609375 430.950195312 494.400390625 425.700195312 489.75 416.400390625 c 0
 488 412.900390625 488 412.799804688 488 406.25 c 0
 488 399.700195312 488 399.599609375 489.75 396.150390625 c 0
 494.099609375 387.450195312 504.25 381.950195312 513.299804688 383.450195312 c 0
 524.450195312 385.25 532.450195312 393.650390625 533.349609375 404.549804688 c 0
 533.700195312 408.849609375 532.450195312 414.599609375 530.450195312 417.75 c 0
 526.950195312 423.299804688 520.700195312 427.700195312 514.599609375 428.950195312 c 0
519.5 310.950195312 m 0
 509.549804688 313.599609375 502.349609375 312.5 491 306.700195312 c 0
 478.299804688 300.25 465.349609375 290 450.5 274.700195312 c 0
 408.849609375 231.799804688 367.650390625 165.099609375 347.549804688 108 c 0
 336.450195312 76.400390625 322.599609375 22.9501953125 317.799804688 -6.75 c 0
 312.849609375 -37.5498046875 313.599609375 -64.5498046875 320 -84.099609375 c 0
 326.849609375 -105.049804688 343.450195312 -128.099609375 359.099609375 -138.349609375 c 0
 381.5 -153.049804688 419.849609375 -162.799804688 472.75 -167.25 c 0
 484.200195312 -168.25 532.549804688 -168.400390625 546.450195312 -167.5 c 0
 576.799804688 -165.599609375 610.599609375 -159.549804688 632.349609375 -152.200195312 c 0
 651.950195312 -145.549804688 663.299804688 -139 674.849609375 -127.599609375 c 0
 692.75 -109.900390625 702.299804688 -90.25 705.549804688 -64.25 c 0
 706.400390625 -57.75 706.400390625 -36.599609375 705.599609375 -28.25 c 0
 703 -1.900390625 696.5 29.150390625 685.25 69.099609375 c 0
 674.599609375 107 667.950195312 124.75 653.75 153.400390625 c 0
 643.799804688 173.5 637.049804688 185.549804688 626.200195312 202.549804688 c 0
 597.549804688 247.650390625 565.099609375 284.349609375 538.75 301.599609375 c 0
 532.75 305.549804688 524.099609375 309.75 519.5 310.950195312 c 0
557.5 -188.200195312 m 0
 545.549804688 -187.25 487.75 -186.799804688 475.25 -187.549804688 c 0
 415.950195312 -191 373.400390625 -200.700195312 358.75 -214.099609375 c 0
 350.700195312 -221.450195312 342.5 -235.150390625 342.5 -241.200195312 c 0
 342.5 -247.799804688 348.700195312 -253.25 360.650390625 -257.25 c 0
 382.549804688 -264.599609375 436.849609375 -268.650390625 512.75 -268.650390625 c 0
 571.450195312 -268.650390625 614.450195312 -266.25 640.849609375 -261.5 c 0
 658.25 -258.349609375 672.900390625 -250.700195312 675.75 -243.299804688 c 0
 678.299804688 -236.650390625 674 -226.75 664.049804688 -216.349609375 c 0
 659.450195312 -211.549804688 657 -209.75 651.200195312 -206.849609375 c 0
 633.450195312 -197.950195312 601.700195312 -191.599609375 557.5 -188.200195312 c 0
527.25 -292.5 m 0
 517.900390625 -291.849609375 497.849609375 -291.950195312 489.75 -292.75 c 0
 460.700195312 -295.650390625 437.849609375 -304.299804688 428.799804688 -315.799804688 c 0
 427.599609375 -317.349609375 425.299804688 -321 423.700195312 -323.950195312 c 0
 418.049804688 -334.400390625 410.299804688 -340.25 396.049804688 -345 c 0
 385.75 -348.450195312 373.700195312 -350.700195312 357.5 -352.25 c 0
 349.599609375 -353 339.450195312 -353.349609375 297.25 -354.5 c 0
 278.150390625 -355 264.849609375 -355.849609375 253.75 -357.25 c 0
 209.950195312 -362.849609375 188.900390625 -374.599609375 193.75 -390.900390625 c 0
 195.299804688 -396.150390625 201.049804688 -403.200195312 205.650390625 -405.549804688 c 0
 210.700195312 -408.150390625 226.650390625 -411.200195312 245.75 -413.200195312 c 0
 275 -416.299804688 302.150390625 -417.150390625 335.349609375 -416 c 0
 381.75 -414.400390625 412.099609375 -405.599609375 434.75 -387.25 c 0
 437.25 -385.200195312 445 -377.75 452 -370.650390625 c 0
 459 -363.549804688 467.099609375 -355.849609375 470 -353.549804688 c 0
 480.799804688 -344.849609375 490.5 -339.450195312 499.5 -337.150390625 c 0
 503.799804688 -336.049804688 505 -335.950195312 511.75 -336.150390625 c 0
 517.700195312 -336.299804688 519.950195312 -336.599609375 522.75 -337.5 c 0
 528.150390625 -339.200195312 531.849609375 -340.849609375 536.799804688 -343.799804688 c 0
 545.700195312 -349 550.950195312 -353.5 570.950195312 -372.950195312 c 0
 587.799804688 -389.299804688 591.25 -392.450195312 596.099609375 -395.700195312 c 0
 608.150390625 -403.700195312 620.200195312 -408.200195312 637.75 -411.25 c 0
 655.950195312 -414.400390625 699.849609375 -414.049804688 736 -410.450195312 c 0
 776.400390625 -406.450195312 804 -399 812.25 -389.849609375 c 0
 816 -385.75 815.849609375 -382.75 811.75 -378.75 c 0
 804.549804688 -371.700195312 785.950195312 -365.849609375 758.5 -362.049804688 c 0
 747.799804688 -360.549804688 739.299804688 -359.700195312 718.75 -358 c 0
 671.950195312 -354.099609375 643.25 -348.400390625 621.450195312 -338.75 c 0
 609.349609375 -333.400390625 603.799804688 -329.299804688 597.849609375 -321.349609375 c 0
 593.25 -315.200195312 590.299804688 -312.25 585.75 -309.150390625 c 0
 573.200195312 -300.650390625 550.75 -294.25 527.25 -292.5 c 0
504.900390625 166 m 0
 508.299804688 166.549804688 513 166.549804688 515.950195312 166 c 0
 525.950195312 164.099609375 534.549804688 154.200195312 538.5 139.950195312 c 0
 540.150390625 134 540.950195312 126.849609375 541.75 112.150390625 c 0
 542.650390625 94.2998046875 543.799804688 88.0498046875 547.650390625 80.150390625 c 0
 552.049804688 71 560.299804688 65.25 571.5 63.5498046875 c 0
 573.299804688 63.25 578.25 62.7998046875 582.5 62.5 c 0
 599.450195312 61.2998046875 608.700195312 57.900390625 616.75 49.7998046875 c 0
 626.200195312 40.25 627.450195312 27 619.849609375 16.349609375 c 0
 618.599609375 14.599609375 616.700195312 12.400390625 615.650390625 11.5 c 0
 612.650390625 8.849609375 606.700195312 5.150390625 603.599609375 4 c 0
 596.950195312 1.5 594.150390625 1 576.549804688 -0.5498046875 c 0
 565.049804688 -1.5498046875 559.400390625 -3.75 553.599609375 -9.5 c 0
 545.450195312 -17.5 542.950195312 -26 541.75 -49.5498046875 c 0
 541.349609375 -57.150390625 540.650390625 -65.7998046875 540.200195312 -68.7998046875 c 0
 537.200195312 -88.900390625 527.799804688 -101.700195312 514.5 -103.599609375 c 0
 497.549804688 -106.099609375 484.950195312 -93.9501953125 481.049804688 -71.349609375 c 0
 479.799804688 -64.25 479.599609375 -62.150390625 479 -49 c 0
 478.150390625 -31.650390625 477.049804688 -25.5 473.25 -17.75 c 0
 469.549804688 -10.150390625 464.799804688 -5.7998046875 457.099609375 -3 c 0
 452.400390625 -1.2998046875 448.650390625 -0.7001953125 438.25 0 c 0
 420.700195312 1.2001953125 412.400390625 4.4501953125 403.75 13.5498046875 c 0
 398.150390625 19.400390625 396 24.349609375 396 31.25 c 0
 396 38.650390625 398.099609375 43.150390625 404.75 49.7998046875 c 0
 409 54.099609375 410.400390625 55.150390625 414 56.900390625 c 0
 421.900390625 60.650390625 429.700195312 62.5 438 62.5 c 0
 455.900390625 62.5 467.599609375 68.400390625 473.25 80.25 c 0
 477.099609375 88.2998046875 478.150390625 94.099609375 479 111.75 c 0
 479.849609375 129.849609375 480.849609375 136.549804688 483.950195312 144.950195312 c 0
 488.099609375 156.299804688 496.299804688 164.549804688 504.900390625 166 c 0
515.75 136 m 0
 515.299804688 144.099609375 514.75 151.150390625 514.549804688 151.700195312 c 0
 514.299804688 152.349609375 514 151.400390625 513.599609375 148.700195312 c 0
 513.25 146.5 511.299804688 133.950195312 509.25 120.75 c 0
 504.700195312 91.4501953125 503.549804688 85.599609375 500.75 77.150390625 c 0
 497.049804688 66.0498046875 493.400390625 59.4501953125 487.549804688 53.2998046875 c 0
 480.349609375 45.7998046875 471.349609375 41.5 459.200195312 39.7998046875 c 0
 456.200195312 39.349609375 447.349609375 38.5498046875 439.5 38 c 0
 424.849609375 36.9501953125 419.200195312 36.25 418.700195312 35.4501953125 c 0
 418.049804688 34.349609375 422.150390625 33.2998046875 449.75 27.4501953125 c 0
 463.200195312 24.650390625 467.200195312 23.4501953125 473.150390625 20.4501953125 c 0
 478.599609375 17.7001953125 481.049804688 15.9501953125 485.200195312 12.0498046875 c 0
 494.299804688 3.2998046875 499.400390625 -8.349609375 501.700195312 -25.5 c 0
 502.700195312 -32.7998046875 506 -83 506 -90.4501953125 c 0
 506 -91.400390625 506.099609375 -92.0498046875 506.200195312 -91.9501953125 c 0
 506.349609375 -91.849609375 508.5 -78.5498046875 510.950195312 -62.4501953125 c 0
 516.150390625 -28.7998046875 517.349609375 -22.5 520.049804688 -14.349609375 c 0
 526.950195312 6.7998046875 538.900390625 18.25 558 22.2001953125 c 0
 560.049804688 22.599609375 569.200195312 23.5498046875 578.25 24.25 c 0
 599.400390625 25.900390625 603.650390625 26.5 602.400390625 27.7998046875 c 0
 601.799804688 28.349609375 592.75 30.5 580.5 33 c 0
 554.950195312 38.25 548.299804688 40.5 539.700195312 46.849609375 c 0
 530.75 53.5 524.349609375 64.150390625 520.75 78.5 c 0
 518.700195312 86.599609375 518 94.5498046875 515.75 136 c 0
EndSplineSet
EndChar

StartChar: f
Encoding: 102 102 10
Width: 1000
Flags: H
LayerCount: 2
Fore
SplineSet
252 416 m 0
 269.299804688 416.849609375 313.549804688 416.099609375 320.75 414.799804688 c 0
 339.200195312 411.450195312 346.650390625 406.450195312 350.799804688 394.549804688 c 0
 352.549804688 389.5 353.400390625 382.950195312 354 369 c 0
 354.900390625 349.099609375 356.049804688 341.25 359.450195312 332.799804688 c 0
 364.799804688 319.450195312 375.75 311.599609375 387.599609375 312.700195312 c 0
 400.25 313.849609375 409.349609375 323.450195312 413.75 340.400390625 c 0
 415.400390625 346.650390625 415.900390625 351.099609375 416.5 365.5 c 0
 417.349609375 385.700195312 418.200195312 391.25 421.299804688 397.799804688 c 0
 423.650390625 402.849609375 428.900390625 407.75 434.25 409.950195312 c 0
 445.650390625 414.700195312 464.849609375 416.5 503.75 416.450195312 c 0
 542.299804688 416.450195312 563.5 415.549804688 574 413.5 c 0
 587.799804688 410.849609375 595.549804688 406.099609375 599.450195312 397.799804688 c 0
 602.150390625 392.099609375 602.900390625 388.5 603.5 377.700195312 c 0
 603.799804688 372.5 604.25 364.25 604.549804688 359.349609375 c 0
 605.25 346.599609375 606.650390625 339.450195312 609.849609375 331.799804688 c 0
 615.099609375 319.25 626.150390625 311.650390625 637.599609375 312.700195312 c 0
 650.400390625 313.849609375 659.700195312 323.849609375 663.950195312 341 c 0
 665.5 347.400390625 665.900390625 351.099609375 666.5 365 c 0
 667.549804688 390.599609375 669.400390625 398.049804688 676.450195312 405 c 0
 685.549804688 413.950195312 699.799804688 416.5 740.75 416.5 c 0
 778.450195312 416.5 790.700195312 414.75 799.400390625 408.099609375 c 0
 805.75 403.299804688 809.400390625 395.650390625 810.950195312 383.75 c 0
 812.400390625 372.900390625 812.950195312 344.950195312 812 330.25 c 0
 809.599609375 293.25 800.700195312 264.700195312 789.900390625 259.599609375 c 0
 777 253.549804688 723.25 248.75 638.25 246 c 0
 582.150390625 244.200195312 502.849609375 243.599609375 431.25 244.450195312 c 0
 387.5 244.950195312 378.400390625 245.200195312 344.75 246.5 c 0
 281.299804688 249 240 253.150390625 230.400390625 258.049804688 c 0
 222.5 262.099609375 214.400390625 285.5 210.25 316.5 c 0
 208.150390625 332.099609375 208.299804688 376.549804688 210.5 387.700195312 c 0
 213.349609375 402.200195312 218.549804688 408.75 230.25 412.450195312 c 0
 236.349609375 414.400390625 243.349609375 415.549804688 252 416 c 0
274.299804688 227.650390625 m 2
 274.599609375 229 l 1
 512.200195312 229 l 1
 749.849609375 229 l 1
 750.150390625 150.150390625 l 2
 750.349609375 106.75 750.700195312 66.75 751 61.25 c 0
 753.5 11.75 762.700195312 -33.7998046875 780.150390625 -83.25 c 0
 792.150390625 -117.150390625 801.25 -139 831.25 -206 c 0
 861.799804688 -274.099609375 872.049804688 -298.150390625 880.75 -321.75 c 0
 891.25 -350.299804688 895.599609375 -368.450195312 895.599609375 -383.75 c 0
 895.599609375 -397.099609375 892.700195312 -405.599609375 885.400390625 -413.299804688 c 0
 871.400390625 -428.049804688 844 -434.299804688 783.5 -436.549804688 c 0
 764 -437.299804688 457 -437.799804688 457 -437.099609375 c 0
 457 -436.849609375 457.450195312 -430.599609375 458 -423.200195312 c 0
 459.5 -402.849609375 461.900390625 -363.349609375 462.549804688 -349 c 0
 463.849609375 -318.900390625 460.349609375 -286.799804688 455.25 -282 c 0
 454.200195312 -281 453.700195312 -280.900390625 451.650390625 -281.200195312 c 0
 445.450195312 -282.049804688 434.700195312 -288.849609375 416.349609375 -303.650390625 c 0
 402.349609375 -314.950195312 394.700195312 -322.049804688 364.5 -351.75 c 0
 346.099609375 -369.799804688 336.450195312 -378.849609375 326.75 -387 c 0
 295.799804688 -413.049804688 264.700195312 -430 238 -435.450195312 c 0
 229.450195312 -437.200195312 223.950195312 -437.650390625 214.150390625 -437.400390625 c 0
 203.400390625 -437.099609375 197.150390625 -436.049804688 188.849609375 -433.200195312 c 0
 182.200195312 -430.849609375 171.400390625 -425.299804688 165.799804688 -421.299804688 c 0
 148.950195312 -409.200195312 133.799804688 -390.25 121.700195312 -366.049804688 c 0
 102.75 -328.200195312 100.549804688 -291.299804688 115.200195312 -258.5 c 0
 118.950195312 -250.150390625 123.200195312 -243.25 130.599609375 -233.650390625 c 0
 140.700195312 -220.549804688 143.799804688 -215.700195312 151.299804688 -201.25 c 0
 185.049804688 -136 229.900390625 -3.650390625 251.75 95.25 c 0
 257.400390625 120.849609375 258.5 127.049804688 268.25 189.5 c 0
 271.450195312 209.700195312 274.150390625 226.849609375 274.299804688 227.650390625 c 2
417.349609375 178.25 m 0
 404.25 180.799804688 394.75 178 386.400390625 169.099609375 c 0
 379.049804688 161.25 376.200195312 152.650390625 375 134.25 c 0
 374.150390625 121.75 373 117 369.700195312 112.150390625 c 0
 365.099609375 105.400390625 357.099609375 103.799804688 346.799804688 107.549804688 c 0
 339.299804688 110.25 331.200195312 115.849609375 320.299804688 125.849609375 c 0
 310.75 134.599609375 305.599609375 138.75 302.299804688 140.5 c 0
 298.549804688 142.400390625 295.900390625 142.5 294.299804688 140.75 c 0
 291.799804688 138.049804688 291.150390625 131.650390625 292.75 125.5 c 0
 296.75 110.200195312 317.400390625 85.599609375 336.150390625 73.7998046875 c 0
 346.950195312 67.0498046875 353.25 67.2998046875 354.25 74.5498046875 c 0
 354.650390625 77.650390625 355.599609375 79.75 356.799804688 80.2001953125 c 0
 359.599609375 81.25 366 75.150390625 374.200195312 63.650390625 c 0
 379.900390625 55.599609375 384.400390625 50.650390625 386.349609375 50.2001953125 c 0
 387.950195312 49.7998046875 389.950195312 51.2001953125 391.099609375 53.5498046875 c 0
 393.400390625 58.150390625 394.299804688 64.849609375 395 82.7998046875 c 0
 396.549804688 123 396.950195312 128.450195312 399 138.450195312 c 0
 402.299804688 154.700195312 408.599609375 164.549804688 415.599609375 164.5 c 0
 420.700195312 164.450195312 427.25 158.349609375 432.599609375 148.5 c 0
 438.25 138.25 442.349609375 125.950195312 449 99.5498046875 c 0
 455.549804688 73.5 458.349609375 65.4501953125 462.950195312 59.099609375 c 0
 465.75 55.349609375 469.25 54.0498046875 472.400390625 55.7001953125 c 0
 474.200195312 56.650390625 477.25 59.9501953125 480.599609375 64.5 c 0
 487.400390625 73.849609375 494.799804688 77.650390625 506.25 77.650390625 c 0
 512.900390625 77.650390625 517.400390625 76.9501953125 525 74.650390625 c 0
 552.5 66.349609375 590.049804688 41.0498046875 631.25 3.099609375 c 0
 635.900390625 -1.25 650.200195312 -15.099609375 663 -27.75 c 0
 688.799804688 -53.25 697.200195312 -61.150390625 708.200195312 -70.400390625 c 0
 725.950195312 -85.25 739 -93.5 744.700195312 -93.5 c 0
 747.799804688 -93.5 748.349609375 -92.4501953125 747.25 -88.599609375 c 0
 744.049804688 -77.650390625 724.799804688 -51.849609375 696.599609375 -20.75 c 0
 686.75 -9.900390625 657.950195312 18.7998046875 648.75 27 c 0
 619.5 52.900390625 590.099609375 74.25 566 87.099609375 c 0
 557.200195312 91.7998046875 551.099609375 94.2998046875 539.900390625 97.75 c 0
 527.700195312 101.549804688 521.349609375 104.049804688 512 108.75 c 0
 489.700195312 119.950195312 472.299804688 133.25 455.400390625 152.099609375 c 0
 441.099609375 168.049804688 429.849609375 175.799804688 417.349609375 178.25 c 0
328.5 -54.849609375 m 0
 325.349609375 -54 320.349609375 -53.5 318.5 -53.7998046875 c 0
 311.400390625 -54.9501953125 307.200195312 -56.7998046875 303.200195312 -60.599609375 c 0
 300 -63.599609375 297.900390625 -66.7998046875 296.400390625 -70.7998046875 c 0
 294.799804688 -75.150390625 294.799804688 -85.599609375 296.400390625 -91.25 c 0
 300.049804688 -103.950195312 309.299804688 -115.349609375 320.450195312 -120.900390625 c 2
 325.150390625 -123.25 l 1
 333.25 -123.400390625 l 2
 340.950195312 -123.599609375 341.549804688 -123.5 344.450195312 -122.349609375 c 0
 349.5 -120.299804688 352.950195312 -117.950195312 357.200195312 -113.75 c 0
 362.599609375 -108.400390625 364.599609375 -104.700195312 364.900390625 -99.4501953125 c 0
 365.450195312 -89.650390625 360.099609375 -78.5498046875 349.799804688 -68.25 c 0
 343.099609375 -61.5498046875 335.150390625 -56.5498046875 328.5 -54.849609375 c 0
734.900390625 -142.700195312 m 0
 733.5 -141.200195312 732.049804688 -140 731.650390625 -140 c 0
 727.700195312 -140 731.599609375 -163.650390625 740.5 -193.549804688 c 0
 761.950195312 -265.450195312 807.650390625 -371.849609375 823.450195312 -386.650390625 c 0
 826.25 -389.299804688 826.950195312 -389.450195312 828.299804688 -387.950195312 c 0
 829.150390625 -387 829.25 -386.150390625 829.200195312 -380.799804688 c 0
 829.099609375 -368.299804688 824.049804688 -347.599609375 813.049804688 -314.5 c 0
 799.099609375 -272.650390625 779.599609375 -225.450195312 759.5 -184.75 c 0
 748.349609375 -162.200195312 740.25 -148.349609375 734.900390625 -142.700195312 c 0
552.450195312 -149.950195312 m 0
 549.450195312 -146.950195312 544.099609375 -151.099609375 538.049804688 -161.25 c 0
 525.650390625 -182.049804688 511.75 -221.299804688 505.200195312 -253.75 c 0
 502.599609375 -266.900390625 502 -272.049804688 502 -283.099609375 c 0
 502 -292.349609375 502.049804688 -293.049804688 503 -294 c 0
 504.25 -295.25 504.349609375 -295.25 506.349609375 -294.049804688 c 0
 515.599609375 -288.400390625 537.950195312 -233.450195312 548.75 -189.75 c 0
 552.200195312 -175.75 553.5 -168.299804688 553.849609375 -160.700195312 c 0
 554.150390625 -153.75 553.849609375 -151.349609375 552.450195312 -149.950195312 c 0
492.200195312 -167.299804688 m 0
 491.299804688 -166.349609375 491.200195312 -166.349609375 489.25 -167.200195312 c 0
 486.900390625 -168.200195312 482.299804688 -172.700195312 477.75 -178.400390625 c 0
 458.400390625 -202.5 439 -245.549804688 445.599609375 -249.700195312 c 0
 449.450195312 -252.099609375 463.75 -235.200195312 476 -213.799804688 c 0
 480.25 -206.400390625 487 -192.349609375 489.25 -186.25 c 0
 492.849609375 -176.5 494 -169.099609375 492.200195312 -167.299804688 c 0
240.400390625 -275.5 m 0
 239.5 -274.950195312 238.549804688 -274.5 238.25 -274.5 c 0
 235.75 -274.549804688 233.150390625 -278.599609375 231.5 -285.25 c 0
 230.349609375 -289.799804688 229 -302.549804688 229 -308.950195312 c 0
 229 -325.900390625 219.900390625 -351.549804688 207.25 -370.5 c 0
 203.900390625 -375.5 201.400390625 -378.400390625 189.299804688 -391.299804688 c 0
 174.900390625 -406.700195312 172.349609375 -411.700195312 177.450195312 -414.700195312 c 0
 178.849609375 -415.5 180.650390625 -415.75 189.049804688 -416.150390625 c 2
 199 -416.650390625 l 1
 202.650390625 -414.849609375 l 2
 211.650390625 -410.400390625 218.650390625 -403.049804688 225.799804688 -390.450195312 c 0
 234.950195312 -374.349609375 240.900390625 -353.650390625 244.5 -325.349609375 c 0
 245.799804688 -315 245.950195312 -288.5 244.75 -283.75 c 0
 243.5 -279.049804688 242.25 -276.599609375 240.400390625 -275.5 c 0
181.450195312 -280.349609375 m 0
 180.900390625 -279.599609375 180.25 -279 180 -279 c 0
 179.299804688 -279 176.549804688 -282.450195312 175.299804688 -284.900390625 c 0
 174.650390625 -286.200195312 173.299804688 -289.25 172.25 -291.75 c 0
 164.849609375 -309.799804688 152.5 -326.25 136.799804688 -338.849609375 c 0
 130.450195312 -343.950195312 128.849609375 -346.25 130.099609375 -348.450195312 c 0
 132 -351.650390625 139.400390625 -353.549804688 150.25 -353.599609375 c 0
 158.5 -353.599609375 163.049804688 -352.75 168.25 -350.25 c 0
 172.75 -348.049804688 175.900390625 -345.299804688 178.650390625 -341.099609375 c 0
 184.549804688 -332.150390625 186.650390625 -320.400390625 185.549804688 -302.75 c 0
 184.650390625 -288.75 183.599609375 -283.049804688 181.450195312 -280.349609375 c 0
EndSplineSet
EndChar

StartChar: d
Encoding: 100 100 11
Width: 1000
Flags: H
LayerCount: 2
Fore
SplineSet
254.75 415.950195312 m 0
 269.849609375 416.5 274.950195312 416.5 296.75 416 c 0
 310.799804688 415.700195312 317.5 415.349609375 320.75 414.799804688 c 0
 339.150390625 411.5 346.650390625 406.450195312 350.799804688 394.549804688 c 0
 352.549804688 389.5 353.400390625 382.950195312 354 369 c 0
 354.900390625 349.099609375 356.049804688 341.25 359.450195312 332.799804688 c 0
 364.799804688 319.450195312 375.75 311.599609375 387.599609375 312.700195312 c 0
 400.25 313.849609375 409.349609375 323.450195312 413.75 340.400390625 c 0
 415.400390625 346.650390625 415.900390625 351.099609375 416.5 365.5 c 0
 417.349609375 385.700195312 418.200195312 391.25 421.299804688 397.799804688 c 0
 423.650390625 402.849609375 428.900390625 407.75 434.25 409.950195312 c 0
 445.650390625 414.700195312 464.849609375 416.5 503.75 416.450195312 c 0
 542.299804688 416.450195312 563.5 415.549804688 574 413.5 c 0
 587.799804688 410.849609375 595.549804688 406.099609375 599.450195312 397.799804688 c 0
 602.150390625 392.099609375 602.900390625 388.5 603.5 377.700195312 c 0
 603.799804688 372.5 604.25 364.25 604.549804688 359.349609375 c 0
 605.25 346.599609375 606.650390625 339.450195312 609.849609375 331.799804688 c 0
 615.099609375 319.25 626.150390625 311.650390625 637.599609375 312.700195312 c 0
 649.150390625 313.75 658 322.200195312 662.700195312 336.650390625 c 0
 665.299804688 344.650390625 665.75 348.400390625 667 373.5 c 0
 667.700195312 387.5 669.200195312 394.799804688 672.700195312 400.650390625 c 0
 674.5 403.799804688 679.299804688 408 683.150390625 409.900390625 c 0
 687.599609375 412.099609375 696.099609375 414.200195312 704.75 415.25 c 0
 719.299804688 417 770 416.700195312 781.25 414.75 c 0
 798.849609375 411.75 806.400390625 405.25 809.75 390.150390625 c 0
 811.599609375 381.700195312 812.200195312 372.599609375 812.200195312 352 c 0
 812.25 335.299804688 812.099609375 332.349609375 811.099609375 325 c 0
 807.5 298.599609375 800 275.5 790.200195312 260.700195312 c 0
 788.700195312 258.400390625 784.150390625 253.099609375 779.799804688 248.599609375 c 0
 775.099609375 243.700195312 770.900390625 238.75 769 235.900390625 c 0
 758.200195312 219.75 750.900390625 194.75 747.75 163 c 0
 746.099609375 146.099609375 746.349609375 105.75 748.25 85.75 c 0
 754.150390625 24.2998046875 767.75 -37.650390625 789.650390625 -102.75 c 0
 801.150390625 -136.75 809.099609375 -156.5 832.5 -208.75 c 0
 872.549804688 -298.150390625 883.950195312 -326.349609375 890.950195312 -353.5 c 0
 894.099609375 -365.650390625 895.049804688 -371.75 895.349609375 -381.150390625 c 0
 895.849609375 -396.549804688 893.299804688 -404.950195312 885.599609375 -413.099609375 c 0
 871.5 -428.049804688 844.25 -434.299804688 783.25 -436.549804688 c 0
 764.450195312 -437.25 457 -437.799804688 457 -437.099609375 c 0
 457 -436.849609375 457.450195312 -430.599609375 458 -423.200195312 c 0
 459.5 -402.849609375 461.900390625 -363.349609375 462.549804688 -349 c 0
 463.849609375 -318.900390625 460.349609375 -286.799804688 455.25 -282 c 0
 454.25 -281.049804688 453.650390625 -280.900390625 451.799804688 -281.099609375 c 0
 445.549804688 -281.799804688 432.75 -290.150390625 413.75 -305.849609375 c 0
 401.75 -315.75 390.650390625 -326.049804688 368.5 -347.75 c 0
 338.25 -377.5 328.099609375 -386.650390625 312.5 -398.299804688 c 0
 282.099609375 -421.099609375 254.549804688 -433.75 228.400390625 -437 c 0
 221.150390625 -437.900390625 206.150390625 -437.400390625 199.349609375 -436.049804688 c 0
 186.150390625 -433.400390625 171.700195312 -426.400390625 160.5 -417.299804688 c 0
 143.299804688 -403.349609375 126.049804688 -378.450195312 115.799804688 -352.849609375 c 0
 102.450195312 -319.650390625 102.25 -287.450195312 115.200195312 -258.5 c 0
 118.799804688 -250.450195312 123.200195312 -243.299804688 129.650390625 -234.900390625 c 0
 140.450195312 -220.849609375 144.849609375 -213.849609375 153.650390625 -196.25 c 0
 195.349609375 -112.799804688 247.200195312 51.0498046875 260.700195312 142.25 c 0
 267.700195312 189.599609375 265.700195312 216.200195312 253.650390625 234.75 c 0
 252.549804688 236.400390625 247.450195312 242.25 242.25 247.700195312 c 0
 232.25 258.299804688 230.150390625 261.150390625 225.799804688 269.799804688 c 0
 218.25 284.900390625 213.049804688 302.400390625 209.900390625 323.549804688 c 0
 208.849609375 330.75 208.75 332.700195312 208.799804688 352.75 c 0
 208.849609375 376.049804688 209.299804688 382.900390625 211.25 390.950195312 c 0
 215.650390625 409.049804688 226 415 254.75 415.950195312 c 0
538.75 394.950195312 m 0
 531.200195312 395.5 504.299804688 396 497.75 395.700195312 c 0
 474.849609375 394.700195312 468.200195312 393.950195312 460.75 391.650390625 c 0
 451.400390625 388.75 445.599609375 384.25 442.299804688 377.349609375 c 0
 439.75 372.049804688 438.650390625 366.150390625 438 354.5 c 0
 437.700195312 349.150390625 437.25 340.599609375 437 335.5 c 0
 436.049804688 317.450195312 433.950195312 310.200195312 427.799804688 303.200195312 c 0
 421.5 296 412 292.900390625 393.650390625 292 c 0
 377.450195312 291.25 362.450195312 292.650390625 354.25 295.75 c 0
 347.049804688 298.450195312 341.650390625 303.400390625 338.5 310.150390625 c 0
 335.099609375 317.5 334.299804688 322.5 333.5 341.75 c 0
 333.200195312 348.650390625 332.75 356.599609375 332.450195312 359.5 c 0
 330.599609375 378.400390625 324.099609375 388.049804688 310.200195312 392.5 c 0
 303.200195312 394.75 295.900390625 395.5 281.5 395.5 c 0
 263.150390625 395.5 254.5 394.150390625 246.400390625 389.900390625 c 0
 239.650390625 386.400390625 235.75 382 232.950195312 374.799804688 c 0
 229.099609375 364.900390625 228.200195312 346.099609375 230.75 330.049804688 c 0
 232.700195312 318.049804688 237.150390625 303.75 242.25 293.25 c 0
 248.599609375 280.200195312 254.349609375 273.650390625 262.200195312 270.349609375 c 0
 279.599609375 263.049804688 317.099609375 257.200195312 368.75 253.799804688 c 0
 375.099609375 253.349609375 382.049804688 252.900390625 384.25 252.75 c 0
 391.450195312 252.25 417.450195312 251.049804688 434.5 250.400390625 c 0
 457.5 249.5 565.349609375 249.5 587.25 250.400390625 c 0
 683.549804688 254.25 739.049804688 260.900390625 760.5 271.099609375 c 0
 769.450195312 275.400390625 778.299804688 289.099609375 784.75 308.650390625 c 0
 789.450195312 322.950195312 790.799804688 330.849609375 791.299804688 346.25 c 0
 791.950195312 365.700195312 789 377.150390625 781.299804688 384.799804688 c 0
 773.400390625 392.700195312 762 395.650390625 739.75 395.650390625 c 0
 717.200195312 395.599609375 705.450195312 392.650390625 698 385.049804688 c 0
 692.599609375 379.599609375 689.75 372.400390625 688.549804688 361.25 c 0
 688.25 358.799804688 687.799804688 350.900390625 687.5 343.75 c 0
 686.450195312 319 684.549804688 310.849609375 678 303.450195312 c 0
 671.450195312 296 662.200195312 292.950195312 643.650390625 292 c 0
 627.450195312 291.25 612.450195312 292.650390625 604.25 295.75 c 0
 597.049804688 298.450195312 591.650390625 303.400390625 588.5 310.150390625 c 0
 585.099609375 317.549804688 584.299804688 322.450195312 583.5 342.5 c 0
 582.849609375 358.549804688 582.299804688 365 580.950195312 370.25 c 0
 576.849609375 386.700195312 566.150390625 393 538.75 394.950195312 c 0
728.950195312 99.150390625 m 2
 729 229 l 1
 519.400390625 228.900390625 l 2
 318.099609375 228.799804688 294 228.700195312 294 228.299804688 c 0
 294 227.049804688 279.049804688 122.299804688 277.549804688 112.950195312 c 0
 258.349609375 -5.900390625 201.950195312 -183.799804688 166.75 -236.5 c 0
 162.75 -242.450195312 160.75 -244.799804688 150.5 -255.599609375 c 0
 145.950195312 -260.349609375 141.150390625 -265.900390625 139.849609375 -267.849609375 c 0
 125.5 -289.450195312 121.5 -313.299804688 130.049804688 -326.200195312 c 0
 132.849609375 -330.400390625 138.049804688 -333.049804688 143.75 -333.150390625 c 0
 150.75 -333.299804688 158.650390625 -326.900390625 165.200195312 -315.900390625 c 0
 168.400390625 -310.400390625 170.049804688 -306.349609375 173.799804688 -294.349609375 c 0
 179.5 -275.950195312 181.400390625 -274.450195312 183.349609375 -286.599609375 c 0
 184 -290.599609375 184.150390625 -295.599609375 184.200195312 -309 c 0
 184.25 -324.200195312 184.150390625 -326.75 183.299804688 -330.25 c 0
 181.849609375 -336.549804688 179.599609375 -342.200195312 177 -346.200195312 c 0
 173.450195312 -351.650390625 170.650390625 -353.450195312 164.5 -354.200195312 c 0
 156.849609375 -355.150390625 153 -358.549804688 153 -364.400390625 c 0
 153 -374.450195312 167.799804688 -392.450195312 177.849609375 -394.5 c 0
 185.349609375 -396.049804688 191.900390625 -393.599609375 198.950195312 -386.549804688 c 0
 203.75 -381.849609375 207.200195312 -376.900390625 212.200195312 -367.75 c 0
 219.650390625 -354.150390625 222.75 -345.599609375 238.349609375 -296.25 c 0
 243.700195312 -279.200195312 248.25 -265.150390625 248.400390625 -265 c 0
 248.799804688 -264.599609375 248.25 -268.75 243.5 -302.75 c 0
 235.700195312 -358.75 235.650390625 -359.25 235.150390625 -377 c 0
 234.849609375 -388.049804688 235.400390625 -399.099609375 236.549804688 -404.700195312 c 0
 238 -411.849609375 240.5 -416.5 242.950195312 -416.5 c 0
 249.450195312 -416.5 279.299804688 -390.599609375 327.400390625 -343.25 c 0
 341.150390625 -329.75 355.200195312 -315.400390625 397 -272.299804688 c 0
 427.099609375 -241.25 453.200195312 -216.049804688 468.5 -203.299804688 c 0
 474.400390625 -198.349609375 481.900390625 -193.150390625 483.799804688 -192.700195312 c 0
 486.849609375 -191.900390625 486.400390625 -194 480.849609375 -206.299804688 c 0
 477.599609375 -213.5 474.900390625 -221.599609375 473.75 -227.700195312 c 0
 473.099609375 -231.200195312 472.950195312 -234.400390625 473.099609375 -243.700195312 c 0
 473.299804688 -254.75 473.349609375 -255.450195312 474.700195312 -259.5 c 0
 477.549804688 -268.150390625 483.900390625 -278.450195312 489.849609375 -284 c 0
 493.400390625 -287.349609375 495.5 -288.099609375 497.099609375 -286.650390625 c 0
 498.650390625 -285.25 498.900390625 -284.099609375 499.75 -275.599609375 c 0
 501.450195312 -258.549804688 503.549804688 -248.849609375 510.049804688 -228.25 c 0
 521.299804688 -192.650390625 539.75 -155.700195312 548.650390625 -151 c 0
 551.200195312 -149.650390625 553.25 -149.900390625 553.799804688 -151.650390625 c 0
 554.299804688 -153.150390625 554.049804688 -164.450195312 553.450195312 -168.75 c 0
 552.200195312 -177.900390625 547.150390625 -197.5 541 -217.5 c 0
 535.650390625 -234.849609375 530.799804688 -248.799804688 519.650390625 -279 c 0
 497.75 -338.299804688 485.400390625 -374.400390625 480.799804688 -392.75 c 0
 479.299804688 -398.799804688 479.099609375 -401.150390625 480 -402.25 c 0
 484.299804688 -407.450195312 512.549804688 -411.549804688 566.5 -414.75 c 0
 595.049804688 -416.450195312 704.700195312 -416.950195312 732.5 -415.5 c 0
 773.349609375 -413.400390625 791.950195312 -408.849609375 801.450195312 -398.75 c 0
 806.5 -393.299804688 808.25 -388.150390625 808.200195312 -378.75 c 0
 808.150390625 -371.150390625 806.549804688 -363.25 802.700195312 -351.400390625 c 0
 797.400390625 -335.049804688 793.849609375 -326.400390625 775.900390625 -286 c 0
 763.799804688 -258.75 757.75 -244.5 753 -232 c 0
 739.700195312 -196.849609375 732 -170 730.450195312 -153.450195312 c 0
 729.75 -145.700195312 730.200195312 -143.5 732.5 -143.5 c 0
 739.400390625 -143.5 762.099609375 -185.200195312 787.5 -244.5 c 0
 803.25 -281.299804688 816.5 -316.599609375 824.450195312 -343.099609375 c 0
 829.450195312 -359.75 831.75 -370.299804688 832.5 -380.349609375 c 0
 833.299804688 -391.099609375 834.950195312 -397.599609375 838.400390625 -404.200195312 c 0
 840.549804688 -408.299804688 844.75 -413 847.950195312 -414.900390625 c 0
 849.950195312 -416.099609375 850.799804688 -416.25 854.5 -416.25 c 0
 859.799804688 -416.25 863.099609375 -415.150390625 866.200195312 -412.400390625 c 0
 872.150390625 -407.200195312 874.049804688 -399.349609375 873 -384 c 0
 870.349609375 -344.400390625 836.299804688 -267.650390625 785.950195312 -187.700195312 c 0
 758.349609375 -143.799804688 726.25 -100.299804688 696 -65.75 c 0
 674.049804688 -40.7001953125 652 -19.150390625 620 8.25 c 0
 579.799804688 42.7998046875 552.900390625 62.2998046875 530.75 73.0498046875 c 0
 515.549804688 80.4501953125 504.549804688 82.849609375 495.599609375 80.75 c 0
 486.900390625 78.7001953125 480.799804688 73.0498046875 475.900390625 62.5 c 0
 471.599609375 53.2998046875 471.049804688 52.5 468.900390625 52.5 c 0
 467.150390625 52.5 464.049804688 56.400390625 461.25 62.099609375 c 0
 457.599609375 69.599609375 454.349609375 79.7001953125 449.799804688 97.25 c 0
 443.650390625 121.049804688 440.200195312 131.450195312 434.450195312 143.5 c 0
 426.849609375 159.25 419.5 167.349609375 413.75 166.299804688 c 0
 405.75 164.799804688 398.549804688 144.049804688 396.5 117 c 0
 396.25 113.299804688 395.799804688 103.150390625 395.5 94.5 c 0
 394.700195312 70.349609375 393.950195312 61.650390625 391.950195312 55.650390625 c 0
 390.849609375 52.349609375 388.75 50 386.900390625 50 c 0
 385.200195312 50 379.799804688 55.7998046875 374.200195312 63.650390625 c 0
 371.25 67.849609375 367 73.0498046875 364.799804688 75.2998046875 c 0
 358 82.099609375 355.650390625 82.0498046875 354.299804688 75 c 0
 353.400390625 70.25 352.150390625 69 348.349609375 69 c 0
 341.849609375 69.0498046875 329.599609375 77 317.5 89.0498046875 c 0
 298.700195312 107.799804688 289.200195312 126 292.450195312 137.099609375 c 0
 292.799804688 138.400390625 293.700195312 140.099609375 294.349609375 140.799804688 c 0
 295.400390625 141.950195312 295.849609375 142.099609375 297.799804688 141.849609375 c 0
 302.400390625 141.349609375 306.849609375 138.25 318.200195312 127.700195312 c 0
 334.799804688 112.200195312 343.150390625 106.900390625 352 106.150390625 c 0
 360.450195312 105.450195312 366.849609375 110.349609375 372.5 121.75 c 0
 374.950195312 126.75 377.099609375 132.849609375 382 148.5 c 0
 386.400390625 162.450195312 391.450195312 171.549804688 399.200195312 179.299804688 c 0
 405.099609375 185.200195312 409.049804688 187.25 414.299804688 187.25 c 0
 417.450195312 187.25 418.299804688 187 422.049804688 185.150390625 c 0
 434.450195312 179 446.599609375 165.849609375 458.400390625 145.650390625 c 0
 462.950195312 138 466.400390625 133.650390625 473.299804688 127 c 0
 480.5 120.099609375 486.599609375 115.799804688 495.75 111.25 c 0
 504.599609375 106.849609375 509.599609375 105.400390625 519.849609375 104.25 c 0
 529.099609375 103.25 532.650390625 102.5 539.549804688 99.9501953125 c 0
 560.299804688 92.2001953125 593.599609375 71.5498046875 622.799804688 48.2001953125 c 0
 633.950195312 39.2998046875 637.900390625 35.849609375 673.25 4 c 0
 691.150390625 -12.099609375 710.799804688 -29.849609375 717 -35.400390625 c 2
 728.25 -45.5498046875 l 1
 728.549804688 -38.150390625 l 2
 728.75 -34.099609375 728.900390625 27.7001953125 728.950195312 99.150390625 c 2
311.950195312 -55.150390625 m 0
 314.900390625 -54.099609375 315.900390625 -54 321.5 -54.150390625 c 0
 327.099609375 -54.2998046875 328.150390625 -54.5 331.799804688 -55.900390625 c 0
 343.099609375 -60.349609375 355.400390625 -72 361.25 -83.75 c 0
 364.849609375 -91 365.950195312 -98.2001953125 364.25 -103.799804688 c 0
 362.549804688 -109.400390625 354.700195312 -117.349609375 347.049804688 -121.150390625 c 2
 342.799804688 -123.25 l 1
 334 -123.25 l 1
 325.150390625 -123.25 l 1
 320.450195312 -120.900390625 l 2
 311.950195312 -116.700195312 304.400390625 -109 299.849609375 -99.900390625 c 0
 296.400390625 -93 295.349609375 -88.650390625 295.349609375 -80.5 c 0
 295.299804688 -74.5498046875 295.450195312 -73.400390625 296.5 -70.75 c 0
 299.5 -63.099609375 304.75 -57.75 311.950195312 -55.150390625 c 0
EndSplineSet
EndChar

StartChar: k
Encoding: 107 107 12
Width: 1000
Flags: H
LayerCount: 2
Fore
SplineSet
498.5 478.5 m 0
 508.549804688 479.25 525.700195312 478.599609375 532.25 477.25 c 0
 545.349609375 474.549804688 555.150390625 469.349609375 560.299804688 462.400390625 c 0
 563.25 458.349609375 564.349609375 455.099609375 565.200195312 447.650390625 c 0
 566 440.950195312 567.150390625 436.75 569.25 433.25 c 0
 574.549804688 424.150390625 582.950195312 418.650390625 593.650390625 417.200195312 c 0
 608.299804688 415.200195312 611.549804688 414 616.950195312 408.549804688 c 0
 620.900390625 404.549804688 623.049804688 401 625.400390625 394.849609375 c 0
 633.400390625 373.549804688 631.599609375 342.25 621.450195312 326.25 c 0
 618.900390625 322.200195312 613.349609375 317 609.900390625 315.349609375 c 0
 607.150390625 314.049804688 602.200195312 312.950195312 594.700195312 312.049804688 c 0
 589.400390625 311.400390625 585.599609375 309.950195312 581.849609375 307.099609375 c 0
 574.549804688 301.549804688 569.799804688 292.799804688 566.950195312 279.5 c 0
 565.900390625 274.75 565.799804688 272.900390625 565.75 260.5 c 0
 565.75 245.450195312 566.400390625 239.299804688 568.799804688 232 c 0
 573.599609375 217.549804688 584.200195312 210.299804688 599.25 211.200195312 c 0
 616.25 212.25 635.400390625 219.450195312 674 239.5 c 0
 700.849609375 253.400390625 744.5 264.200195312 792.200195312 268.75 c 0
 803.450195312 269.799804688 840.099609375 269.799804688 849.5 268.75 c 0
 893.900390625 263.650390625 925.549804688 249.549804688 950.549804688 223.650390625 c 0
 977.349609375 195.849609375 993.049804688 155.700195312 998.25 101.799804688 c 0
 999.400390625 89.7001953125 1000.15039062 65.4501953125 999.799804688 51.5 c 0
 998.549804688 2.7001953125 989.75 -31.349609375 968.900390625 -67.5 c 0
 959.049804688 -84.599609375 950.099609375 -97.7001953125 926.700195312 -129.25 c 0
 904.950195312 -158.549804688 895.099609375 -173.799804688 885.049804688 -193.900390625 c 0
 874.049804688 -215.950195312 868.349609375 -234.900390625 866.450195312 -256.049804688 c 0
 865.950195312 -261.5 865.950195312 -266.049804688 866.549804688 -280.25 c 0
 867.349609375 -300.25 867.299804688 -308.450195312 866.200195312 -318 c 0
 862.849609375 -347.549804688 850.849609375 -371.400390625 828 -393.650390625 c 0
 818 -403.450195312 810.599609375 -409.150390625 801.25 -414.400390625 c 0
 774.549804688 -429.349609375 735.849609375 -434.75 643 -436.549804688 c 0
 605.5 -437.25 372.099609375 -436.900390625 353.5 -436.099609375 c 0
 310.299804688 -434.200195312 293.299804688 -432.950195312 274.049804688 -430.200195312 c 0
 235.099609375 -424.650390625 215.75 -415.650390625 191.950195312 -392 c 0
 172.549804688 -372.700195312 161.5 -351.900390625 156.349609375 -325 c 0
 155.349609375 -319.700195312 155.299804688 -317.700195312 155.299804688 -300.5 c 0
 155.299804688 -290.200195312 155.349609375 -276.450195312 155.450195312 -270 c 0
 155.700195312 -254.5 154.799804688 -246.299804688 151.25 -232 c 0
 145.25 -207.700195312 131.650390625 -180.700195312 109.349609375 -148.75 c 0
 106.849609375 -145.150390625 99.849609375 -135.599609375 93.7998046875 -127.5 c 0
 79.75 -108.650390625 71.099609375 -96.5498046875 65.25 -87.7001953125 c 0
 39.900390625 -49.25 27.900390625 -17.5 23.7998046875 22 c 0
 21.349609375 45.2001953125 21.349609375 79.9501953125 23.75 104.25 c 0
 30.0498046875 167.200195312 51.9501953125 212.599609375 88.7998046875 239.099609375 c 0
 110.349609375 254.549804688 133.049804688 263.150390625 164.799804688 267.799804688 c 0
 181.25 270.200195312 217.099609375 270.299804688 237 268 c 0
 267.75 264.5 296 258.700195312 319 251.25 c 0
 332.25 246.900390625 336.049804688 245.299804688 358.5 234.049804688 c 0
 385.650390625 220.5 399.549804688 215 413.849609375 212.150390625 c 0
 419.950195312 210.950195312 429.75 210.950195312 433.75 212.200195312 c 0
 445.299804688 215.700195312 451.5 223.75 454.75 239.5 c 0
 456.75 249.099609375 456.599609375 270.900390625 454.450195312 280.799804688 c 0
 451.900390625 292.599609375 446.900390625 301.900390625 440.400390625 306.849609375 c 0
 435.400390625 310.650390625 432 311.849609375 424.099609375 312.5 c 0
 417.5 313.049804688 413.5 314.200195312 409.75 316.700195312 c 0
 396.849609375 325.25 390.75 342.900390625 391.650390625 369 c 0
 392.25 386.150390625 396.349609375 399.349609375 403.650390625 407.299804688 c 0
 409.049804688 413.200195312 413.75 415.450195312 422.75 416.5 c 0
 435.650390625 417.950195312 440.5 419.950195312 447.049804688 426.5 c 0
 453.299804688 432.700195312 455.25 437.099609375 456.5 447.75 c 0
 457.599609375 456.849609375 459.650390625 461.25 465.25 466.400390625 c 0
 472.200195312 472.75 485.349609375 477.549804688 498.5 478.5 c 0
519.25 457.150390625 m 0
 510.849609375 459.25 502.900390625 458.299804688 495.25 454.299804688 c 0
 490.700195312 451.950195312 483.650390625 444.75 481.349609375 440 c 0
 479.700195312 436.700195312 479.349609375 435.299804688 478.450195312 428.5 c 0
 476.799804688 415.5 474.849609375 411.25 467.799804688 404.650390625 c 0
 461.549804688 398.799804688 457.150390625 397.099609375 444.799804688 395.75 c 0
 436.599609375 394.849609375 432.450195312 393.549804688 427.599609375 390.299804688 c 0
 421.150390625 386.049804688 416.400390625 379.599609375 414.200195312 372.25 c 0
 413 368.200195312 413 360.75 414.200195312 356.75 c 0
 416.849609375 347.950195312 423.200195312 340.549804688 431.700195312 336.549804688 c 0
 435.450195312 334.75 437.650390625 334.200195312 444.75 333.5 c 0
 451.299804688 332.849609375 453.900390625 332.25 457.299804688 330.650390625 c 0
 467.349609375 326 474 311.549804688 476.450195312 288.75 c 0
 477.25 281.450195312 477.950195312 267.549804688 478.5 247.5 c 0
 479.299804688 219.349609375 480.099609375 208.599609375 482.799804688 191 c 0
 484.5 179.950195312 487 170.400390625 489.450195312 165.299804688 c 0
 491.900390625 160.200195312 495.099609375 157.099609375 501 154.049804688 c 2
 505.099609375 151.900390625 l 1
 510.200195312 152.099609375 l 2
 514.599609375 152.25 515.549804688 152.450195312 517.599609375 153.650390625 c 0
 529.049804688 160.349609375 537.349609375 180.849609375 541.200195312 211.75 c 0
 542.400390625 221.349609375 542.950195312 230.849609375 543.5 252.5 c 0
 544.200195312 279.900390625 544.849609375 288.849609375 547.049804688 300 c 0
 549.400390625 311.849609375 553.200195312 320.700195312 558.150390625 325.849609375 c 0
 563.200195312 331.150390625 565.900390625 332.099609375 580.75 334 c 0
 596.75 336.049804688 608.5 349.150390625 608.5 365 c 0
 608.5 375.950195312 601.900390625 386.349609375 591.700195312 391.650390625 c 0
 586.25 394.450195312 583.200195312 395.25 575.5 396 c 0
 568.299804688 396.700195312 566.150390625 397.200195312 561.75 399.25 c 0
 556.150390625 401.900390625 549.299804688 408.5 546.75 413.75 c 0
 545.099609375 417.049804688 543.5 423.549804688 543.5 426.700195312 c 0
 543.5 430.849609375 542.150390625 435.950195312 539.950195312 440.5 c 0
 536.049804688 448.5 527.900390625 455.049804688 519.25 457.150390625 c 0
205.049804688 249.5 m 0
 185.400390625 251 168.150390625 248.400390625 150.150390625 241.25 c 0
 127.900390625 232.349609375 107.650390625 217.299804688 90.5498046875 197 c 0
 65.75 167.5 49.7998046875 129 44.75 86.25 c 0
 43.75 77.900390625 43.599609375 50.4501953125 44.5 41.75 c 0
 46.9501953125 17.900390625 53.650390625 -4.75 65.25 -28.25 c 0
 77.5 -53.2001953125 91.849609375 -74.599609375 124.599609375 -116.849609375 c 0
 162.349609375 -165.5 180.150390625 -196.400390625 185.5 -222.650390625 c 0
 186.450195312 -227.25 186.549804688 -229.150390625 186.400390625 -236.400390625 c 0
 186.200195312 -244.349609375 186.049804688 -245.150390625 183.900390625 -253.5 c 0
 180.700195312 -265.849609375 180.349609375 -269.450195312 180.599609375 -291.25 c 0
 180.799804688 -307.700195312 180.950195312 -310.400390625 181.950195312 -315.75 c 0
 184.200195312 -328 187.049804688 -337.75 193.099609375 -353.75 c 0
 198.400390625 -367.75 201.75 -373.5 203.900390625 -372.200195312 c 0
 205.650390625 -371.150390625 207.5 -366 210.25 -354.5 c 0
 211.799804688 -348.049804688 213.950195312 -339.450195312 215.049804688 -335.450195312 c 0
 220.349609375 -315.5 229.150390625 -296.599609375 238.75 -284.599609375 c 0
 241.650390625 -281 242.200195312 -276.599609375 240.75 -268.200195312 c 0
 237.049804688 -247.150390625 220.700195312 -213.150390625 194 -171.200195312 c 0
 162.349609375 -121.5 139.75 -72.400390625 132.400390625 -37.2998046875 c 0
 130.900390625 -30.150390625 130.799804688 -29.2001953125 130.799804688 -19 c 0
 130.849609375 -0.849609375 133.599609375 14.400390625 140.099609375 32.5 c 0
 156.599609375 78.400390625 193.049804688 113.900390625 232.549804688 122.700195312 c 0
 253.25 127.25 269.049804688 125 291.900390625 114.200195312 c 0
 354 84.900390625 436.099609375 -2.900390625 474.75 -81.25 c 0
 485.200195312 -102.400390625 485.25 -102.599609375 510.049804688 -182.200195312 c 0
 513.650390625 -193.799804688 514.799804688 -196.849609375 515.099609375 -195.950195312 c 0
 515.299804688 -195.299804688 518.400390625 -180.099609375 522 -162.25 c 0
 531.900390625 -113.349609375 533.400390625 -107.450195312 539.950195312 -92.099609375 c 0
 555.450195312 -55.900390625 582.299804688 -16 617.549804688 23.2998046875 c 0
 627.049804688 33.900390625 648.349609375 55.099609375 658 63.599609375 c 0
 705.900390625 105.799804688 745.200195312 126.549804688 774 124.799804688 c 0
 795.25 123.549804688 815.25 115.450195312 834 100.599609375 c 0
 840.299804688 95.599609375 851.75 83.9501953125 856.799804688 77.5 c 0
 876.150390625 52.5498046875 887.700195312 23.400390625 890.549804688 -7.7001953125 c 0
 891.349609375 -16.2001953125 890.849609375 -29.650390625 889.549804688 -36.150390625 c 0
 885.450195312 -56.349609375 875.75 -82.2001953125 860.700195312 -112.900390625 c 0
 850.200195312 -134.400390625 843.049804688 -147 826.25 -173.5 c 0
 796.150390625 -221 780.5 -254.950195312 780.5 -272.75 c 0
 780.5 -278.150390625 780.900390625 -278.950195312 786.450195312 -284.400390625 c 0
 793.299804688 -291.150390625 797.849609375 -300.200195312 801.25 -313.650390625 c 0
 803.75 -323.599609375 804.450195312 -329.400390625 805 -344 c 0
 805.5 -357.849609375 806.200195312 -366.150390625 807 -368.950195312 c 0
 807.549804688 -370.900390625 808.849609375 -372.5 809.849609375 -372.5 c 0
 811.400390625 -372.5 815.900390625 -367.299804688 820.75 -360 c 0
 832 -343.049804688 835.950195312 -333.849609375 839.200195312 -317.150390625 c 0
 841.049804688 -307.450195312 841.5 -302.150390625 841.5 -288.900390625 c 0
 841.5 -275.049804688 840.950195312 -270.150390625 838.200195312 -258 c 0
 836.5 -250.349609375 836.349609375 -249.049804688 836.099609375 -239.799804688 c 0
 835.799804688 -224.849609375 837.349609375 -215.450195312 842.349609375 -203 c 0
 852.25 -178.150390625 866.299804688 -156.349609375 901.450195312 -111.25 c 0
 917 -91.349609375 928.349609375 -75.75 936.25 -63.5 c 0
 960.299804688 -26.349609375 972.849609375 5.0498046875 976.75 38 c 0
 978.599609375 53.400390625 978.25 77.25 975.950195312 94 c 0
 965.450195312 169.900390625 916.5 231.299804688 854.400390625 246.450195312 c 0
 842.900390625 249.25 838.549804688 249.650390625 821.25 249.349609375 c 0
 804.5 249.099609375 798.349609375 248.450195312 780.5 244.950195312 c 0
 718.400390625 232.799804688 636.799804688 198.900390625 581.5 162.25 c 0
 572 155.950195312 561.150390625 147.900390625 547.25 136.799804688 c 0
 524.400390625 118.599609375 517.549804688 114.799804688 508 114.799804688 c 0
 499.900390625 114.799804688 495.900390625 117.150390625 485 128.349609375 c 0
 469.5 144.25 465.150390625 148.049804688 452 157.049804688 c 0
 391.400390625 198.549804688 268.5 244.5 205.049804688 249.5 c 0
259.849609375 99.75 m 0
 254.950195312 100.650390625 246 101 241.599609375 100.450195312 c 0
 233.599609375 99.5 223.349609375 94.9501953125 214.799804688 88.599609375 c 0
 201.400390625 78.599609375 183.450195312 56.5498046875 170.700195312 34.4501953125 c 0
 160.099609375 16.0498046875 155.950195312 3.150390625 155.150390625 -14 c 0
 153.849609375 -41.75 168.25 -76.4501953125 204.799804688 -133.5 c 0
 211.5 -144 233.450195312 -176.849609375 240.5 -187 c 0
 260.5 -215.799804688 275 -230.450195312 291.25 -238.450195312 c 0
 303.75 -244.650390625 317.799804688 -247.650390625 340.299804688 -249.049804688 c 0
 354.200195312 -249.900390625 438.900390625 -249.950195312 451.25 -249.099609375 c 0
 477.799804688 -247.299804688 486.849609375 -244.200195312 491.099609375 -235.599609375 c 0
 492.150390625 -233.450195312 492.25 -232.599609375 492.200195312 -225.75 c 0
 492.200195312 -217.099609375 491.950195312 -215.75 486.25 -192.650390625 c 0
 466.150390625 -111.5 446.549804688 -70.349609375 403.950195312 -20.25 c 0
 383.650390625 3.650390625 341.700195312 46.4501953125 322 63.2998046875 c 0
 298.099609375 83.7001953125 275.950195312 96.7001953125 259.849609375 99.75 c 0
780.5 100.299804688 m 0
 777.900390625 100.650390625 774.400390625 100.950195312 772.75 100.950195312 c 0
 745.799804688 100.400390625 715.299804688 80.650390625 666.75 32.25 c 0
 636.849609375 2.4501953125 613 -24.400390625 597.5 -45.7998046875 c 0
 568.650390625 -85.5498046875 552.849609375 -123.099609375 534.950195312 -194.650390625 c 0
 530.049804688 -214.25 529.900390625 -214.900390625 529.650390625 -224.400390625 c 0
 529.400390625 -232.950195312 529.400390625 -233.049804688 530.700195312 -235.700195312 c 0
 534.25 -243 542.299804688 -246.349609375 561.25 -248.549804688 c 0
 573.549804688 -249.950195312 677.5 -249.900390625 690 -248.5 c 0
 719.849609375 -245.150390625 733.349609375 -239.900390625 749.650390625 -225.299804688 c 0
 757.099609375 -218.650390625 767.799804688 -205.900390625 778.950195312 -190.299804688 c 0
 785.299804688 -181.400390625 809.849609375 -144.599609375 818.349609375 -131.25 c 0
 844.299804688 -90.349609375 858.299804688 -62.2001953125 863.650390625 -40 c 0
 868.349609375 -20.7001953125 867.299804688 -2.5498046875 860.450195312 15.25 c 0
 853.299804688 33.900390625 835.549804688 60.5498046875 818.799804688 77.849609375 c 0
 806.400390625 90.7001953125 793.349609375 98.349609375 780.5 100.299804688 c 0
562.25 -278.5 m 0
 542.900390625 -277.950195312 470.700195312 -277.950195312 454.5 -278.549804688 c 0
 382.049804688 -281.150390625 319.799804688 -288.349609375 286.650390625 -298.049804688 c 0
 270.900390625 -302.650390625 259.349609375 -308.450195312 255.25 -313.849609375 c 0
 247.25 -324.299804688 241.25 -347.25 242.150390625 -363.599609375 c 0
 242.549804688 -370.25 244.150390625 -378.349609375 245.849609375 -382.150390625 c 0
 250 -391.450195312 266.799804688 -398.849609375 298.099609375 -405.200195312 c 0
 333.25 -412.349609375 375.549804688 -416.549804688 442 -419.549804688 c 0
 460.75 -420.400390625 537.349609375 -420.700195312 560.5 -420.049804688 c 0
 672 -416.849609375 748.049804688 -405.700195312 769.849609375 -389.299804688 c 0
 776.349609375 -384.400390625 778.650390625 -378 779.299804688 -362.900390625 c 0
 779.950195312 -347.5 776.900390625 -333.049804688 770.299804688 -320.25 c 0
 766.450195312 -312.799804688 763 -309.549804688 754.400390625 -305.299804688 c 0
 747.049804688 -301.700195312 740.5 -299.400390625 729.25 -296.5 c 0
 692.599609375 -287 632.650390625 -280.549804688 562.25 -278.5 c 0
EndSplineSet
EndChar

StartChar: n
Encoding: 110 110 13
Width: 1000
Flags: H
LayerCount: 2
Fore
SplineSet
407.099609375 434.599609375 m 0
 409.25 435.349609375 410.799804688 435.5 415 435.349609375 c 0
 419.5 435.200195312 420.799804688 434.950195312 423.849609375 433.650390625 c 0
 434.950195312 428.950195312 444.900390625 418.549804688 455.549804688 400.599609375 c 0
 461.900390625 389.849609375 464.950195312 385.549804688 470.25 380.049804688 c 0
 485 364.75 502.25 355.900390625 520.75 354.25 c 0
 533.200195312 353.150390625 539.599609375 351.299804688 552.200195312 345.25 c 0
 580.900390625 331.450195312 623.650390625 298.5 665.349609375 257.950195312 c 0
 681.450195312 242.299804688 706.549804688 216.700195312 716 206.200195312 c 0
 774 142 812.849609375 87 834 39.2001953125 c 0
 862.400390625 -24.849609375 894.450195312 -135.849609375 916.5 -246.5 c 0
 925.25 -290.150390625 930.150390625 -321.049804688 934.200195312 -357.5 c 0
 936.700195312 -379.75 936.950195312 -385.5 937.349609375 -424.099609375 c 2
 937.650390625 -458.5 l 1
 822.700195312 -458.5 l 2
 674.599609375 -458.450195312 477.5 -457.700195312 449 -457 c 0
 360.849609375 -454.950195312 318 -450.5 300.900390625 -441.650390625 c 0
 293.150390625 -437.650390625 290.650390625 -432.5 292.450195312 -424.5 c 0
 295.450195312 -411.049804688 309.75 -382.299804688 330.849609375 -347.349609375 c 0
 341.349609375 -329.900390625 350.049804688 -316.400390625 370 -286.5 c 0
 387.950195312 -259.599609375 393.349609375 -251.299804688 402.099609375 -237 c 0
 435.5 -182.549804688 458.950195312 -133.200195312 467.950195312 -98.5 c 0
 470.950195312 -87.0498046875 471.650390625 -82.0498046875 471.700195312 -72.25 c 0
 471.75 -64.5 471.650390625 -63.4501953125 470.549804688 -60.2998046875 c 0
 468.900390625 -55.5 465.450195312 -51.9501953125 461.299804688 -50.75 c 0
 447.150390625 -46.650390625 420 -63.25 384.799804688 -97.5 c 0
 375.75 -106.299804688 363.849609375 -118.849609375 347.799804688 -136.5 c 0
 332.799804688 -153 302.75 -183.200195312 291.5 -193.099609375 c 0
 243.75 -235.150390625 205.049804688 -254.400390625 171.5 -252.849609375 c 0
 149.299804688 -251.799804688 131.25 -243.200195312 113 -225 c 0
 96.650390625 -208.650390625 79.9501953125 -182.950195312 72.25 -162.25 c 0
 60.0498046875 -129.5 62.349609375 -101.5 80.150390625 -65 c 0
 87.2001953125 -50.5 94.5498046875 -38.7001953125 110.599609375 -16.150390625 c 0
 120.849609375 -1.75 123.900390625 2.9501953125 130.200195312 13.650390625 c 0
 174.799804688 90 229.049804688 230.150390625 245.200195312 311.049804688 c 0
 248.349609375 326.700195312 249 332.25 250.5 357.799804688 c 0
 251.349609375 372.200195312 253.25 380.5 257.799804688 389.900390625 c 0
 260 394.450195312 261.200195312 396.200195312 263.900390625 398.950195312 c 0
 265.75 400.799804688 267.950195312 402.75 268.849609375 403.200195312 c 2
 270.450195312 404 l 1
 270.799804688 402.150390625 l 2
 271.299804688 399.450195312 270.599609375 335.450195312 270 328.25 c 0
 264.150390625 260.549804688 220.900390625 128.75 173 32.9501953125 c 0
 157.75 2.5 147.799804688 -14.150390625 129.900390625 -39.099609375 c 0
 107.450195312 -70.4501953125 90.849609375 -98.849609375 85.150390625 -115.599609375 c 0
 83.25 -121.25 83.150390625 -128.900390625 84.900390625 -134.299804688 c 0
 90.0498046875 -150 107.049804688 -148.950195312 120.450195312 -132.049804688 c 0
 125.349609375 -125.799804688 128.450195312 -119 132.5 -105.75 c 0
 135.400390625 -96.150390625 136.700195312 -92.9501953125 138 -91.75 c 0
 138.849609375 -90.9501953125 138.950195312 -91 139.700195312 -92.150390625 c 0
 141.75 -95.25 143 -107.349609375 143 -124.150390625 c 0
 143 -136.75 142.549804688 -140.599609375 140.150390625 -148.200195312 c 0
 136.799804688 -159 130.299804688 -166.5 124.299804688 -166.5 c 0
 123.849609375 -166.5 121.849609375 -166.849609375 119.950195312 -167.299804688 c 0
 114 -168.650390625 111.5 -171.700195312 111.5 -177.599609375 c 0
 111.549804688 -181.400390625 112.849609375 -184.849609375 116.25 -190.049804688 c 0
 119.599609375 -195.150390625 127.950195312 -203.349609375 131.799804688 -205.400390625 c 0
 134.700195312 -206.900390625 135.200195312 -207 140.150390625 -207 c 0
 146.099609375 -207 147.450195312 -206.599609375 152.599609375 -203.150390625 c 0
 159 -198.900390625 165.950195312 -189.650390625 172.700195312 -176.099609375 c 0
 179.150390625 -163.25 181.75 -156.049804688 195.75 -111.5 c 0
 205.200195312 -81.5 206.900390625 -76.2998046875 206.950195312 -77.349609375 c 0
 207 -77.7001953125 205.75 -86.7998046875 204.299804688 -97.599609375 c 0
 202.799804688 -108.400390625 200.099609375 -127.900390625 198.25 -140.900390625 c 0
 194.599609375 -167.450195312 193.650390625 -180.200195312 194.150390625 -197 c 0
 194.700195312 -215.150390625 197.849609375 -226.349609375 203 -228.5 c 0
 205.25 -229.450195312 208.200195312 -228.599609375 213.049804688 -225.650390625 c 0
 224.650390625 -218.700195312 241 -204.450195312 268.150390625 -177.549804688 c 0
 317.400390625 -128.799804688 372.799804688 -66.7998046875 437 11.5 c 0
 456.450195312 35.2001953125 464.650390625 44.7001953125 473 53.0498046875 c 0
 480.049804688 60.099609375 484.099609375 63.099609375 485.549804688 62.25 c 0
 486.450195312 61.650390625 485.650390625 58.849609375 482.400390625 51.2998046875 c 0
 477.700195312 40.25 476.599609375 37.400390625 475.25 32.150390625 c 0
 470.450195312 13.4501953125 471.200195312 -3.2001953125 477.5 -16.400390625 c 0
 481.700195312 -25.25 490.599609375 -36.2998046875 494.25 -37.2001953125 c 0
 495.900390625 -37.599609375 497.849609375 -36.5 498.5 -34.75 c 0
 498.75 -34.0498046875 499.400390625 -29.150390625 499.950195312 -23.849609375 c 0
 501.400390625 -9.849609375 503.849609375 1.5 509.299804688 19.0498046875 c 0
 521.5 58.4501953125 540.700195312 97.2998046875 549.650390625 100.650390625 c 0
 551 101.150390625 552.849609375 100.049804688 553.599609375 98.2998046875 c 0
 554.549804688 96 554.299804688 87.349609375 553 79.75 c 0
 542.299804688 16.150390625 472.5 -166.299804688 426.849609375 -250.099609375 c 0
 418.450195312 -265.549804688 414.150390625 -272.299804688 403.799804688 -286.5 c 0
 382.349609375 -316 356.900390625 -354.099609375 344.400390625 -375.5 c 0
 338.650390625 -385.400390625 311.5 -436.150390625 311.5 -437.099609375 c 0
 311.5 -437.799804688 673.849609375 -437.299804688 705.75 -436.549804688 c 0
 788.650390625 -434.599609375 828.150390625 -430.400390625 844.200195312 -421.849609375 c 0
 848.400390625 -419.599609375 852.099609375 -415.849609375 853.150390625 -412.799804688 c 0
 854.5 -408.900390625 854.099609375 -398.299804688 851.950195312 -378.25 c 0
 844.400390625 -307.599609375 811.200195312 -154.450195312 783.549804688 -63 c 0
 774.599609375 -33.2998046875 768.700195312 -17.25 759.799804688 1.400390625 c 0
 742.950195312 36.849609375 732.650390625 68.349609375 730.5 91.2998046875 c 0
 729.549804688 101.299804688 731.150390625 111.799804688 733.75 112.799804688 c 0
 734.150390625 112.950195312 735.049804688 112.950195312 735.75 112.799804688 c 0
 753.900390625 108.25 812.650390625 -61.400390625 842.450195312 -195.25 c 0
 848.5 -222.349609375 852.400390625 -243.549804688 858.049804688 -279 c 0
 869.799804688 -353.5 885.400390625 -418.549804688 895 -433.400390625 c 0
 897.799804688 -437.75 899 -438.200195312 903.950195312 -436.700195312 c 0
 907 -435.799804688 910.099609375 -433.200195312 911.549804688 -430.349609375 c 0
 913.900390625 -425.849609375 914.599609375 -421.349609375 914.849609375 -410 c 0
 915.299804688 -389.799804688 911.950195312 -362.200195312 902.200195312 -306.25 c 0
 883.75 -200.450195312 870.900390625 -143.5 852.599609375 -86.4501953125 c 0
 820 14.9501953125 774.099609375 97.650390625 709.5 171.25 c 0
 690.049804688 193.450195312 663.599609375 219.799804688 637.5 243 c 0
 577.799804688 296.099609375 539.299804688 323.049804688 513 330.049804688 c 0
 506.849609375 331.700195312 497 331.700195312 492.900390625 330.099609375 c 0
 485.400390625 327.099609375 480.549804688 322.150390625 476.150390625 313 c 0
 471.849609375 304 471.799804688 303.950195312 470.599609375 303.150390625 c 0
 467.950195312 301.349609375 464.700195312 304.75 460.549804688 313.599609375 c 0
 457.200195312 320.700195312 453.700195312 331.700195312 449.5 348.450195312 c 0
 442.150390625 377.75 437.200195312 391.349609375 429.700195312 402.900390625 c 0
 423.200195312 412.900390625 416.799804688 416.299804688 410.950195312 412.900390625 c 0
 408.200195312 411.25 407.049804688 410.049804688 404.799804688 406.299804688 c 0
 398.75 396.200195312 395.900390625 380.900390625 394.25 349.5 c 0
 393 325.599609375 391.950195312 316 389.700195312 308.950195312 c 0
 388.200195312 304.25 386.549804688 301.950195312 385.150390625 302.799804688 c 0
 384.650390625 303.099609375 383.099609375 305.549804688 381.650390625 308.25 c 0
 376.25 318.299804688 371.049804688 323.049804688 363.75 324.5 c 0
 360.849609375 325.099609375 360.549804688 325.049804688 355.349609375 323.299804688 c 0
 349.400390625 321.299804688 348.400390625 321.200195312 344.700195312 322.200195312 c 0
 335.349609375 324.700195312 322.049804688 335.25 310.950195312 349 c 0
 306.599609375 354.400390625 281.25 389.849609375 274.700195312 399.700195312 c 0
 271.950195312 403.799804688 271.849609375 404.150390625 272.700195312 404.75 c 0
 274.049804688 405.75 279.799804688 406.200195312 283.650390625 405.599609375 c 0
 287.299804688 405.049804688 292.950195312 402.599609375 296.849609375 399.950195312 c 0
 301.400390625 396.799804688 307.049804688 391.400390625 314.950195312 382.599609375 c 0
 326.200195312 370.099609375 331.299804688 365.349609375 338.549804688 360.849609375 c 0
 344.150390625 357.349609375 347.400390625 356.299804688 352.5 356.25 c 0
 356.150390625 356.25 357.150390625 356.450195312 359.599609375 357.650390625 c 0
 367.150390625 361.349609375 373.099609375 370.75 378.400390625 387.5 c 0
 379.5 390.950195312 381.549804688 397.400390625 382.950195312 401.849609375 c 0
 386.700195312 413.450195312 390.599609375 420.799804688 396.349609375 427 c 0
 399.599609375 430.5 403.599609375 433.349609375 407.099609375 434.599609375 c 0
311.950195312 194.849609375 m 0
 314.900390625 195.900390625 315.900390625 196 321.5 195.849609375 c 0
 327.099609375 195.700195312 328.150390625 195.5 331.799804688 194.099609375 c 0
 343.150390625 189.599609375 355.400390625 178.049804688 361.25 166.25 c 0
 364.849609375 159 365.950195312 151.799804688 364.25 146.200195312 c 0
 362.549804688 140.599609375 354.700195312 132.650390625 347.049804688 128.849609375 c 2
 342.849609375 126.75 l 1
 334.049804688 126.75 l 1
 325.25 126.75 l 1
 321.299804688 128.650390625 l 2
 311.700195312 133.200195312 304.799804688 140.25 299.5 150.900390625 c 0
 296.25 157.400390625 295.299804688 161.700195312 295.299804688 169.5 c 0
 295.299804688 175.400390625 295.450195312 176.650390625 296.5 179.25 c 0
 299.5 186.950195312 304.75 192.25 311.950195312 194.849609375 c 0
EndSplineSet
EndChar

StartChar: l
Encoding: 108 108 14
Width: 1000
Flags: H
LayerCount: 2
Fore
SplineSet
498.5 478.5 m 0
 508.549804688 479.25 525.700195312 478.599609375 532.25 477.25 c 0
 545.349609375 474.549804688 555.150390625 469.349609375 560.299804688 462.400390625 c 0
 563.25 458.349609375 564.349609375 455.099609375 565.200195312 447.650390625 c 0
 565.650390625 444.150390625 566.400390625 439.900390625 567 438.299804688 c 0
 569.799804688 430.150390625 575.849609375 423.650390625 584.349609375 419.700195312 c 0
 587.849609375 418.049804688 589.150390625 417.75 601.549804688 416.049804688 c 0
 608.950195312 415.049804688 614.799804688 411.75 619.200195312 406.150390625 c 0
 623.799804688 400.299804688 627.150390625 391.849609375 629.049804688 381.200195312 c 0
 630.5 373.299804688 630.599609375 358 629.349609375 349.599609375 c 0
 627.200195312 335.75 623.049804688 326.450195312 616.049804688 319.849609375 c 0
 610.799804688 314.900390625 607.200195312 313.599609375 594.700195312 312.049804688 c 0
 589.400390625 311.400390625 585.599609375 309.950195312 581.849609375 307.099609375 c 0
 574.549804688 301.549804688 569.799804688 292.799804688 566.950195312 279.5 c 0
 565.900390625 274.75 565.799804688 272.900390625 565.75 260.5 c 0
 565.75 245.450195312 566.400390625 239.299804688 568.799804688 232 c 0
 573.599609375 217.549804688 584.200195312 210.299804688 599.25 211.200195312 c 0
 616.150390625 212.25 636.450195312 219.900390625 673.299804688 239.150390625 c 0
 682.299804688 243.849609375 687 245.799804688 698.75 249.799804688 c 0
 725.849609375 259 757.75 265.5 792.200195312 268.75 c 0
 803.400390625 269.799804688 840.099609375 269.799804688 849.5 268.75 c 0
 865.049804688 267 881.400390625 263.549804688 893 259.599609375 c 0
 955.5 238.25 990.200195312 186.299804688 998.25 101.950195312 c 0
 999.400390625 89.650390625 1000.15039062 65.5 999.799804688 51.5 c 0
 998.549804688 2.75 989.700195312 -31.349609375 968.900390625 -67.5 c 0
 959.049804688 -84.599609375 950.099609375 -97.7001953125 926.700195312 -129.25 c 0
 904.950195312 -158.549804688 895.099609375 -173.799804688 885.049804688 -193.900390625 c 0
 874.049804688 -215.950195312 868.349609375 -234.900390625 866.450195312 -256.049804688 c 0
 865.950195312 -261.5 865.950195312 -266.049804688 866.549804688 -280.25 c 0
 866.950195312 -289.849609375 867.200195312 -300.799804688 867.099609375 -304.5 c 0
 866.349609375 -338.799804688 854.849609375 -366.200195312 830.75 -390.950195312 c 0
 822.400390625 -399.549804688 816.299804688 -404.700195312 808.299804688 -410.099609375 c 0
 786.799804688 -424.5 761.400390625 -430.5 706.25 -434.25 c 0
 669.900390625 -436.700195312 633.950195312 -437.150390625 490 -436.849609375 c 0
 411.799804688 -436.700195312 361.549804688 -436.450195312 353.5 -436.099609375 c 0
 301.349609375 -433.849609375 279.849609375 -431.900390625 258.049804688 -427.5 c 0
 229.900390625 -421.799804688 212.650390625 -412.549804688 191.950195312 -392 c 0
 172.549804688 -372.700195312 161.5 -351.900390625 156.349609375 -325 c 0
 155.349609375 -319.700195312 155.299804688 -317.700195312 155.299804688 -300.5 c 0
 155.299804688 -290.200195312 155.349609375 -276.450195312 155.450195312 -270 c 0
 155.700195312 -254.5 154.799804688 -246.299804688 151.25 -232 c 0
 145.25 -207.700195312 131.650390625 -180.700195312 109.349609375 -148.75 c 0
 106.849609375 -145.150390625 99.849609375 -135.599609375 93.7998046875 -127.5 c 0
 67.5498046875 -92.25 56.650390625 -75.7998046875 47 -56.75 c 0
 28.5498046875 -20.2998046875 22 11.0498046875 22 63 c 0
 22 108.700195312 27.349609375 142.200195312 39.599609375 173.349609375 c 0
 59.150390625 223.099609375 96.0498046875 253.900390625 149.799804688 265.200195312 c 0
 168 269.049804688 185.900390625 270.200195312 213.799804688 269.450195312 c 0
 252.25 268.400390625 301.650390625 258.75 333.75 246 c 0
 335.950195312 245.150390625 347.099609375 239.75 358.5 234.099609375 c 0
 386.150390625 220.25 400.549804688 214.599609375 414.25 212.150390625 c 0
 419.799804688 211.150390625 429.299804688 211.049804688 433 211.950195312 c 0
 444.400390625 214.700195312 451.450195312 223.650390625 454.75 239.5 c 0
 456.75 249.049804688 456.599609375 270.900390625 454.450195312 280.799804688 c 0
 451.900390625 292.599609375 446.900390625 301.900390625 440.400390625 306.849609375 c 0
 435.400390625 310.650390625 432 311.849609375 424.099609375 312.5 c 0
 417.5 313.049804688 413.5 314.200195312 409.75 316.700195312 c 0
 396.849609375 325.25 390.75 342.900390625 391.650390625 369 c 0
 392.25 386.150390625 396.349609375 399.349609375 403.650390625 407.299804688 c 0
 409.049804688 413.200195312 413.75 415.450195312 422.75 416.5 c 0
 435.650390625 417.950195312 440.5 419.950195312 447.049804688 426.5 c 0
 453.299804688 432.700195312 455.25 437.099609375 456.5 447.75 c 0
 457.599609375 456.849609375 459.650390625 461.25 465.25 466.400390625 c 0
 472.200195312 472.75 485.349609375 477.549804688 498.5 478.5 c 0
257.5 124.5 m 0
 247.650390625 125.25 242.950195312 124.950195312 234.049804688 123.049804688 c 0
 204.75 116.75 177.200195312 96.7001953125 157.75 67.5 c 0
 143.5 46.150390625 134.75 22.2998046875 131.450195312 -3.75 c 0
 130.5 -11.349609375 130.599609375 -27.7001953125 131.700195312 -33.5 c 0
 138.049804688 -68.5 161.950195312 -121 195.099609375 -172.849609375 c 0
 199.25 -179.400390625 204.5 -187.799804688 206.75 -191.5 c 0
 227.349609375 -225.400390625 241.5 -258.700195312 241.5 -272.950195312 c 0
 241.5 -277.25 240.700195312 -278.849609375 236.099609375 -283.700195312 c 0
 232.75 -287.200195312 231.25 -289.25 229.650390625 -292.5 c 0
 227.049804688 -297.849609375 225 -304.099609375 223.299804688 -311.599609375 c 0
 220.599609375 -323.549804688 220.349609375 -326.549804688 220.299804688 -344.25 c 0
 220.299804688 -369.700195312 222.299804688 -386.75 225.150390625 -385.900390625 c 0
 226.5 -385.5 229.150390625 -378.599609375 232.5 -367 c 0
 237.75 -348.849609375 241.549804688 -338.799804688 248.599609375 -324.75 c 0
 257.450195312 -307.150390625 265.200195312 -296.400390625 272 -292.25 c 0
 292.75 -279.650390625 351.599609375 -273 455.599609375 -271.5 c 0
 518.650390625 -270.599609375 592.349609375 -271 626.75 -272.5 c 0
 687.700195312 -275.150390625 718.200195312 -280.200195312 741.25 -291.450195312 c 0
 749.349609375 -295.400390625 755.099609375 -299.450195312 760.75 -305.200195312 c 0
 773.049804688 -317.599609375 778.650390625 -329.400390625 788.200195312 -363 c 0
 793.599609375 -382.150390625 795.049804688 -386 796.700195312 -386 c 0
 799.400390625 -386 801.650390625 -367.049804688 801.650390625 -344 c 0
 801.700195312 -326.450195312 800 -314.599609375 795.75 -301.700195312 c 0
 793.049804688 -293.549804688 790.75 -289.349609375 786.299804688 -284.549804688 c 0
 780.650390625 -278.400390625 780.5 -278.049804688 780.5 -272.849609375 c 0
 780.5 -267.25 781.450195312 -262.599609375 784.5 -253.5 c 0
 787.900390625 -243.299804688 791.25 -235.549804688 798.25 -221.75 c 0
 806.849609375 -204.799804688 813.400390625 -193.599609375 829.099609375 -169 c 0
 842 -148.75 849.400390625 -135.650390625 860 -114.25 c 0
 870.900390625 -92.2001953125 877.599609375 -76.25 883.400390625 -58.4501953125 c 0
 889.150390625 -40.900390625 890.549804688 -34 890.849609375 -22.25 c 0
 891.799804688 12.7001953125 878.900390625 49.849609375 855.900390625 78.599609375 c 0
 850.849609375 84.900390625 840.200195312 95.650390625 834.5 100.200195312 c 0
 826.299804688 106.700195312 816.549804688 112.75 808.150390625 116.450195312 c 0
 790.599609375 124.150390625 772.849609375 126.599609375 757.049804688 123.5 c 0
 734.549804688 119.150390625 704.549804688 102.299804688 672.75 76.25 c 0
 641.5 50.650390625 607.75 14.75 582.5 -19.75 c 0
 575.549804688 -29.2998046875 563.049804688 -48.150390625 557.700195312 -57.25 c 0
 551.200195312 -68.400390625 542.200195312 -86.5498046875 538.150390625 -96.75 c 0
 532.5 -111 531.599609375 -114.599609375 521.75 -163.5 c 0
 518.299804688 -180.700195312 515.299804688 -195.299804688 515.099609375 -195.950195312 c 0
 514.799804688 -196.849609375 513.650390625 -193.799804688 510.049804688 -182.200195312 c 0
 485.25 -102.599609375 485.200195312 -102.400390625 474.75 -81.25 c 0
 452.900390625 -37 418.650390625 9.0498046875 376.950195312 50.2998046875 c 0
 354.349609375 72.599609375 332.849609375 90.150390625 312.75 102.650390625 c 0
 290.400390625 116.549804688 273.349609375 123.299804688 257.5 124.5 c 0
241.599609375 100.450195312 m 0
 246 101 254.950195312 100.650390625 259.849609375 99.75 c 0
 267.25 98.349609375 278.200195312 93.9501953125 287.5 88.599609375 c 0
 298.799804688 82.099609375 315.599609375 69.2998046875 330.75 55.5498046875 c 0
 339.799804688 47.349609375 373.900390625 13.2001953125 384.25 1.9501953125 c 0
 441.599609375 -60.2998046875 462.599609375 -99.75 484.950195312 -187.5 c 0
 491.650390625 -213.950195312 492.200195312 -216.650390625 492.200195312 -225.75 c 0
 492.25 -233.549804688 492.200195312 -233.799804688 490.900390625 -236 c 0
 485.650390625 -244.900390625 475.950195312 -247.900390625 449 -249 c 0
 414.200195312 -250.349609375 345.25 -249.950195312 329.75 -248.25 c 0
 301.75 -245.25 286.299804688 -238.799804688 270.349609375 -223.5 c 0
 257.650390625 -211.400390625 248.950195312 -199.900390625 223.25 -161.5 c 0
 176.099609375 -91.099609375 159.099609375 -56.900390625 155.450195312 -25.5 c 0
 154.099609375 -13.4501953125 156.200195312 2.2998046875 160.75 14 c 0
 170.650390625 39.5498046875 196.200195312 74.7001953125 214.799804688 88.599609375 c 0
 223.349609375 94.9501953125 233.599609375 99.5 241.599609375 100.450195312 c 0
768 100.700195312 m 0
 770.200195312 101.099609375 780.150390625 100.450195312 783.650390625 99.7001953125 c 0
 800.400390625 96.2001953125 816.650390625 83.2001953125 835 58.75 c 0
 848.099609375 41.2001953125 857.900390625 23.599609375 862.400390625 9.4501953125 c 0
 865.599609375 -0.599609375 866.200195312 -4.650390625 866.25 -16.75 c 0
 866.25 -26.2001953125 866.099609375 -28.5498046875 865.099609375 -33.5 c 0
 860.75 -55.599609375 850.549804688 -78.349609375 829.349609375 -113.5 c 0
 813.700195312 -139.400390625 786.049804688 -180.950195312 771.950195312 -199.75 c 0
 752.200195312 -226.099609375 737.5 -237.849609375 717 -243.75 c 0
 698.549804688 -249.049804688 676.200195312 -250.349609375 613.549804688 -249.799804688 c 0
 575.049804688 -249.450195312 564.299804688 -249.049804688 555 -247.700195312 c 0
 532.25 -244.349609375 526.5 -237.25 530 -216.799804688 c 0
 531.700195312 -206.900390625 537.349609375 -184.299804688 543.549804688 -162.5 c 0
 564.450195312 -89.5 586.450195312 -52.0498046875 645 10 c 0
 668.150390625 34.5 693.400390625 58.5 710.099609375 71.7998046875 c 0
 729.700195312 87.400390625 749.099609375 97.7001953125 763.25 99.9501953125 c 0
 765.200195312 100.25 767.299804688 100.599609375 768 100.700195312 c 0
EndSplineSet
EndChar

StartChar: m
Encoding: 109 109 15
Width: 1000
Flags: H
LayerCount: 2
Fore
SplineSet
407.099609375 434.599609375 m 0
 409.25 435.349609375 410.799804688 435.5 415 435.349609375 c 0
 419.5 435.200195312 420.799804688 434.950195312 423.849609375 433.650390625 c 0
 435.150390625 428.849609375 444.75 418.75 456.150390625 399.599609375 c 0
 462.950195312 388.200195312 466.150390625 383.900390625 472.849609375 377.5 c 0
 480.700195312 369.900390625 490.75 363.049804688 499.25 359.549804688 c 0
 506.75 356.400390625 511.049804688 355.5 527.25 353.5 c 0
 535.549804688 352.5 541.799804688 350.349609375 553.5 344.5 c 0
 580.25 331.200195312 618.700195312 302.200195312 653.75 269 c 0
 691.099609375 233.599609375 716.299804688 207.150390625 743.549804688 174.75 c 0
 786.700195312 123.400390625 816.450195312 78.900390625 834 39.2001953125 c 0
 862.400390625 -24.7998046875 894.450195312 -135.849609375 916.5 -246.5 c 0
 925.25 -290.150390625 930.150390625 -321.049804688 934.200195312 -357.5 c 0
 936.700195312 -379.75 936.950195312 -385.5 937.349609375 -424.099609375 c 2
 937.650390625 -458.5 l 1
 822.700195312 -458.5 l 2
 674.599609375 -458.450195312 477.5 -457.700195312 449 -457 c 0
 360.849609375 -454.950195312 318 -450.5 300.900390625 -441.650390625 c 0
 292.549804688 -437.299804688 290.349609375 -432 293 -422.5 c 0
 297.799804688 -405.349609375 318.5 -366.049804688 343.650390625 -326.5 c 0
 347.25 -320.849609375 358.450195312 -303.849609375 368.599609375 -288.650390625 c 0
 378.700195312 -273.450195312 388.849609375 -258.150390625 391.049804688 -254.650390625 c 0
 430.599609375 -192.650390625 457.950195312 -137.150390625 467.950195312 -98.4501953125 c 0
 470.950195312 -87.0498046875 471.650390625 -82 471.700195312 -72.25 c 0
 471.75 -64.5 471.650390625 -63.4501953125 470.549804688 -60.2998046875 c 0
 468.349609375 -53.849609375 463.099609375 -50 456.599609375 -50 c 0
 445.900390625 -50 427.700195312 -60 407.299804688 -77.0498046875 c 0
 392.349609375 -89.5498046875 374.5 -107.299804688 350.75 -133.25 c 0
 319.400390625 -167.549804688 294.5 -191.650390625 272.25 -209.299804688 c 0
 233.849609375 -239.700195312 200.349609375 -254.200195312 171.5 -252.849609375 c 0
 149.549804688 -251.799804688 131.400390625 -243.25 113.5 -225.5 c 0
 96.7998046875 -208.950195312 80.099609375 -183.349609375 72.25 -162.25 c 0
 61.7001953125 -133.900390625 62.150390625 -108.150390625 73.650390625 -79.4501953125 c 0
 81.400390625 -60.2001953125 91.099609375 -43.5 109.5 -17.75 c 0
 121.799804688 -0.5498046875 126.650390625 7.099609375 136.099609375 24 c 0
 179.700195312 102.150390625 230.150390625 235.25 245.450195312 312.5 c 0
 247.75 324.049804688 248.900390625 332.299804688 249.450195312 341.5 c 0
 249.75 346.049804688 250.200195312 353.5 250.5 358.099609375 c 0
 251.349609375 372.25 253.25 380.599609375 257.75 389.75 c 0
 263.349609375 401.299804688 271.25 406.599609375 281.549804688 405.849609375 c 0
 291.700195312 405.049804688 299.75 399.450195312 315.099609375 382.349609375 c 0
 324.650390625 371.75 332 365 338.150390625 361.099609375 c 0
 344.099609375 357.400390625 347.299804688 356.299804688 352.5 356.25 c 0
 356.150390625 356.25 357.150390625 356.450195312 359.599609375 357.650390625 c 0
 367.150390625 361.349609375 373.099609375 370.75 378.400390625 387.5 c 0
 379.5 390.950195312 381.549804688 397.400390625 382.950195312 401.849609375 c 0
 386.700195312 413.450195312 390.599609375 420.799804688 396.349609375 427 c 0
 399.599609375 430.5 403.599609375 433.349609375 407.099609375 434.599609375 c 0
328.450195312 195.200195312 m 0
 321.299804688 197.049804688 315.299804688 196.5 309.25 193.549804688 c 0
 304.099609375 191 300.200195312 187.049804688 297.75 181.900390625 c 0
 295.450195312 177.099609375 294.799804688 173.400390625 295.150390625 167.25 c 0
 295.5 161.299804688 296.900390625 156.150390625 299.5 150.950195312 c 0
 304.700195312 140.5 311.700195312 133.25 320.799804688 128.900390625 c 2
 325.25 126.75 l 1
 333.349609375 126.599609375 l 2
 341 126.450195312 341.599609375 126.5 344.5 127.650390625 c 0
 349.599609375 129.75 353.049804688 132.049804688 357.25 136.25 c 0
 362.599609375 141.599609375 364.599609375 145.349609375 364.900390625 150.549804688 c 0
 365.450195312 160.349609375 360.099609375 171.450195312 349.799804688 181.75 c 0
 343.099609375 188.450195312 335.200195312 193.450195312 328.450195312 195.200195312 c 0
736.299804688 113.549804688 m 0
 734.349609375 114.75 733.849609375 114.75 732.799804688 113.549804688 c 0
 731.049804688 111.599609375 730.549804688 109 730.5 101.5 c 0
 730.5 93.400390625 731.200195312 88.25 733.75 77.650390625 c 0
 740.099609375 51.349609375 750 22.4501953125 766.25 -16.9501953125 c 0
 774.950195312 -38.099609375 777.299804688 -44.349609375 782.75 -60.75 c 0
 796.400390625 -101.849609375 810.450195312 -155.150390625 821.700195312 -208.75 c 0
 826.650390625 -232.299804688 828.900390625 -244.5 835.700195312 -284.5 c 0
 839.150390625 -304.700195312 843.200195312 -327.849609375 844.75 -335.900390625 c 0
 854.700195312 -388.450195312 864.5 -425.599609375 869.099609375 -428.049804688 c 0
 871.450195312 -429.299804688 872 -426 872 -410.25 c 0
 872 -389.849609375 870.099609375 -367.25 865 -326.5 c 0
 856.5 -258.700195312 848.700195312 -216.349609375 834 -158.25 c 0
 802.799804688 -35.099609375 753.049804688 103.349609375 736.299804688 113.549804688 c 0
552.450195312 100.049804688 m 0
 549.450195312 103.049804688 544.099609375 98.900390625 538.049804688 88.75 c 0
 525.650390625 67.9501953125 511.75 28.7001953125 505.200195312 -3.75 c 0
 502.599609375 -16.900390625 502 -22.0498046875 502 -33.099609375 c 0
 502 -42.349609375 502.049804688 -43.0498046875 503 -44 c 0
 504.25 -45.25 504.349609375 -45.25 506.349609375 -44.0498046875 c 0
 515.599609375 -38.400390625 537.950195312 16.5498046875 548.75 60.25 c 0
 552.200195312 74.25 553.5 81.7001953125 553.849609375 89.2998046875 c 0
 554.150390625 96.25 553.849609375 98.650390625 552.450195312 100.049804688 c 0
492.200195312 82.7001953125 m 0
 491.799804688 83.150390625 491.299804688 83.5 491.099609375 83.5 c 0
 488.650390625 83.349609375 481.950195312 77.2001953125 476.400390625 70 c 0
 457.349609375 45.25 439.25 4.349609375 445.599609375 0.2998046875 c 0
 449.450195312 -2.099609375 463.75 14.7998046875 476 36.2001953125 c 0
 480.25 43.599609375 487 57.650390625 489.25 63.75 c 0
 492.849609375 73.5 494 80.900390625 492.200195312 82.7001953125 c 0
139.950195312 -92.7998046875 m 0
 139.400390625 -92.099609375 138.75 -91.5 138.549804688 -91.5 c 0
 137.400390625 -91.5 135.200195312 -94.5498046875 133.049804688 -99.099609375 c 0
 131.700195312 -101.950195312 129.25 -107.049804688 127.650390625 -110.5 c 0
 120.400390625 -125.75 109.099609375 -140.150390625 96.599609375 -150.150390625 c 0
 91.150390625 -154.5 88 -157.849609375 88 -159.299804688 c 0
 88 -161.700195312 90.2998046875 -163.599609375 94.7001953125 -164.849609375 c 0
 98.7001953125 -166 114.799804688 -166.299804688 119.400390625 -165.299804688 c 0
 130.799804688 -162.900390625 138.049804688 -155.650390625 142.099609375 -142.650390625 c 0
 143.049804688 -139.599609375 143.200195312 -137.75 143.400390625 -124.5 c 0
 143.650390625 -104.799804688 142.75 -96.349609375 139.950195312 -92.7998046875 c 0
205.25 -96.650390625 m 0
 202.849609375 -93 198.200195312 -97.9501953125 192 -110.75 c 0
 180.900390625 -133.799804688 168 -175.700195312 164.25 -200.75 c 0
 163.25 -207.450195312 163.25 -222.900390625 164.200195312 -225.200195312 c 0
 166.599609375 -230.950195312 170.900390625 -230.049804688 176.400390625 -222.700195312 c 0
 185.150390625 -211 193.349609375 -188.150390625 199.700195312 -157.75 c 0
 206.400390625 -125.700195312 208.549804688 -101.75 205.25 -96.650390625 c 0
EndSplineSet
EndChar

StartChar: o
Encoding: 111 111 16
Width: 1000
Flags: H
LayerCount: 2
Fore
SplineSet
490.599609375 351.5 m 0
 494.849609375 352.099609375 507.900390625 351.650390625 513.150390625 350.75 c 0
 533.299804688 347.25 555.799804688 332.099609375 577.049804688 307.75 c 0
 590.299804688 292.5 597.349609375 281.349609375 599.799804688 271.75 c 0
 601.049804688 266.700195312 600.950195312 259.400390625 599.549804688 253.849609375 c 0
 597.599609375 246.299804688 595.700195312 242.25 587.099609375 227.5 c 0
 578.25 212.299804688 575.299804688 205.150390625 575.25 199 c 0
 575.25 195.75 575.450195312 194.900390625 576.75 192.549804688 c 0
 579.900390625 186.849609375 586.049804688 183.299804688 602.25 177.650390625 c 0
 619.299804688 171.75 643.200195312 156.400390625 663.450195312 138.349609375 c 0
 669.5 132.950195312 680.099609375 121.950195312 690.650390625 110.049804688 c 0
 704.299804688 94.7001953125 705.950195312 89.4501953125 699.049804688 83.4501953125 c 0
 692.950195312 78.099609375 682.450195312 74.099609375 634.25 58.75 c 0
 621.599609375 54.7001953125 609.650390625 50.75 607.650390625 49.900390625 c 0
 596.799804688 45.4501953125 594.25 39.150390625 598.700195312 28.2001953125 c 0
 603.349609375 16.849609375 612.799804688 4.099609375 641.450195312 -29.4501953125 c 0
 657.599609375 -48.349609375 664.900390625 -57.75 673.75 -71 c 0
 691.5 -97.7001953125 701.25 -120.349609375 704.799804688 -143.5 c 0
 706.150390625 -152.200195312 706.049804688 -166.799804688 704.549804688 -175.099609375 c 0
 702.150390625 -188.950195312 697.400390625 -200.849609375 689.650390625 -212.75 c 0
 682.900390625 -223.049804688 678.25 -228.25 660.299804688 -245.450195312 c 0
 653.25 -252.150390625 646 -259.400390625 644.150390625 -261.599609375 c 0
 637.700195312 -269.099609375 635.150390625 -275.75 636.5 -281.549804688 c 0
 638.799804688 -291.150390625 645.150390625 -299.549804688 671.25 -327.25 c 0
 675.700195312 -331.900390625 681.549804688 -338.25 684.349609375 -341.349609375 c 0
 710.200195312 -370 725.900390625 -401.75 720.200195312 -413.799804688 c 0
 717.25 -420 702.799804688 -424.700195312 674.25 -428.700195312 c 0
 653.400390625 -431.650390625 624.700195312 -433.950195312 584.5 -436 c 0
 558.400390625 -437.349609375 483.200195312 -437.900390625 448.75 -437 c 0
 358.400390625 -434.700195312 297.650390625 -427.549804688 283.299804688 -417.599609375 c 0
 280.599609375 -415.700195312 279.599609375 -414.200195312 278.900390625 -410.900390625 c 0
 276.849609375 -401.099609375 285.099609375 -381.400390625 299.849609375 -360.849609375 c 0
 307.400390625 -350.349609375 311.900390625 -345.099609375 327.75 -328.25 c 0
 346.75 -308.099609375 353.450195312 -300.400390625 357.900390625 -293.599609375 c 0
 362.75 -286.200195312 364.5 -280.400390625 363.5 -275.299804688 c 0
 362.049804688 -267.950195312 357.5 -262.299804688 338.150390625 -243.849609375 c 0
 321.75 -228.25 317.299804688 -223.349609375 310.700195312 -213.25 c 0
 302.549804688 -200.799804688 297.849609375 -189.049804688 295.200195312 -174.25 c 0
 293.849609375 -166.700195312 293.950195312 -150.950195312 295.400390625 -142.299804688 c 0
 298.599609375 -123.700195312 305.200195312 -106.099609375 316.450195312 -86.5498046875 c 0
 326.599609375 -68.7998046875 337 -54.650390625 357 -31.25 c 0
 387 3.7998046875 396.599609375 16.7001953125 401.349609375 28.2998046875 c 0
 404.549804688 36.2001953125 404.150390625 40.900390625 399.799804688 45.2998046875 c 0
 398.400390625 46.650390625 396 48.400390625 394.5 49.099609375 c 0
 393 49.7998046875 377.349609375 55.0498046875 359.75 60.7001953125 c 0
 324.400390625 72.0498046875 316.849609375 74.75 308.75 78.7001953125 c 0
 295.650390625 85.099609375 293.950195312 90.4501953125 301.650390625 100.849609375 c 0
 306.849609375 107.799804688 325.950195312 128.549804688 334.200195312 136.150390625 c 0
 356.799804688 156.950195312 378.599609375 170.75 402.25 179.299804688 c 0
 417.650390625 184.799804688 423.75 189.75 424.799804688 197.5 c 0
 425.549804688 203.25 421.900390625 212.049804688 411.049804688 230.75 c 0
 402.099609375 246.099609375 399.349609375 253.700195312 399.299804688 263 c 0
 399.299804688 269.5 400.25 273.5 403.5 280.299804688 c 0
 407.599609375 289.049804688 414.799804688 298.799804688 426.900390625 312.150390625 c 0
 447.25 334.650390625 469.799804688 348.549804688 490.599609375 351.5 c 0
509.75 205 m 0
 500.200195312 206.049804688 488.549804688 205.349609375 480.650390625 203.25 c 0
 472.450195312 201.099609375 467.400390625 198.25 468.150390625 196.299804688 c 0
 468.650390625 195 471.5 193.599609375 475.25 192.75 c 0
 482.75 191 510.700195312 190.599609375 521 192.049804688 c 0
 525.650390625 192.75 530.700195312 194.25 531.5 195.25 c 0
 534.25 198.549804688 523.25 203.5 509.75 205 c 0
509 80.5 m 0
 490.200195312 81 490.150390625 81 481.5 80.4501953125 c 0
 464.150390625 79.2998046875 446.650390625 76.4501953125 443.25 74.2001953125 c 0
 442.150390625 73.5 442.049804688 73.25 442.599609375 72.7001953125 c 0
 445.400390625 69.900390625 465.849609375 68.400390625 501 68.4501953125 c 0
 535.349609375 68.4501953125 553.299804688 69.7998046875 557.200195312 72.650390625 c 0
 558.049804688 73.2998046875 558.049804688 73.349609375 556.849609375 74.150390625 c 0
 555.25 75.2001953125 549.650390625 76.7001953125 543.75 77.7001953125 c 0
 534.299804688 79.2998046875 525.200195312 80.0498046875 509 80.5 c 0
525 -253 m 0
 513.299804688 -252.450195312 485.849609375 -252.450195312 473.200195312 -253.049804688 c 0
 459.099609375 -253.700195312 442.400390625 -255.650390625 434.75 -257.5 c 0
 428 -259.200195312 428.049804688 -260.549804688 434.849609375 -261.75 c 0
 459.700195312 -266.049804688 562.599609375 -265.099609375 570 -260.5 c 0
 574.049804688 -258 551.900390625 -254.299804688 525 -253 c 0
EndSplineSet
EndChar

StartChar: p
Encoding: 112 112 17
Width: 1000
Flags: H
LayerCount: 2
Fore
SplineSet
492.5 351.700195312 m 0
 494.900390625 352.150390625 509 351.5 513.150390625 350.75 c 0
 533.25 347.25 555.900390625 332 577.049804688 307.75 c 0
 598.599609375 283 604.049804688 269.200195312 599.049804688 251.950195312 c 0
 597.099609375 245.299804688 595.150390625 241.25 587.099609375 227.5 c 0
 578.25 212.299804688 575.25 205.150390625 575.25 199 c 0
 575.25 194.900390625 576.200195312 192.549804688 579 189.299804688 c 0
 582 185.900390625 589.049804688 182.349609375 601.25 178 c 0
 623.400390625 170.099609375 649.75 152.299804688 671.5 130.5 c 0
 680 122 694.25 106.349609375 697.700195312 101.799804688 c 0
 704.049804688 93.400390625 704.549804688 88.5498046875 699.599609375 83.900390625 c 0
 693.700195312 78.400390625 683.549804688 74.400390625 639.75 60.5 c 0
 604.849609375 49.4501953125 602.950195312 48.650390625 599.299804688 44.400390625 c 0
 595.900390625 40.4501953125 595.75 35.5 598.700195312 28.150390625 c 0
 603.349609375 16.849609375 612.799804688 4.0498046875 641.450195312 -29.4501953125 c 0
 657.599609375 -48.349609375 664.900390625 -57.75 673.75 -71 c 0
 691.5 -97.7001953125 701.25 -120.349609375 704.799804688 -143.5 c 0
 706.150390625 -152.200195312 706.049804688 -166.799804688 704.549804688 -175.099609375 c 0
 702.099609375 -189.200195312 697.400390625 -200.950195312 689.299804688 -213.25 c 0
 682.650390625 -223.349609375 678.349609375 -228.150390625 661.650390625 -244.099609375 c 0
 642.400390625 -262.400390625 638 -267.849609375 636.5 -275.200195312 c 0
 635.5 -280 637.099609375 -285.599609375 641.349609375 -292.349609375 c 0
 645.849609375 -299.549804688 651.150390625 -305.799804688 668.75 -324.5 c 0
 674.299804688 -330.400390625 681.25 -337.900390625 684.150390625 -341.150390625 c 0
 710.25 -370.099609375 725.950195312 -401.700195312 720.200195312 -413.799804688 c 0
 717.25 -420 702.799804688 -424.700195312 674.25 -428.700195312 c 0
 653.400390625 -431.650390625 624.700195312 -433.950195312 584.5 -436 c 0
 558.400390625 -437.349609375 483.200195312 -437.900390625 448.75 -437 c 0
 358.400390625 -434.700195312 297.650390625 -427.549804688 283.299804688 -417.599609375 c 0
 280.599609375 -415.700195312 279.599609375 -414.200195312 278.900390625 -410.900390625 c 0
 276.150390625 -397.75 291.950195312 -367.549804688 314.950195312 -342.049804688 c 0
 317.049804688 -339.700195312 322.799804688 -333.5 327.75 -328.25 c 0
 346.75 -308.099609375 353.450195312 -300.400390625 357.900390625 -293.599609375 c 0
 362.75 -286.200195312 364.5 -280.400390625 363.5 -275.299804688 c 0
 362.049804688 -267.950195312 357.700195312 -262.549804688 338.349609375 -244.099609375 c 0
 321.650390625 -228.150390625 317.349609375 -223.349609375 310.700195312 -213.25 c 0
 302.549804688 -200.799804688 297.849609375 -189.049804688 295.200195312 -174.25 c 0
 293.849609375 -166.700195312 293.950195312 -150.950195312 295.400390625 -142.299804688 c 0
 298.599609375 -123.700195312 305.200195312 -106.099609375 316.450195312 -86.5498046875 c 0
 326.599609375 -68.7998046875 337 -54.650390625 357 -31.25 c 0
 387 3.7998046875 396.599609375 16.7001953125 401.349609375 28.2998046875 c 0
 404.549804688 36.2001953125 404.150390625 40.900390625 399.799804688 45.2998046875 c 0
 398.400390625 46.650390625 396 48.400390625 394.5 49.099609375 c 0
 393 49.7998046875 379.150390625 54.4501953125 363.75 59.4501953125 c 0
 320.299804688 73.4501953125 312.299804688 76.2998046875 305.549804688 80.25 c 0
 293.799804688 87.150390625 294.099609375 92.599609375 307 107.5 c 0
 314.900390625 116.650390625 330.099609375 132.5 336.25 138.049804688 c 0
 357.549804688 157.25 379.75 171.150390625 401.5 179 c 0
 417.700195312 184.849609375 423.75 189.650390625 424.799804688 197.5 c 0
 425.549804688 203.25 421.900390625 212.049804688 411.049804688 230.75 c 0
 402.099609375 246.099609375 399.349609375 253.700195312 399.299804688 263 c 0
 399.299804688 269.5 400.25 273.5 403.5 280.299804688 c 0
 407.650390625 289.099609375 414.849609375 298.849609375 426.849609375 312.049804688 c 0
 443.799804688 330.700195312 460.849609375 342.75 478.25 348.450195312 c 0
 481.549804688 349.5 485.849609375 350.650390625 487.75 350.950195312 c 0
 489.700195312 351.25 491.799804688 351.599609375 492.5 351.700195312 c 0
503.599609375 328.799804688 m 0
 498.900390625 329.599609375 498.450195312 329.599609375 495.049804688 328.700195312 c 0
 488.450195312 326.950195312 480.599609375 321.599609375 466.400390625 309.200195312 c 0
 450.700195312 295.450195312 440.299804688 284.450195312 435.200195312 276.099609375 c 0
 431.650390625 270.299804688 430.400390625 266.450195312 430.099609375 260.75 c 0
 429.900390625 256.150390625 430 255.349609375 431.349609375 251.400390625 c 0
 435.75 238.599609375 447.700195312 226.650390625 464.349609375 218.299804688 c 0
 487.700195312 206.650390625 506.049804688 205.650390625 528.700195312 214.950195312 c 0
 552.25 224.599609375 570 243.650390625 570 259.25 c 0
 570 264.200195312 569.349609375 266.799804688 566.75 272.25 c 0
 562.900390625 280.25 554.849609375 289.900390625 542.5 301.200195312 c 0
 521.299804688 320.650390625 511.900390625 327.299804688 503.599609375 328.799804688 c 0
511.25 178 m 0
 487.549804688 179.700195312 463.400390625 176.299804688 441.5 168.150390625 c 0
 434.849609375 165.700195312 420.400390625 158.849609375 409.75 153.150390625 c 0
 372.549804688 133.299804688 346.400390625 111.5 346.299804688 100.25 c 0
 346.25 96.400390625 348.400390625 94.150390625 354.400390625 91.7001953125 c 0
 362.200195312 88.5498046875 372.549804688 87 399.75 84.9501953125 c 0
 410.299804688 84.099609375 567.200195312 83.75 586.650390625 84.4501953125 c 0
 610.400390625 85.349609375 628.150390625 87.099609375 638.400390625 89.5 c 0
 658.299804688 94.150390625 658.75 101.5 640.349609375 120.049804688 c 0
 630.799804688 129.700195312 624.799804688 135 617.650390625 140.099609375 c 0
 586.549804688 162.299804688 550.5 175.150390625 511.25 178 c 0
509.200195312 59.599609375 m 0
 505.549804688 61.349609375 504.349609375 61.7001953125 501.099609375 61.849609375 c 0
 496.75 62.0498046875 494.200195312 61.2998046875 488.599609375 58.2001953125 c 0
 450.200195312 37.2001953125 352.299804688 -72 322 -127.549804688 c 0
 316.049804688 -138.400390625 312.5 -147.700195312 312.5 -152.25 c 0
 312.5 -154.799804688 314.299804688 -161.200195312 316.549804688 -166.400390625 c 0
 324.049804688 -184 342.099609375 -208.5 355.5 -219.25 c 0
 374.650390625 -234.599609375 414.799804688 -246 465 -250.25 c 0
 477.349609375 -251.299804688 523.799804688 -251.299804688 536 -250.25 c 0
 560.549804688 -248.099609375 585.400390625 -243.849609375 602.599609375 -238.75 c 0
 623.799804688 -232.450195312 638.849609375 -224.75 650.75 -214.099609375 c 0
 665.150390625 -201.25 681 -178.900390625 685.700195312 -164.900390625 c 0
 687.650390625 -159.200195312 687.549804688 -152.549804688 685.5 -146.299804688 c 0
 674.75 -113.950195312 616.200195312 -37.25 559.950195312 18.25 c 0
 536.849609375 41 520.950195312 53.9501953125 509.200195312 59.599609375 c 0
526.5 -272.25 m 0
 520.450195312 -271.5 491.650390625 -270.849609375 484 -271.299804688 c 0
 463 -272.549804688 443.349609375 -277.299804688 426 -285.349609375 c 0
 414.700195312 -290.599609375 398.049804688 -301.799804688 386.75 -311.75 c 0
 371.650390625 -325.049804688 346.099609375 -352.900390625 330.25 -373.25 c 0
 321.549804688 -384.400390625 312.5 -398.849609375 312.5 -401.549804688 c 0
 312.5 -407.549804688 349.450195312 -412.400390625 414.5 -415 c 0
 467.25 -417.099609375 544.299804688 -416.849609375 597 -414.5 c 0
 652.150390625 -412 686 -407.400390625 687.299804688 -402.200195312 c 0
 688.150390625 -398.799804688 677.150390625 -382 661.75 -363.25 c 0
 650.25 -349.200195312 628.049804688 -325.25 617.950195312 -315.950195312 c 0
 588.950195312 -289.349609375 562.5 -276.650390625 526.5 -272.25 c 0
EndSplineSet
EndChar

StartChar: q
Encoding: 113 113 18
Width: 1000
Flags: H
LayerCount: 2
Fore
SplineSet
515.75 414.349609375 m 0
 517 414.75 519.200195312 414.900390625 521.549804688 414.799804688 c 0
 528.75 414.450195312 534 411.099609375 547.25 398.599609375 c 0
 555.5 390.799804688 567.099609375 378.599609375 571.5 373.099609375 c 0
 576.950195312 366.200195312 580.049804688 359.5 581.099609375 352 c 0
 582.5 342.650390625 579.200195312 332.950195312 568.150390625 313.849609375 c 0
 559.700195312 299.150390625 556.75 291.299804688 553.950195312 276 c 0
 552.450195312 267.799804688 552.099609375 244.75 553.200195312 230.950195312 c 0
 555.25 205.450195312 557.349609375 193.400390625 574.049804688 109.5 c 0
 589.049804688 34.25 593.349609375 13.9501953125 599 -7.75 c 0
 603.849609375 -26.599609375 608.299804688 -36 612.299804688 -36 c 0
 614.900390625 -36 620.150390625 -29.599609375 626.650390625 -18.5 c 0
 631.700195312 -9.849609375 635.700195312 -0.2001953125 638.950195312 11.4501953125 c 0
 642.799804688 25.0498046875 644 32.099609375 645.5 50.25 c 0
 646.799804688 65.7998046875 647.75 72 651 85 c 0
 655.349609375 102.400390625 662.25 121.700195312 670.25 139 c 0
 681.650390625 163.700195312 683.450195312 168.200195312 686.950195312 181.450195312 c 0
 691.099609375 196.950195312 693.599609375 212.299804688 694.5 228 c 0
 695.099609375 238.349609375 694.599609375 247.599609375 692.799804688 259.599609375 c 0
 689.700195312 280.099609375 689.900390625 293.950195312 693.450195312 310.5 c 0
 698.349609375 332.950195312 710.150390625 350.950195312 724.900390625 358.450195312 c 0
 733.049804688 362.599609375 744.75 362.400390625 753.650390625 358 c 0
 759.650390625 355.049804688 767.799804688 348 772.400390625 341.75 c 0
 787.950195312 320.650390625 794.849609375 282.650390625 788.700195312 252.099609375 c 0
 786.099609375 239 781.75 228.799804688 775.200195312 220.25 c 0
 773.099609375 217.5 770.400390625 213.25 769.25 210.75 c 0
 763.25 198.299804688 756.400390625 171.400390625 749.75 134.75 c 0
 745.400390625 110.5 740.75 74.099609375 735.799804688 25 c 0
 733 -2.4501953125 732.799804688 -5.650390625 732.75 -17 c 0
 732.75 -28.4501953125 733.049804688 -30 735.099609375 -30 c 0
 737.700195312 -30 742 -23.5 756 1.75 c 0
 767.599609375 22.7001953125 771.349609375 29.150390625 778.150390625 40 c 0
 795.099609375 66.9501953125 813 91.650390625 830.549804688 112.25 c 0
 846.950195312 131.450195312 854.900390625 142.799804688 863.900390625 160 c 0
 871.299804688 174.049804688 874.650390625 182.700195312 878.299804688 197 c 0
 883 215.200195312 888.400390625 225.450195312 898.75 235.799804688 c 0
 907.150390625 244.200195312 912.049804688 246.299804688 922.700195312 245.900390625 c 0
 929 245.700195312 931.549804688 244.799804688 936.5 241.049804688 c 0
 943.349609375 235.900390625 949 224.799804688 950.75 213 c 0
 952.799804688 199.549804688 950.700195312 183.349609375 945.25 170.650390625 c 0
 942.299804688 163.700195312 939.200195312 158.5 932.700195312 149.650390625 c 0
 929.799804688 145.75 925.5 139.450195312 923.200195312 135.650390625 c 0
 918.799804688 128.5 907.75 106.700195312 901.5 92.75 c 0
 857.75 -4.400390625 803.700195312 -170.599609375 785 -265.200195312 c 0
 783.900390625 -271 781.150390625 -286.599609375 778.950195312 -299.950195312 c 0
 776.75 -313.349609375 774.299804688 -327.950195312 773.450195312 -332.5 c 0
 765.099609375 -377.450195312 753.900390625 -400.450195312 733.799804688 -413.900390625 c 0
 713.700195312 -427.349609375 686.299804688 -433.200195312 630.25 -436 c 0
 592.400390625 -437.900390625 487.25 -437.900390625 434.75 -436 c 0
 375.75 -433.900390625 335.900390625 -429 313.5 -421.200195312 c 0
 307.099609375 -419 304.599609375 -417.75 300.700195312 -414.799804688 c 0
 296.650390625 -411.799804688 294.549804688 -408.950195312 291.25 -402.200195312 c 0
 284.049804688 -387.400390625 277.650390625 -367.799804688 271.25 -341.150390625 c 0
 267.5 -325.650390625 265.650390625 -316.25 261.5 -292.450195312 c 0
 254.049804688 -249.25 246.950195312 -218.900390625 232.450195312 -168 c 0
 202.25 -62.25 160.799804688 52 130.25 113.75 c 0
 122.099609375 130.150390625 116.900390625 139 109.650390625 148.799804688 c 0
 103.25 157.450195312 101.349609375 160.349609375 98.7998046875 165.450195312 c 0
 84.5 193.849609375 88.25 229.950195312 106.75 242.25 c 0
 111.200195312 245.200195312 114.5 246.150390625 120.25 246.200195312 c 0
 129.150390625 246.25 135.450195312 243.400390625 143 235.900390625 c 0
 150.25 228.75 157.299804688 217.049804688 160.650390625 206.75 c 0
 161.400390625 204.549804688 162.75 199.599609375 163.700195312 195.75 c 0
 168.450195312 176.700195312 177.799804688 157.049804688 191.950195312 136.5 c 0
 197.200195312 128.799804688 200.549804688 124.549804688 210.25 113.200195312 c 0
 224.700195312 96.2998046875 235.849609375 81.5498046875 250.200195312 60.400390625 c 0
 262.900390625 41.599609375 270.75 28.7001953125 284.200195312 4.25 c 0
 298.299804688 -21.25 301.950195312 -27.150390625 305.25 -29.2998046875 c 0
 308.200195312 -31.25 309.049804688 -28.5 309.049804688 -17.349609375 c 0
 309 -4.5 306.700195312 20.400390625 301 70.5 c 0
 294.799804688 124.5 285.950195312 171.900390625 276.900390625 199.25 c 0
 273.75 208.849609375 271.450195312 213.549804688 266.799804688 219.700195312 c 0
 258.799804688 230.349609375 254 242.75 251.700195312 258.5 c 0
 250.650390625 266 250.950195312 289.650390625 252.200195312 297 c 0
 257.549804688 327.75 270.099609375 349.150390625 287.75 357.75 c 0
 293.299804688 360.450195312 297.450195312 361.5 303 361.5 c 0
 312.599609375 361.5 321.299804688 357.349609375 329.349609375 348.849609375 c 0
 342.549804688 334.950195312 349.799804688 314.299804688 350.799804688 287.799804688 c 0
 351.150390625 278.200195312 350.650390625 270.950195312 348.75 259.349609375 c 0
 347.599609375 252.400390625 347.5 250.450195312 347.5 235.900390625 c 0
 347.5 219.200195312 347.799804688 215.299804688 350.299804688 201 c 0
 353.950195312 179.849609375 358.200195312 167.299804688 371.150390625 139.75 c 0
 380.599609375 119.599609375 388.950195312 94.849609375 393 75.0498046875 c 0
 394.75 66.400390625 395.200195312 62.650390625 396.25 48.75 c 0
 397.700195312 29.599609375 401.400390625 12.7998046875 407.599609375 -3.150390625 c 0
 413.450195312 -18.2998046875 425.349609375 -36 429.599609375 -36 c 0
 431 -36 433.75 -33 435.450195312 -29.5498046875 c 0
 441.75 -17.150390625 449.599609375 17.5 471.299804688 127.75 c 0
 482.200195312 183.150390625 485.049804688 199.5 487.599609375 220 c 0
 488.650390625 228.349609375 488.75 231.349609375 488.75 250.25 c 0
 488.700195312 271 488.700195312 271.349609375 487.400390625 278 c 0
 484.5 292.400390625 481.299804688 300.450195312 472.25 316 c 0
 459.25 338.349609375 457.299804688 349.599609375 464 363.049804688 c 0
 468.599609375 372.349609375 478.400390625 383.900390625 494.25 398.700195312 c 0
 504.650390625 408.400390625 510.349609375 412.549804688 515.75 414.349609375 c 0
530.950195312 368.5 m 0
 526.799804688 369.700195312 517.700195312 370.200195312 513.900390625 369.5 c 0
 502.700195312 367.450195312 494.599609375 362.099609375 490.650390625 354.200195312 c 0
 488.75 350.349609375 488.75 350.25 488.799804688 344.549804688 c 0
 488.849609375 334.849609375 491.099609375 329.450195312 498 322.450195312 c 0
 502.549804688 317.799804688 505.650390625 315.900390625 511.599609375 314.099609375 c 0
 521.549804688 311 530.450195312 313 540.450195312 320.549804688 c 0
 549.049804688 327 554.5 335.799804688 554.5 343.25 c 0
 554.5 354.150390625 544.799804688 364.599609375 530.950195312 368.5 c 0
308.549804688 326.950195312 m 0
 304.900390625 328.150390625 300.75 327.049804688 295.450195312 323.450195312 c 0
 286.049804688 317.099609375 280.099609375 307.799804688 276.950195312 294.75 c 0
 275.549804688 288.799804688 275.549804688 271.400390625 277 265.700195312 c 0
 280.200195312 253.099609375 286.950195312 240.950195312 292.849609375 237.049804688 c 0
 298.799804688 233.099609375 306 235.5 315 244.5 c 0
 319.450195312 248.900390625 321.75 252.5 324.450195312 259.299804688 c 0
 331 275.700195312 329.849609375 295.400390625 321.25 312.549804688 c 0
 316.950195312 321.049804688 313.150390625 325.349609375 308.549804688 326.950195312 c 0
746.049804688 326.950195312 m 0
 742.400390625 328.150390625 738.25 327.049804688 732.950195312 323.450195312 c 0
 723.549804688 317.099609375 717.599609375 307.799804688 714.450195312 294.75 c 0
 713.049804688 288.799804688 713.049804688 271.400390625 714.5 265.700195312 c 0
 717.700195312 253.099609375 724.450195312 240.950195312 730.349609375 237.049804688 c 0
 736.299804688 233.099609375 743.5 235.5 752.5 244.5 c 0
 756.950195312 248.900390625 759.25 252.5 761.950195312 259.299804688 c 0
 768.5 275.700195312 767.349609375 295.400390625 758.75 312.549804688 c 0
 754.450195312 321.049804688 750.650390625 325.349609375 746.049804688 326.950195312 c 0
522.75 207.5 m 0
 521.849609375 208.049804688 520.849609375 208.5 520.450195312 208.5 c 0
 520.099609375 208.5 518.75 207.400390625 517.5 206.049804688 c 0
 510.900390625 199 502.950195312 175.049804688 496.549804688 142.700195312 c 0
 493.950195312 129.700195312 492.700195312 122.25 488.75 95.75 c 0
 473.599609375 -5.349609375 464.849609375 -38.599609375 449.299804688 -53.75 c 0
 445.299804688 -57.599609375 441.200195312 -60 436 -61.349609375 c 0
 431.450195312 -62.5498046875 421.299804688 -62.5 417.25 -61.2998046875 c 0
 407.900390625 -58.5 401.700195312 -52.349609375 395.400390625 -39.75 c 0
 387.150390625 -23.2998046875 380.25 2.7998046875 365.75 71.75 c 0
 357.5 111 352.5 128.400390625 344.950195312 143.75 c 0
 341.400390625 151.049804688 338.299804688 155.099609375 335.200195312 156.650390625 c 2
 332.950195312 157.75 l 1
 331.099609375 156.75 l 2
 326.099609375 154 323.150390625 143 321.900390625 122.400390625 c 0
 320.900390625 105.349609375 322.200195312 83.7001953125 326.75 41.7998046875 c 0
 330.75 4.7998046875 331.200195312 -1.2998046875 331.200195312 -20.5 c 0
 331.25 -35.2001953125 331.099609375 -38.400390625 330.349609375 -42.150390625 c 0
 328.150390625 -53.099609375 324.25 -58.2001953125 316.150390625 -60.9501953125 c 0
 310.200195312 -62.9501953125 298.799804688 -62.75 292.349609375 -60.5498046875 c 0
 282.700195312 -57.2001953125 275.099609375 -50.900390625 272.450195312 -44.0498046875 c 0
 271.950195312 -42.7001953125 271.099609375 -38.900390625 270.549804688 -35.650390625 c 0
 269.349609375 -28.599609375 268 -24.5498046875 263.75 -15.75 c 0
 256.549804688 -0.7001953125 243.650390625 19.650390625 229.549804688 38 c 0
 221.900390625 47.9501953125 167.450195312 113.099609375 167.049804688 112.75 c 0
 166.849609375 112.5 174.900390625 90.4501953125 219.200195312 -30.5 c 2
 249.849609375 -114.25 l 1
 520.799804688 -114.400390625 l 1
 791.75 -114.5 l 1
 829.25 -12.150390625 l 2
 878.25 121.75 875.799804688 114.900390625 873.599609375 112.200195312 c 0
 873.150390625 111.599609375 860.950195312 97 846.5 79.7001953125 c 0
 815.950195312 43.150390625 813.799804688 40.5 807 31.2001953125 c 0
 796.049804688 16.349609375 786.049804688 0.349609375 779.549804688 -12.5 c 0
 774.349609375 -22.75 772.25 -28.5498046875 771.049804688 -35.849609375 c 0
 769.549804688 -45.150390625 768.150390625 -47.9501953125 762.549804688 -53.150390625 c 0
 756.299804688 -58.900390625 747.349609375 -62.0498046875 737 -62.150390625 c 0
 724.099609375 -62.25 717.75 -59.099609375 713.950195312 -50.7001953125 c 0
 710.849609375 -43.900390625 710.75 -42.849609375 710.799804688 -19.5 c 0
 710.849609375 3.7001953125 710.900390625 4.599609375 715.049804688 42.75 c 0
 719.650390625 85.150390625 720.549804688 100.900390625 719.599609375 121.099609375 c 0
 719.299804688 128.049804688 718.650390625 136.099609375 718.25 138.950195312 c 0
 716.700195312 149.049804688 713.900390625 155.25 710.200195312 156.799804688 c 0
 708.549804688 157.5 708.25 157.450195312 706.200195312 156.5 c 0
 697.75 152.400390625 687.700195312 126.450195312 679.049804688 86.5 c 0
 677.950195312 81.400390625 675.25 68.7001953125 673.049804688 58.25 c 0
 657.200195312 -16.7998046875 649 -41.849609375 636.25 -54.25 c 0
 630.049804688 -60.2998046875 624.700195312 -62.25 614.25 -62.2001953125 c 0
 608.5 -62.2001953125 607.299804688 -62.0498046875 603.849609375 -60.849609375 c 0
 596.650390625 -58.349609375 591.5 -54.099609375 586.650390625 -46.650390625 c 0
 574.75 -28.400390625 566 7.599609375 554.299804688 86.5 c 0
 549.549804688 118.299804688 547.549804688 130.799804688 545.200195312 142.5 c 0
 538.200195312 177.5 529.200195312 203.5 522.75 207.5 c 0
924.799804688 206.75 m 0
 913.900390625 211.599609375 898.700195312 203.5 896.5 191.700195312 c 0
 895.349609375 185.599609375 896.5 177.299804688 899.200195312 171.849609375 c 0
 902.900390625 164.5 907.150390625 165.150390625 916.549804688 174.5 c 0
 921.849609375 179.799804688 927.5 187.549804688 929.150390625 191.75 c 0
 931.75 198.599609375 930.049804688 204.400390625 924.799804688 206.75 c 0
133.599609375 205.900390625 m 0
 130.049804688 207.599609375 129.349609375 207.75 124.75 207.849609375 c 0
 119.400390625 208 117.700195312 207.599609375 115.099609375 205.650390625 c 0
 110.450195312 202.200195312 110.099609375 196.549804688 114.049804688 189 c 0
 119.599609375 178.400390625 131.25 167 136.599609375 167 c 0
 141.849609375 167 145.849609375 176.299804688 145.400390625 187.700195312 c 0
 145.25 192.099609375 145 193.200195312 143.650390625 196.099609375 c 0
 141.549804688 200.549804688 138.400390625 203.599609375 133.599609375 205.900390625 c 0
562 -126 m 0
 534.200195312 -125.299804688 490 -125.5 462.75 -126.5 c 0
 347.400390625 -130.700195312 286.700195312 -147.599609375 273.5 -179.299804688 c 0
 271.450195312 -184.25 270.799804688 -189.849609375 271.200195312 -199.25 c 0
 271.549804688 -208.150390625 272.400390625 -212.450195312 274.549804688 -216.549804688 c 0
 276.299804688 -219.799804688 278.599609375 -221.900390625 282.349609375 -223.650390625 c 0
 284.599609375 -224.700195312 285.400390625 -224.75 295.75 -224.75 c 0
 308.5 -224.700195312 306.75 -224.950195312 344 -217.5 c 0
 370.900390625 -212.099609375 383.849609375 -209.950195312 405 -207.299804688 c 0
 436.900390625 -203.25 469.049804688 -200.700195312 503 -199.450195312 c 0
 539.049804688 -198.150390625 592.75 -201.450195312 642.5 -208.049804688 c 0
 660.799804688 -210.450195312 673.75 -212.700195312 701.25 -218.25 c 0
 731.900390625 -224.400390625 737.450195312 -225.150390625 748.650390625 -224.900390625 c 0
 756.099609375 -224.75 756.950195312 -224.650390625 759.5 -223.450195312 c 0
 763.450195312 -221.599609375 765.75 -219.400390625 767.450195312 -215.799804688 c 0
 769.650390625 -211.150390625 770.049804688 -208.650390625 770.349609375 -197.5 c 0
 770.549804688 -189 770.5 -186.700195312 769.799804688 -184 c 0
 760.700195312 -147.700195312 695.25 -129.450195312 562 -126 c 0
537.5 -217.5 m 0
 498.650390625 -215.650390625 458.200195312 -219.900390625 397.75 -232.200195312 c 0
 326.599609375 -246.650390625 302.650390625 -254.299804688 291.849609375 -266 c 0
 286.900390625 -271.349609375 285 -277 285 -286.849609375 c 0
 285 -304.75 293.450195312 -343.549804688 301.400390625 -361.950195312 c 0
 313.099609375 -388.950195312 334.450195312 -403.099609375 373.5 -409.700195312 c 0
 385.849609375 -411.799804688 400.150390625 -413.25 423.25 -414.75 c 0
 449.25 -416.450195312 555.400390625 -416.950195312 589 -415.5 c 0
 666.349609375 -412.200195312 707.5 -405.200195312 721.150390625 -393 c 0
 722.549804688 -391.75 725 -388.700195312 726.650390625 -386.25 c 0
 730.200195312 -380.900390625 737 -367.150390625 740.25 -358.75 c 0
 751.349609375 -330.25 758.849609375 -293.450195312 756.349609375 -279.599609375 c 0
 754.5 -269.549804688 749.200195312 -263.25 737.700195312 -257.400390625 c 0
 725.150390625 -251 709.25 -246.349609375 672.25 -238.200195312 c 0
 611.5 -224.799804688 575.599609375 -219.299804688 537.5 -217.5 c 0
EndSplineSet
EndChar

StartChar: r
Encoding: 114 114 19
Width: 1000
Flags: H
LayerCount: 2
Fore
SplineSet
254.75 415.950195312 m 0
 269.849609375 416.5 274.950195312 416.5 296.75 416 c 0
 310.799804688 415.700195312 317.5 415.349609375 320.75 414.799804688 c 0
 339.150390625 411.5 346.650390625 406.450195312 350.799804688 394.549804688 c 0
 352.549804688 389.5 353.400390625 382.950195312 354 369 c 0
 354.900390625 349.099609375 356.049804688 341.25 359.450195312 332.799804688 c 0
 364.799804688 319.450195312 375.75 311.599609375 387.599609375 312.700195312 c 0
 400.25 313.849609375 409.349609375 323.450195312 413.75 340.400390625 c 0
 415.400390625 346.650390625 415.900390625 351.099609375 416.5 365.5 c 0
 417.349609375 385.700195312 418.200195312 391.25 421.299804688 397.799804688 c 0
 423.650390625 402.849609375 428.900390625 407.75 434.25 409.950195312 c 0
 445.650390625 414.700195312 464.849609375 416.5 503.75 416.450195312 c 0
 542.299804688 416.450195312 563.5 415.549804688 574 413.5 c 0
 587.799804688 410.849609375 595.549804688 406.099609375 599.450195312 397.799804688 c 0
 602.150390625 392.099609375 602.900390625 388.5 603.5 377.700195312 c 0
 603.799804688 372.5 604.25 364.25 604.549804688 359.349609375 c 0
 605.25 346.599609375 606.650390625 339.450195312 609.849609375 331.799804688 c 0
 615.099609375 319.25 626.150390625 311.650390625 637.599609375 312.700195312 c 0
 649.150390625 313.75 658 322.200195312 662.700195312 336.650390625 c 0
 665.299804688 344.650390625 665.75 348.400390625 667 373.5 c 0
 667.700195312 387.5 669.200195312 394.799804688 672.700195312 400.650390625 c 0
 674.5 403.799804688 679.299804688 408 683.150390625 409.900390625 c 0
 687.599609375 412.099609375 696.099609375 414.200195312 704.75 415.25 c 0
 719.299804688 417 770 416.700195312 781.25 414.75 c 0
 798.849609375 411.75 806.400390625 405.25 809.75 390.150390625 c 0
 811.599609375 381.700195312 812.200195312 372.599609375 812.200195312 352 c 0
 812.25 335.299804688 812.099609375 332.349609375 811.099609375 325 c 0
 808.200195312 303.599609375 802.900390625 284.849609375 795.5 269.900390625 c 0
 791.75 262.299804688 788.700195312 258 782.25 251.099609375 c 0
 773.450195312 241.650390625 770.150390625 236.099609375 765.75 223.5 c 0
 748.5 173.849609375 746.900390625 69.900390625 761.549804688 -52.75 c 0
 764.950195312 -81.5498046875 766.549804688 -92.5 776.549804688 -156 c 0
 790.400390625 -244 794.700195312 -272.75 808.700195312 -370.400390625 c 2
 818.349609375 -437.5 l 1
 510.400390625 -437.5 l 1
 202.400390625 -437.5 l 1
 202.700195312 -436.150390625 l 2
 202.849609375 -435.349609375 206.349609375 -410.900390625 210.5 -381.75 c 0
 223 -293.950195312 230.549804688 -243.299804688 242.799804688 -165.5 c 0
 256.849609375 -76.0498046875 259.799804688 -54.25 264 -8.25 c 0
 267.299804688 28 268.5 51.900390625 268.849609375 88.25 c 0
 269.200195312 122.849609375 268.5 143.549804688 266.200195312 166.5 c 0
 263.299804688 195.599609375 257.75 219.849609375 250.700195312 234.25 c 0
 247.599609375 240.650390625 245.549804688 243.450195312 238.700195312 250.900390625 c 0
 235.950195312 253.900390625 232.650390625 257.75 231.400390625 259.549804688 c 0
 223.299804688 270.950195312 215.450195312 292.099609375 211.549804688 313.25 c 0
 208.950195312 327.349609375 208.75 330 208.799804688 352.75 c 0
 208.849609375 376.049804688 209.299804688 382.900390625 211.25 390.950195312 c 0
 215.650390625 409.049804688 226 415 254.75 415.950195312 c 0
538.75 394.950195312 m 0
 531.200195312 395.5 504.299804688 396 497.75 395.700195312 c 0
 474.849609375 394.700195312 468.200195312 393.950195312 460.75 391.650390625 c 0
 451.400390625 388.75 445.599609375 384.25 442.299804688 377.349609375 c 0
 439.75 372.049804688 438.650390625 366.150390625 438 354.5 c 0
 437.700195312 349.150390625 437.25 340.599609375 437 335.5 c 0
 436.049804688 317.450195312 433.950195312 310.200195312 427.799804688 303.200195312 c 0
 421.5 296 412 292.900390625 393.650390625 292 c 0
 377.450195312 291.25 362.450195312 292.650390625 354.25 295.75 c 0
 347.049804688 298.450195312 341.650390625 303.400390625 338.5 310.150390625 c 0
 335.099609375 317.5 334.299804688 322.5 333.5 341.75 c 0
 333.200195312 348.650390625 332.75 356.599609375 332.450195312 359.5 c 0
 330.599609375 378.400390625 324.099609375 388.049804688 310.200195312 392.5 c 0
 303.200195312 394.75 295.900390625 395.5 281.5 395.5 c 0
 263.150390625 395.5 254.5 394.150390625 246.400390625 389.900390625 c 0
 239.650390625 386.400390625 235.75 382 232.950195312 374.799804688 c 0
 229.099609375 364.900390625 228.200195312 346.099609375 230.75 330.049804688 c 0
 232.700195312 318.049804688 237.150390625 303.75 242.25 293.25 c 0
 248.599609375 280.200195312 254.349609375 273.650390625 262.200195312 270.349609375 c 0
 286 260.349609375 340.599609375 254.049804688 434.5 250.400390625 c 0
 456.900390625 249.5 565.450195312 249.5 587.25 250.400390625 c 0
 683.549804688 254.25 739.049804688 260.900390625 760.5 271.099609375 c 0
 769.450195312 275.400390625 778.299804688 289.099609375 784.75 308.650390625 c 0
 789.450195312 322.950195312 790.799804688 330.849609375 791.299804688 346.25 c 0
 791.950195312 365.700195312 789 377.150390625 781.299804688 384.799804688 c 0
 773.400390625 392.700195312 762 395.650390625 739.75 395.650390625 c 0
 717.200195312 395.599609375 705.450195312 392.650390625 698 385.049804688 c 0
 692.599609375 379.599609375 689.75 372.400390625 688.549804688 361.25 c 0
 688.25 358.799804688 687.799804688 350.900390625 687.5 343.75 c 0
 686.450195312 319 684.549804688 310.849609375 678 303.450195312 c 0
 671.450195312 296 662.200195312 292.950195312 643.650390625 292 c 0
 627.450195312 291.25 612.450195312 292.650390625 604.25 295.75 c 0
 597.049804688 298.450195312 591.650390625 303.400390625 588.5 310.150390625 c 0
 585.099609375 317.549804688 584.299804688 322.450195312 583.5 342.5 c 0
 582.849609375 358.549804688 582.299804688 365 580.950195312 370.25 c 0
 576.849609375 386.700195312 566.150390625 393 538.75 394.950195312 c 0
726.200195312 222.150390625 m 2
 725.849609375 229 l 1
 510.5 229 l 1
 295.099609375 229 l 1
 294.799804688 223.900390625 l 2
 294.299804688 216.049804688 289.150390625 95.349609375 286.900390625 39.75 c 0
 286.049804688 17.849609375 286.049804688 -67.75 286.900390625 -77.5 c 0
 288.099609375 -90.7998046875 289.150390625 -95.7001953125 290.900390625 -96.2001953125 c 0
 295.900390625 -97.650390625 303.599609375 -98.599609375 319.5 -99.7001953125 c 0
 366.700195312 -103.049804688 471.450195312 -104.650390625 568.75 -103.549804688 c 0
 671.5 -102.400390625 721.849609375 -99.9501953125 729.950195312 -95.75 c 0
 731.700195312 -94.849609375 732.200195312 -93 733.25 -83.900390625 c 0
 735.049804688 -68.5 735.400390625 -5.7001953125 734 35.75 c 0
 733.299804688 55.9501953125 727.450195312 196 726.200195312 222.150390625 c 2
598.5 -126.450195312 m 0
 578 -125.799804688 470.400390625 -125.5 443 -126 c 0
 357.700195312 -127.599609375 292.599609375 -133.299804688 285.450195312 -139.799804688 c 0
 281.25 -143.599609375 271.799804688 -176.75 263.799804688 -215.75 c 0
 261.549804688 -226.75 250.549804688 -284.299804688 247.299804688 -302.25 c 0
 246.349609375 -307.450195312 245.700195312 -311.849609375 245.799804688 -312 c 0
 245.950195312 -312.150390625 365.200195312 -312.299804688 510.799804688 -312.400390625 c 2
 775.549804688 -312.549804688 l 1
 775.25 -311.400390625 l 2
 775.099609375 -310.75 771.599609375 -292.25 767.5 -270.25 c 0
 756.650390625 -212.75 754.150390625 -200.75 748.25 -177.5 c 0
 743 -157.099609375 738.900390625 -144.700195312 736.25 -141.200195312 c 0
 734.549804688 -139 731.75 -137.75 725 -136.200195312 c 0
 705.200195312 -131.650390625 666.200195312 -128.650390625 598.5 -126.450195312 c 0
674.25 -334.450195312 m 0
 652.5 -333.799804688 429.099609375 -333.450195312 379 -334 c 0
 272.049804688 -335.150390625 240.150390625 -340.150390625 232.099609375 -357 c 0
 231.25 -358.799804688 230.349609375 -361.599609375 230.049804688 -363.200195312 c 0
 229.349609375 -367.099609375 229.349609375 -383.700195312 230.049804688 -387.099609375 c 0
 231.299804688 -393.049804688 235.200195312 -398.700195312 240.25 -401.900390625 c 0
 251.450195312 -409.049804688 273 -412.400390625 322.5 -414.799804688 c 0
 356.900390625 -416.450195312 627.450195312 -417 677 -415.5 c 0
 748.450195312 -413.400390625 774.799804688 -409.150390625 785.099609375 -398.099609375 c 0
 787.75 -395.299804688 789.049804688 -393 790.299804688 -388.75 c 0
 791.650390625 -384.349609375 791.650390625 -365.650390625 790.349609375 -361.25 c 0
 787.5 -352 781.349609375 -346.849609375 768.599609375 -343.049804688 c 0
 752.349609375 -338.25 728.650390625 -336.049804688 674.25 -334.450195312 c 0
EndSplineSet
EndChar

StartChar: t
Encoding: 116 116 20
Width: 1000
Flags: H
LayerCount: 2
Fore
SplineSet
254.75 415.950195312 m 0
 269.849609375 416.5 274.950195312 416.5 296.75 416 c 0
 310.799804688 415.700195312 317.5 415.349609375 320.75 414.799804688 c 0
 339.150390625 411.5 346.650390625 406.450195312 350.799804688 394.549804688 c 0
 352.549804688 389.5 353.400390625 382.950195312 354 369 c 0
 354.900390625 349.099609375 356.049804688 341.25 359.450195312 332.799804688 c 0
 364.799804688 319.450195312 375.75 311.599609375 387.599609375 312.700195312 c 0
 400.25 313.849609375 409.349609375 323.450195312 413.75 340.400390625 c 0
 415.400390625 346.650390625 415.900390625 351.099609375 416.5 365.5 c 0
 417.349609375 385.700195312 418.200195312 391.25 421.299804688 397.799804688 c 0
 423.650390625 402.849609375 428.900390625 407.75 434.25 409.950195312 c 0
 445.650390625 414.700195312 464.849609375 416.5 503.75 416.450195312 c 0
 542.299804688 416.450195312 563.5 415.549804688 574 413.5 c 0
 587.799804688 410.849609375 595.549804688 406.099609375 599.450195312 397.799804688 c 0
 602.150390625 392.099609375 602.900390625 388.5 603.5 377.700195312 c 0
 603.799804688 372.5 604.25 364.25 604.549804688 359.349609375 c 0
 605.25 346.599609375 606.650390625 339.450195312 609.849609375 331.799804688 c 0
 620.049804688 307.450195312 648.349609375 306 659.700195312 329.25 c 0
 664.650390625 339.349609375 665.549804688 344.849609375 667 373.5 c 0
 667.700195312 387.5 669.25 394.799804688 672.700195312 400.650390625 c 0
 674.5 403.799804688 679.299804688 408 683.150390625 409.900390625 c 0
 687.599609375 412.099609375 696.099609375 414.200195312 704.75 415.25 c 0
 719.299804688 417 770 416.700195312 781.25 414.75 c 0
 802.400390625 411.150390625 809.299804688 402.700195312 811.599609375 377.75 c 0
 812.549804688 366.75 812.450195312 334.849609375 811.349609375 326.75 c 0
 809.349609375 311.799804688 806.5 298.900390625 802.549804688 287.150390625 c 0
 796.900390625 270.200195312 792 261.599609375 781.5 250.25 c 0
 778.950195312 247.5 775.900390625 243.900390625 774.75 242.25 c 0
 764.150390625 227.450195312 756.349609375 194.450195312 753.25 151.25 c 0
 748.75 87.5 753.5 0.150390625 766.549804688 -91.25 c 0
 767.650390625 -98.9501953125 772.150390625 -128.099609375 776.549804688 -156 c 0
 790.349609375 -243.549804688 794.700195312 -272.549804688 808.700195312 -370.400390625 c 2
 818.349609375 -437.5 l 1
 510.400390625 -437.5 l 1
 202.400390625 -437.5 l 1
 202.700195312 -436.150390625 l 2
 202.849609375 -435.349609375 206.349609375 -410.900390625 210.5 -381.75 c 0
 223 -293.950195312 230.549804688 -243.299804688 242.799804688 -165.5 c 0
 256.849609375 -76.0498046875 259.799804688 -54.25 264 -8.25 c 0
 267.25 27.849609375 268.5 51.849609375 268.849609375 88 c 0
 269.200195312 122.299804688 268.5 143.650390625 266.200195312 166.5 c 0
 263.299804688 195.599609375 257.75 219.849609375 250.700195312 234.25 c 0
 247.599609375 240.650390625 245.549804688 243.450195312 238.700195312 250.900390625 c 0
 235.950195312 253.900390625 232.650390625 257.75 231.400390625 259.549804688 c 0
 223.299804688 270.950195312 215.450195312 292.099609375 211.549804688 313.25 c 0
 208.950195312 327.349609375 208.75 330 208.799804688 352.75 c 0
 208.849609375 376.049804688 209.299804688 382.900390625 211.25 390.950195312 c 0
 215.650390625 409.049804688 226 415 254.75 415.950195312 c 0
590 246.5 m 0
 574.099609375 247.200195312 478.5 247.549804688 459.75 247 c 0
 410.150390625 245.599609375 372.5 243 372.5 241.049804688 c 0
 372.5 240.200195312 380.349609375 239.400390625 398.5 238.450195312 c 0
 413.400390625 237.650390625 585.299804688 237.25 609.75 237.950195312 c 0
 651.299804688 239.200195312 664.599609375 240.900390625 648 242.950195312 c 0
 638.599609375 244.099609375 617.900390625 245.349609375 590 246.5 c 0
608 -107.950195312 m 0
 593.849609375 -107.25 458.099609375 -106.900390625 440 -107.5 c 0
 391.150390625 -109.150390625 358.200195312 -111.400390625 359.849609375 -113.049804688 c 0
 361 -114.200195312 376 -115.200195312 403.75 -116 c 0
 425.799804688 -116.650390625 599.099609375 -116.650390625 621.25 -116 c 0
 650.450195312 -115.150390625 666.049804688 -114.150390625 667.150390625 -113.049804688 c 0
 668.700195312 -111.5 652.450195312 -110.099609375 608 -107.950195312 c 0
595.25 -316 m 0
 578.150390625 -315.5 468.900390625 -315 444.5 -315.299804688 c 0
 399.099609375 -315.849609375 339.650390625 -318.450195312 329.150390625 -320.299804688 c 0
 327.150390625 -320.700195312 327 -321.299804688 328.900390625 -321.700195312 c 0
 341.75 -324.349609375 495.549804688 -325.950195312 604.75 -324.5 c 0
 662.049804688 -323.75 686.5 -322.700195312 686.5 -321 c 0
 686.5 -319.5 652.099609375 -317.599609375 595.25 -316 c 0
EndSplineSet
EndChar

StartChar: v
Encoding: 118 118 21
Width: 1000
Flags: H
LayerCount: 2
Fore
SplineSet
505.25 457.900390625 m 0
 509.799804688 458.349609375 517.400390625 457.799804688 521.5 456.799804688 c 0
 526.299804688 455.549804688 533.200195312 451.950195312 537.75 448.299804688 c 0
 555.150390625 434.400390625 563.200195312 408.549804688 556.5 388.349609375 c 0
 554.650390625 382.799804688 552.25 378.650390625 547.349609375 372.400390625 c 0
 542.5 366.299804688 541.400390625 364.099609375 541.099609375 359.799804688 c 0
 540.700195312 354.400390625 541.700195312 350.299804688 545 343.650390625 c 0
 551.700195312 330.099609375 563.450195312 316.799804688 591.5 290.900390625 c 0
 609.799804688 274.049804688 619.049804688 264 631.150390625 247.75 c 0
 658.700195312 210.75 682.599609375 162.900390625 700.75 108.25 c 0
 714 68.5 721.900390625 33.4501953125 726.799804688 -6.75 c 0
 729.200195312 -26.650390625 729.299804688 -66.5498046875 727 -81.75 c 0
 724.25 -99.849609375 720.400390625 -113.150390625 714.75 -124.150390625 c 0
 710.5 -132.400390625 707.849609375 -135.799804688 697.099609375 -146.5 c 0
 686.5 -157.099609375 683 -161.5 681.049804688 -166.799804688 c 0
 680.200195312 -169.049804688 680 -170.700195312 680 -175.799804688 c 0
 680 -181.450195312 680.150390625 -182.549804688 681.5 -186.5 c 0
 683.299804688 -191.950195312 687.650390625 -200.700195312 693.900390625 -211.450195312 c 0
 703 -227.150390625 706 -235 706 -242.950195312 c 0
 706 -250.150390625 704.200195312 -254.900390625 698.849609375 -262.150390625 c 0
 691.849609375 -271.599609375 684.200195312 -278.049804688 639 -312.450195312 c 0
 622.200195312 -325.25 616.5 -329.799804688 616.5 -330.400390625 c 0
 616.5 -330.849609375 618.25 -331 676.5 -334.25 c 0
 763.599609375 -339.150390625 779.700195312 -340.400390625 799.25 -343.75 c 0
 823.349609375 -347.900390625 834.599609375 -353.700195312 840.049804688 -364.700195312 c 0
 842.75 -370.200195312 843.150390625 -373.049804688 843.150390625 -385.25 c 0
 843.150390625 -397.450195312 842.75 -400.200195312 840 -405.950195312 c 0
 831.299804688 -424.099609375 805.950195312 -429.450195312 707.25 -434.099609375 c 0
 689.849609375 -434.900390625 651.400390625 -434.900390625 641.75 -434.099609375 c 0
 617.5 -432.049804688 603.349609375 -428.75 588.5 -421.650390625 c 0
 578.400390625 -416.849609375 569.849609375 -411.299804688 561 -403.75 c 0
 557.400390625 -400.650390625 539.549804688 -384.049804688 513.599609375 -359.599609375 c 2
 507.099609375 -353.5 l 1
 490.400390625 -371.849609375 l 2
 466.049804688 -398.650390625 463.799804688 -400.950195312 457.299804688 -405.25 c 0
 435 -420.049804688 397.299804688 -431.25 351.25 -436.75 c 0
 293.950195312 -443.549804688 237.950195312 -440.599609375 204.25 -429 c 0
 193.049804688 -425.099609375 186.150390625 -421.200195312 180.25 -415.25 c 0
 177.25 -412.299804688 176.400390625 -411.049804688 174.799804688 -407.25 c 0
 168.950195312 -393.299804688 167.5 -377.150390625 171.200195312 -368 c 0
 174.900390625 -358.950195312 184 -350.799804688 196 -345.849609375 c 0
 211.049804688 -339.650390625 231.450195312 -335.900390625 261 -334 c 0
 272 -333.299804688 327.400390625 -332.549804688 370.650390625 -332.5 c 0
 391.599609375 -332.5 405.5 -332.299804688 405.400390625 -332.049804688 c 0
 405.349609375 -331.799804688 395.150390625 -323.75 382.75 -314.200195312 c 0
 336.650390625 -278.599609375 329.5 -272.549804688 322.099609375 -262.75 c 0
 319.099609375 -258.799804688 316.299804688 -253.349609375 315.549804688 -250 c 0
 315.25 -248.75 315 -245.700195312 315 -243.200195312 c 0
 315 -234.650390625 317.450195312 -228.049804688 326.400390625 -212.349609375 c 0
 332.849609375 -201.150390625 337.900390625 -191 339.549804688 -185.900390625 c 0
 340.599609375 -182.799804688 340.75 -181.25 340.75 -175.5 c 0
 340.75 -168.950195312 340.700195312 -168.650390625 339.150390625 -165.400390625 c 0
 336.5 -159.799804688 334.799804688 -157.75 323.25 -146 c 0
 311.25 -133.799804688 309.700195312 -131.799804688 304.799804688 -121.5 c 0
 286.75 -83.7001953125 287.400390625 -15.7001953125 306.5 61.75 c 0
 324.299804688 133.75 354.5 200.900390625 390.900390625 249.25 c 0
 403.450195312 265.950195312 410.799804688 273.900390625 430.5 292 c 0
 469.549804688 327.900390625 483.650390625 348.599609375 479.049804688 363.299804688 c 0
 477.950195312 366.849609375 477.549804688 367.5 471.849609375 374.549804688 c 0
 468.049804688 379.299804688 465.049804688 385 463.549804688 390.5 c 0
 462.650390625 393.650390625 462.5 395.650390625 462.5 403.75 c 0
 462.5 411.799804688 462.650390625 413.849609375 463.5 417 c 0
 467.950195312 433.150390625 476.950195312 445.450195312 489.75 452.75 c 0
 494.400390625 455.400390625 500.599609375 457.450195312 505.25 457.900390625 c 0
515.950195312 166 m 0
 512.950195312 166.599609375 508.099609375 166.549804688 505.25 166 c 0
 495.5 164 488.299804688 156.900390625 483.950195312 144.950195312 c 0
 480.900390625 136.599609375 479.900390625 129.900390625 479 112 c 0
 478.099609375 93.9501953125 477.099609375 88.2998046875 473.25 80.25 c 0
 469.849609375 73.099609375 464.049804688 67.9501953125 456.400390625 65.2001953125 c 0
 452.150390625 63.7001953125 447.099609375 62.9501953125 438.25 62.5 c 0
 428.299804688 62 423.5 61.0498046875 416.849609375 58.2001953125 c 0
 411.25 55.849609375 408.650390625 54.0498046875 403.950195312 49.099609375 c 0
 398.150390625 43.099609375 396 38.25 396 31.25 c 0
 396 23.849609375 398.099609375 19.349609375 404.75 12.7001953125 c 0
 409.150390625 8.2998046875 410.349609375 7.400390625 414.599609375 5.349609375 c 0
 420.5 2.4501953125 425.400390625 1.150390625 432.799804688 0.5 c 0
 435.950195312 0.25 441.049804688 -0.25 444.200195312 -0.5 c 0
 459.549804688 -1.849609375 468 -6.849609375 473.200195312 -17.5498046875 c 0
 477 -25.5 478.099609375 -31.599609375 479 -49.5 c 0
 479.650390625 -62.5 480.200195312 -68.25 481.450195312 -73.9501953125 c 0
 485.700195312 -93.2001953125 496.099609375 -104 510.5 -104 c 0
 525.849609375 -104 536.950195312 -90.849609375 540.25 -68.7998046875 c 0
 540.650390625 -65.9501953125 541.349609375 -57.2998046875 541.75 -49.650390625 c 0
 542.150390625 -42 542.700195312 -34.400390625 543 -32.75 c 0
 545.099609375 -20.150390625 549.799804688 -11.400390625 557.099609375 -6.400390625 c 0
 562.349609375 -2.849609375 567.450195312 -1.349609375 576.75 -0.5 c 0
 580.049804688 -0.2001953125 585.25 0.25 588.25 0.5 c 0
 599.400390625 1.5498046875 608 4.900390625 615.400390625 11.2998046875 c 0
 618.5 13.900390625 622.25 19.5 623.599609375 23.400390625 c 0
 625.200195312 28.0498046875 625.150390625 35 623.5 39.25 c 0
 620.25 47.650390625 613.549804688 54.2001953125 603.849609375 58.400390625 c 0
 598.650390625 60.650390625 592.5 61.849609375 582.5 62.5 c 0
 577.950195312 62.7998046875 572 63.5 569.25 64.0498046875 c 0
 556.700195312 66.599609375 549.299804688 73.5 545.099609375 86.5 c 0
 543.200195312 92.349609375 542.450195312 98 541.75 112.150390625 c 0
 540.950195312 126.849609375 540.150390625 134 538.5 139.950195312 c 0
 534.549804688 154.200195312 525.950195312 164.099609375 515.950195312 166 c 0
545.25 -170.049804688 m 0
 530.150390625 -169.349609375 481.599609375 -169.049804688 471.5 -169.5 c 0
 451.650390625 -170.5 434.150390625 -172 425.099609375 -173.549804688 c 0
 412.349609375 -175.700195312 415.450195312 -177.349609375 435.25 -179 c 0
 452.400390625 -180.450195312 563.200195312 -180.450195312 580 -179.049804688 c 0
 592.950195312 -177.950195312 598.200195312 -177 597.200195312 -176 c 0
 595.200195312 -174 570.200195312 -171.099609375 545.25 -170.049804688 c 0
530.25 -273.5 m 0
 516.650390625 -272.950195312 513.700195312 -272.950195312 500.5 -273.5 c 0
 475.700195312 -274.549804688 449 -278.400390625 449 -280.900390625 c 0
 449 -282.25 455.799804688 -283.5 469.25 -284.599609375 c 0
 480.299804688 -285.5 546.200195312 -285.5 556.75 -284.599609375 c 0
 566.349609375 -283.799804688 574.25 -282.599609375 576.400390625 -281.700195312 c 0
 577.849609375 -281.099609375 578 -280.900390625 577.5 -280.25 c 0
 576.5 -279.049804688 570.849609375 -277.549804688 562.5 -276.25 c 0
 552.549804688 -274.700195312 545.700195312 -274.099609375 530.25 -273.5 c 0
EndSplineSet
EndChar

StartChar: w
Encoding: 119 119 22
Width: 1000
Flags: H
LayerCount: 2
Fore
SplineSet
515.75 414.349609375 m 0
 517 414.75 519.200195312 414.900390625 521.549804688 414.799804688 c 0
 528.75 414.450195312 534 411.099609375 547.25 398.599609375 c 0
 555.5 390.799804688 567.099609375 378.599609375 571.5 373.099609375 c 0
 576.950195312 366.200195312 580.049804688 359.5 581.099609375 352 c 0
 582.5 342.650390625 579.200195312 332.950195312 568.150390625 313.849609375 c 0
 559.700195312 299.150390625 556.75 291.299804688 553.950195312 276 c 0
 552.450195312 267.799804688 552.099609375 244.75 553.200195312 230.950195312 c 0
 555.25 205.450195312 557.349609375 193.400390625 574.049804688 109.5 c 0
 589.049804688 34.25 593.349609375 13.9501953125 599 -7.75 c 0
 603.849609375 -26.599609375 608.299804688 -36 612.299804688 -36 c 0
 614.900390625 -36 620.150390625 -29.599609375 626.650390625 -18.5 c 0
 631.700195312 -9.849609375 635.700195312 -0.2001953125 638.950195312 11.4501953125 c 0
 642.799804688 25.0498046875 644 32.099609375 645.5 50.25 c 0
 646.799804688 65.7998046875 647.75 72 651 85 c 0
 655.650390625 103.599609375 662.25 121.75 671.75 142.25 c 0
 674.400390625 148.049804688 677.549804688 154.900390625 678.75 157.5 c 0
 689.150390625 180.799804688 696.200195312 219.349609375 694.5 244.099609375 c 0
 694.25 248.150390625 693.450195312 255.150390625 692.799804688 259.599609375 c 0
 689.700195312 280.099609375 689.900390625 293.950195312 693.450195312 310.5 c 0
 698.349609375 332.950195312 710.150390625 350.950195312 724.900390625 358.450195312 c 0
 733.049804688 362.599609375 744.75 362.400390625 753.650390625 358 c 0
 759.650390625 355.049804688 767.799804688 348 772.400390625 341.75 c 0
 787.950195312 320.650390625 794.849609375 282.650390625 788.700195312 252.099609375 c 0
 786.099609375 239 781.75 228.799804688 775.200195312 220.25 c 0
 769.299804688 212.5 765.900390625 204.549804688 761.099609375 187 c 0
 750.950195312 150 743.799804688 104 735.799804688 25 c 0
 733 -2.4501953125 732.799804688 -5.650390625 732.75 -17 c 0
 732.75 -28.4501953125 733.049804688 -30 735.099609375 -30 c 0
 737.700195312 -30 742 -23.5 756 1.75 c 0
 767.599609375 22.7001953125 771.349609375 29.150390625 778.150390625 40 c 0
 795.099609375 66.9501953125 813 91.650390625 830.549804688 112.25 c 0
 846.950195312 131.450195312 854.900390625 142.799804688 863.900390625 160 c 0
 871.299804688 174.049804688 874.650390625 182.700195312 878.299804688 197 c 0
 883 215.200195312 888.400390625 225.450195312 898.75 235.799804688 c 0
 907.150390625 244.200195312 912.049804688 246.299804688 922.700195312 245.900390625 c 0
 929 245.700195312 931.549804688 244.799804688 936.5 241.049804688 c 0
 943.349609375 235.900390625 949 224.799804688 950.75 213 c 0
 952.799804688 199.549804688 950.700195312 183.349609375 945.25 170.650390625 c 0
 942.299804688 163.700195312 939.200195312 158.5 932.700195312 149.650390625 c 0
 929.799804688 145.75 925.5 139.450195312 923.200195312 135.650390625 c 0
 918.799804688 128.5 907.75 106.700195312 901.5 92.75 c 0
 857.75 -4.400390625 803.700195312 -170.599609375 785 -265.25 c 0
 783.900390625 -271 781.049804688 -287.299804688 778.700195312 -301.5 c 0
 770.900390625 -348.799804688 767.099609375 -364.650390625 759.450195312 -382.099609375 c 0
 746.049804688 -412.650390625 722.75 -426.349609375 674 -432.450195312 c 0
 647.5 -435.75 622.099609375 -436.849609375 560.25 -437.299804688 c 0
 448.5 -438.150390625 373.25 -434.650390625 334.5 -426.75 c 0
 322.650390625 -424.349609375 311.400390625 -421 306 -418.25 c 0
 302.5 -416.5 297.849609375 -412.799804688 295.849609375 -410.200195312 c 0
 292.099609375 -405.400390625 285.799804688 -391 280.849609375 -375.75 c 0
 273.25 -352.5 267.950195312 -329.549804688 261.5 -292.450195312 c 0
 254.049804688 -249.25 246.950195312 -218.900390625 232.450195312 -168 c 0
 202.25 -62.25 160.799804688 52 130.25 113.75 c 0
 122.099609375 130.150390625 116.900390625 139 109.650390625 148.799804688 c 0
 103.25 157.450195312 101.349609375 160.349609375 98.7998046875 165.450195312 c 0
 84.5 193.849609375 88.25 229.950195312 106.75 242.25 c 0
 111.200195312 245.200195312 114.5 246.150390625 120.25 246.200195312 c 0
 129.150390625 246.25 135.450195312 243.400390625 143 235.900390625 c 0
 150.25 228.75 157.299804688 217.049804688 160.650390625 206.75 c 0
 161.400390625 204.549804688 162.75 199.599609375 163.700195312 195.75 c 0
 168.450195312 176.700195312 177.799804688 157.049804688 191.950195312 136.5 c 0
 197.200195312 128.799804688 200.549804688 124.549804688 210.25 113.200195312 c 0
 224.700195312 96.2998046875 235.849609375 81.5498046875 250.200195312 60.400390625 c 0
 262.900390625 41.599609375 270.75 28.7001953125 284.200195312 4.25 c 0
 298.299804688 -21.25 301.950195312 -27.150390625 305.25 -29.2998046875 c 0
 308.200195312 -31.25 309.049804688 -28.5 309.049804688 -17.349609375 c 0
 309 -4.5 306.700195312 20.400390625 301 70.5 c 0
 295.849609375 115.450195312 289.75 151.049804688 282 181.349609375 c 0
 276.5 202.900390625 273.200195312 211.200195312 266.799804688 219.700195312 c 0
 258.799804688 230.349609375 254 242.75 251.700195312 258.5 c 0
 250.5 267 250.900390625 289.75 252.450195312 298.450195312 c 0
 257.799804688 328.150390625 270.349609375 349.25 287.75 357.75 c 0
 293.299804688 360.450195312 297.450195312 361.5 303 361.5 c 0
 312.599609375 361.5 321.299804688 357.349609375 329.349609375 348.849609375 c 0
 342.549804688 334.950195312 349.799804688 314.299804688 350.799804688 287.799804688 c 0
 351.150390625 278.200195312 350.650390625 270.950195312 348.75 259.349609375 c 0
 347.599609375 252.400390625 347.5 250.450195312 347.5 235.900390625 c 0
 347.5 219.200195312 347.799804688 215.299804688 350.299804688 201 c 0
 353.950195312 179.849609375 358.200195312 167.299804688 371.150390625 139.75 c 0
 380.599609375 119.599609375 388.950195312 94.849609375 393 75.0498046875 c 0
 394.75 66.400390625 395.200195312 62.650390625 396.25 48.75 c 0
 397.700195312 29.599609375 401.400390625 12.7998046875 407.599609375 -3.150390625 c 0
 413.450195312 -18.2998046875 425.349609375 -36 429.599609375 -36 c 0
 431 -36 433.75 -33 435.450195312 -29.5498046875 c 0
 441.700195312 -17.2001953125 449.849609375 18.5498046875 471.200195312 127.299804688 c 0
 482.299804688 183.799804688 484.849609375 198.049804688 487.349609375 217.75 c 0
 488.650390625 228.25 488.700195312 229.700195312 488.700195312 250 c 0
 488.700195312 271.049804688 488.700195312 271.299804688 487.400390625 278 c 0
 484.5 292.450195312 481.299804688 300.450195312 472.25 316 c 0
 459.25 338.349609375 457.299804688 349.599609375 464 363.049804688 c 0
 468.599609375 372.349609375 478.400390625 383.900390625 494.25 398.700195312 c 0
 504.650390625 408.400390625 510.349609375 412.549804688 515.75 414.349609375 c 0
581.25 -110 m 0
 563.099609375 -109.450195312 475.200195312 -109.450195312 457.75 -110.049804688 c 0
 387.549804688 -112.299804688 324.5 -117.400390625 302.599609375 -122.5 c 0
 296.200195312 -124 295.049804688 -124.950195312 298.150390625 -126.25 c 0
 305.25 -129.200195312 338.349609375 -131.900390625 387.25 -133.5 c 0
 459.549804688 -135.849609375 587.599609375 -135.849609375 655.5 -133.5 c 0
 713.299804688 -131.5 746 -128.349609375 744.900390625 -124.900390625 c 0
 744 -122.099609375 713.299804688 -117.650390625 674.75 -114.75 c 0
 646.299804688 -112.599609375 615.650390625 -111.049804688 581.25 -110 c 0
527.900390625 -191 m 0
 520.950195312 -190.75 514.900390625 -190.549804688 514.5 -190.599609375 c 0
 514.099609375 -190.650390625 512.650390625 -190.75 511.25 -190.849609375 c 0
 478.599609375 -192.849609375 452.200195312 -198.25 377 -218.25 c 0
 326.099609375 -231.799804688 307 -237.650390625 306.549804688 -239.75 c 0
 306.400390625 -240.599609375 306.700195312 -240.650390625 311.75 -240.299804688 c 0
 318.25 -239.900390625 326.900390625 -238.849609375 353.25 -235.25 c 0
 400.700195312 -228.849609375 442.849609375 -224.75 484.75 -222.450195312 c 0
 502 -221.549804688 556.299804688 -222.099609375 574.25 -223.450195312 c 0
 620.049804688 -226.799804688 645.400390625 -229.450195312 692.25 -235.75 c 0
 720.5 -239.549804688 724.25 -240 730.400390625 -240 c 0
 737.799804688 -240 736.650390625 -239.049804688 724.5 -235.099609375 c 0
 709.25 -230.099609375 668.950195312 -219 630.25 -209.25 c 0
 577 -195.75 556.599609375 -192.099609375 527.900390625 -191 c 0
EndSplineSet
EndChar

